{"glyphs":{"0":{"ha":850,"x_min":63,"x_max":788,"o":"m 422 -21 q 272 13 339 -21 q 158 113 206 47 q 87 269 111 178 q 63 475 63 361 q 88 686 63 593 q 163 844 114 779 q 279 944 211 910 q 431 979 347 979 q 581 944 515 979 q 693 844 647 910 q 763 688 739 779 q 788 483 788 597 q 763 274 788 367 q 690 115 738 181 q 574 14 642 49 q 422 -21 507 -21 m 425 129 q 570 220 518 129 q 622 479 622 311 q 570 738 622 647 q 425 829 518 829 q 280 738 332 829 q 228 479 228 647 q 280 220 228 311 q 425 129 332 129 z "},"1":{"ha":599,"x_min":26,"x_max":453,"o":"m 292 0 l 292 782 l 83 665 l 26 800 l 317 958 l 453 958 l 453 0 l 292 0 z "},"2":{"ha":788,"x_min":60,"x_max":718,"o":"m 65 0 l 65 122 q 190 227 136 181 q 285 313 243 274 q 363 388 326 351 q 463 497 425 450 q 519 586 501 544 q 538 672 538 628 q 518 757 538 721 q 465 813 499 793 q 385 833 431 833 q 276 794 322 833 q 213 685 231 754 l 60 715 q 124 854 78 794 q 240 947 171 914 q 389 979 308 979 q 514 956 457 979 q 613 892 571 933 q 678 797 656 851 q 701 676 701 742 q 679 560 701 617 q 609 442 657 503 q 486 307 561 381 q 307 146 408 231 l 718 146 l 718 0 l 65 0 z "},"3":{"ha":785,"x_min":40,"x_max":724,"o":"m 385 -21 q 233 8 303 -21 q 112 93 163 36 q 40 232 61 150 l 190 261 q 263 158 213 194 q 382 122 313 122 q 474 142 433 122 q 537 196 514 161 q 560 275 560 231 q 537 353 560 319 q 473 406 514 388 q 376 424 432 424 l 274 424 l 274 565 l 369 565 q 459 583 421 565 q 518 632 497 600 q 539 706 539 664 q 519 774 539 744 q 466 819 500 803 q 386 836 432 836 q 276 801 324 836 q 208 701 228 767 l 58 731 q 122 861 75 806 q 239 948 169 917 q 393 979 308 979 q 516 960 460 979 q 614 907 572 942 q 678 824 656 872 q 701 718 701 776 q 665 590 701 646 q 560 503 628 535 q 680 414 636 475 q 724 271 724 353 q 698 155 724 208 q 626 63 672 101 q 519 1 581 24 q 385 -21 457 -21 z "},"4":{"ha":822,"x_min":47,"x_max":767,"o":"m 494 0 l 494 210 l 47 210 l 47 339 l 476 958 l 653 958 l 653 347 l 767 347 l 767 210 l 653 210 l 653 0 l 494 0 m 207 347 l 494 347 l 494 760 l 207 347 z "},"5":{"ha":772,"x_min":49,"x_max":729,"o":"m 386 -21 q 234 10 303 -21 q 117 97 165 40 q 49 228 68 153 l 201 254 q 273 157 224 192 q 386 122 322 122 q 478 145 438 122 q 542 208 519 168 q 565 299 565 247 q 542 388 565 349 q 479 449 519 426 q 388 471 439 471 q 301 453 343 471 q 232 408 260 436 l 101 422 l 101 958 l 658 958 l 658 810 l 254 810 l 254 561 q 418 614 319 614 q 542 590 485 614 q 640 524 599 567 q 706 425 682 482 q 729 301 729 368 q 703 173 729 232 q 629 70 676 114 q 520 3 582 26 q 386 -21 458 -21 z "},"6":{"ha":824,"x_min":64,"x_max":781,"o":"m 438 -21 q 285 13 354 -21 q 167 107 217 46 q 91 255 118 168 q 64 447 64 342 q 96 660 64 563 q 186 828 128 757 q 325 940 244 900 q 504 979 406 979 q 621 963 565 979 q 725 915 676 947 l 676 782 q 598 817 642 804 q 507 831 554 831 q 369 792 429 831 q 272 678 308 754 q 225 493 235 603 q 320 583 260 550 q 461 615 381 615 q 588 592 529 615 q 689 526 646 568 q 756 427 732 483 q 781 306 781 371 q 755 177 781 236 q 682 74 729 118 q 572 4 635 29 q 438 -21 510 -21 m 436 121 q 528 145 488 121 q 593 210 569 169 q 617 303 617 251 q 593 394 617 354 q 529 456 569 433 q 438 479 489 479 q 346 456 386 479 q 282 394 306 433 q 258 304 258 356 q 282 211 258 253 q 346 145 306 169 q 436 121 386 121 z "},"7":{"ha":767,"x_min":49,"x_max":707,"o":"m 176 0 l 528 810 l 49 810 l 49 958 l 707 958 l 707 833 l 357 0 l 176 0 z "},"8":{"ha":819,"x_min":57,"x_max":763,"o":"m 408 -21 q 266 0 331 -21 q 155 58 201 21 q 83 149 108 96 q 57 264 57 201 q 101 409 57 346 q 222 501 144 472 q 122 588 157 533 q 88 711 88 643 q 112 819 88 769 q 180 903 136 868 q 283 959 224 939 q 411 979 342 979 q 538 960 481 979 q 640 904 596 940 q 707 820 683 868 q 731 714 731 772 q 697 591 731 646 q 599 503 663 536 q 719 413 676 475 q 763 269 763 351 q 737 152 763 206 q 663 60 711 99 q 551 0 615 21 q 408 -21 486 -21 m 410 564 q 494 582 457 564 q 551 631 531 600 q 572 701 572 661 q 551 772 572 742 q 494 821 531 803 q 410 839 457 839 q 326 821 363 839 q 268 772 289 803 q 247 701 247 742 q 268 631 247 661 q 326 582 289 600 q 410 564 363 564 m 410 119 q 509 139 467 119 q 575 193 551 158 q 599 274 599 228 q 575 354 599 319 q 509 408 551 389 q 410 428 467 428 q 310 408 353 428 q 244 354 268 389 q 221 274 221 319 q 244 193 221 228 q 310 139 268 158 q 410 119 353 119 z "},"9":{"ha":819,"x_min":43,"x_max":756,"o":"m 321 -21 q 90 43 189 -21 l 139 176 q 219 141 174 154 q 317 128 264 128 q 453 160 393 128 q 550 267 513 193 q 596 465 588 342 q 501 376 561 408 q 360 343 440 343 q 234 367 292 343 q 133 433 176 390 q 67 531 90 475 q 43 653 43 588 q 69 781 43 722 q 141 885 94 840 q 249 954 188 929 q 385 979 311 979 q 536 947 468 979 q 653 852 604 914 q 729 701 703 790 q 756 500 756 613 q 724 279 756 376 q 635 115 693 182 q 497 14 576 49 q 321 -21 417 -21 m 383 479 q 475 502 435 479 q 538 564 515 525 q 561 654 561 603 q 538 747 561 706 q 474 813 514 789 q 385 838 435 838 q 294 813 335 838 q 231 748 254 789 q 207 656 207 707 q 230 565 207 604 q 293 502 253 525 q 383 479 333 479 z "},"\u0000":{"ha":0,"x_min":0,"x_max":0,"o":""},"\r":{"ha":296,"x_min":0,"x_max":0,"o":""}," ":{"ha":296,"x_min":0,"x_max":0,"o":""},".":{"ha":353,"x_min":71,"x_max":282,"o":"m 176 -6 q 124 8 147 -6 q 85 47 100 22 q 71 100 71 71 q 85 153 71 129 q 124 192 100 178 q 176 206 147 206 q 229 192 206 206 q 267 153 253 178 q 282 100 282 129 q 267 47 282 71 q 229 8 253 22 q 176 -6 206 -6 z "},":":{"ha":353,"x_min":71,"x_max":282,"o":"m 176 -6 q 124 8 147 -6 q 85 47 100 22 q 71 100 71 71 q 85 153 71 129 q 124 192 100 178 q 176 206 147 206 q 229 192 206 206 q 267 153 253 178 q 282 100 282 129 q 267 47 282 71 q 229 8 253 22 q 176 -6 206 -6 m 176 521 q 124 535 147 521 q 85 573 100 549 q 71 626 71 597 q 85 680 71 656 q 124 718 100 704 q 176 732 147 732 q 229 718 206 732 q 267 680 253 704 q 282 626 282 656 q 267 573 282 597 q 229 535 253 549 q 176 521 206 521 z "},",":{"ha":353,"x_min":69,"x_max":314,"o":"m 106 -240 l 72 -147 q 167 -85 132 -126 q 203 4 203 -44 q 199 38 203 22 q 157 24 181 24 q 113 35 133 24 q 81 68 93 47 q 69 114 69 89 q 83 160 69 139 q 120 193 97 181 q 171 206 143 206 q 244 181 211 206 q 295 115 276 157 q 314 22 314 74 q 288 -91 314 -39 q 216 -181 263 -143 q 106 -240 169 -219 z "},";":{"ha":353,"x_min":69,"x_max":314,"o":"m 106 -240 l 72 -147 q 167 -85 132 -126 q 203 4 203 -44 q 199 38 203 22 q 157 24 181 24 q 113 35 133 24 q 81 68 93 47 q 69 114 69 89 q 83 160 69 139 q 120 193 97 181 q 171 206 143 206 q 244 181 211 206 q 295 115 276 157 q 314 22 314 74 q 288 -91 314 -39 q 216 -181 263 -143 q 106 -240 169 -219 m 176 521 q 124 535 147 521 q 85 573 100 549 q 71 626 71 597 q 85 680 71 656 q 124 718 100 704 q 176 732 147 732 q 229 718 206 732 q 267 680 253 704 q 282 626 282 656 q 267 573 282 597 q 229 535 253 549 q 176 521 206 521 z "},"?":{"ha":729,"x_min":28,"x_max":679,"o":"m 268 289 l 268 504 q 449 587 388 533 q 511 714 511 640 q 491 790 511 757 q 435 842 471 824 q 354 861 400 861 q 244 826 292 861 q 178 731 197 792 l 28 767 q 91 892 44 838 q 206 976 138 946 q 356 1007 274 1007 q 484 985 425 1007 q 587 925 543 964 q 655 834 631 886 q 679 721 679 782 q 649 592 679 651 q 560 488 618 532 q 424 419 503 444 l 424 289 l 268 289 m 346 -6 q 294 8 317 -6 q 257 46 271 22 q 243 97 243 69 q 257 149 243 125 q 294 186 271 172 q 346 200 317 200 q 398 186 375 200 q 435 149 421 172 q 449 97 449 125 q 435 46 449 69 q 398 8 421 22 q 346 -6 375 -6 z "},"!":{"ha":347,"x_min":71,"x_max":276,"o":"m 96 289 l 88 986 l 260 986 l 251 289 l 96 289 m 174 -6 q 122 8 144 -6 q 85 46 99 22 q 71 97 71 69 q 85 149 71 125 q 122 186 99 172 q 174 200 144 200 q 226 186 203 200 q 263 149 249 172 q 276 97 276 125 q 263 46 276 69 q 226 8 249 22 q 174 -6 203 -6 z "},"¿":{"ha":690,"x_min":39,"x_max":690,"o":"m 372 526 q 321 540 344 526 q 283 577 297 554 q 269 629 269 600 q 283 681 269 658 q 321 718 297 704 q 372 732 344 732 q 424 718 400 732 q 461 681 447 704 q 475 629 475 658 q 461 577 475 600 q 424 540 447 554 q 372 526 400 526 m 363 -281 q 234 -259 293 -281 q 131 -199 175 -237 q 63 -108 88 -160 q 39 6 39 -56 q 69 135 39 75 q 158 238 100 194 q 294 307 215 282 l 294 438 l 450 438 l 450 222 q 269 140 331 193 q 207 13 207 86 q 227 -64 207 -31 q 282 -116 247 -97 q 364 -135 317 -135 q 474 -99 426 -135 q 540 -4 522 -64 l 690 -40 q 626 -165 672 -111 q 513 -250 581 -219 q 363 -281 444 -281 z "},"¡":{"ha":347,"x_min":71,"x_max":276,"o":"m 174 526 q 122 540 144 526 q 85 577 99 554 q 71 629 71 600 q 85 681 71 658 q 122 718 99 704 q 174 732 144 732 q 226 718 203 732 q 263 681 249 704 q 276 629 276 658 q 263 577 276 600 q 226 540 249 554 q 174 526 203 526 m 88 -260 l 96 438 l 251 438 l 260 -260 l 88 -260 z "},"'":{"ha":300,"x_min":78,"x_max":222,"o":"m 85 611 l 78 986 l 222 986 l 215 611 l 85 611 z "},"\"":{"ha":563,"x_min":78,"x_max":485,"o":"m 85 611 l 78 986 l 222 986 l 215 611 l 85 611 m 347 611 l 340 986 l 485 986 l 478 611 l 347 611 z "},"…":{"ha":1058,"x_min":71,"x_max":988,"o":"m 176 -6 q 124 8 147 -6 q 85 47 100 22 q 71 100 71 71 q 85 153 71 129 q 124 192 100 178 q 176 206 147 206 q 229 192 206 206 q 267 153 253 178 q 282 100 282 129 q 267 47 282 71 q 229 8 253 22 q 176 -6 206 -6 m 529 -6 q 476 8 500 -6 q 438 47 453 22 q 424 100 424 71 q 438 153 424 129 q 476 192 453 178 q 529 206 500 206 q 582 192 558 206 q 620 153 606 178 q 635 100 635 129 q 620 47 635 71 q 582 8 606 22 q 529 -6 558 -6 m 882 -6 q 829 8 853 -6 q 791 47 806 22 q 776 100 776 71 q 791 153 776 129 q 829 192 806 178 q 882 206 853 206 q 935 192 911 206 q 973 153 958 178 q 988 100 988 129 q 973 47 988 71 q 935 8 958 22 q 882 -6 911 -6 z "}," ":{"ha":296,"x_min":0,"x_max":0,"o":""}," ":{"ha":694,"x_min":0,"x_max":0,"o":""}," ":{"ha":1389,"x_min":0,"x_max":0,"o":""}," ":{"ha":694,"x_min":0,"x_max":0,"o":""}," ":{"ha":1389,"x_min":0,"x_max":0,"o":""}," ":{"ha":463,"x_min":0,"x_max":0,"o":""}," ":{"ha":347,"x_min":0,"x_max":0,"o":""}," ":{"ha":231,"x_min":0,"x_max":0,"o":""}," ":{"ha":825,"x_min":0,"x_max":0,"o":""}," ":{"ha":353,"x_min":0,"x_max":0,"o":""}," ":{"ha":278,"x_min":0,"x_max":0,"o":""}," ":{"ha":88,"x_min":0,"x_max":0,"o":""},"​":{"ha":0,"x_min":0,"x_max":0,"o":""},"₀":{"ha":496,"x_min":39,"x_max":456,"o":"m 247 -12 q 137 20 183 -12 q 65 115 90 53 q 39 264 39 178 q 64 410 39 349 q 135 506 89 472 q 247 540 182 540 q 358 508 311 540 q 430 413 404 475 q 456 264 456 350 q 431 117 456 179 q 359 22 406 56 q 247 -12 313 -12 m 247 93 q 314 137 290 93 q 338 264 338 181 q 314 391 338 347 q 247 435 290 435 q 181 391 204 435 q 157 264 157 347 q 181 137 157 181 q 247 93 204 93 z "},"₁":{"ha":496,"x_min":79,"x_max":346,"o":"m 231 0 l 231 406 l 115 344 l 79 440 l 246 528 l 346 528 l 346 0 l 231 0 z "},"₂":{"ha":496,"x_min":56,"x_max":442,"o":"m 61 0 l 61 85 q 123 135 92 108 q 180 183 154 161 q 218 217 206 206 q 290 297 265 258 q 314 368 314 335 q 295 417 314 396 q 244 438 276 438 q 194 420 217 438 q 164 368 172 403 l 56 386 q 92 467 64 432 q 160 521 119 501 q 250 540 201 540 q 344 518 303 540 q 408 458 385 496 q 432 371 432 419 q 401 268 432 317 q 308 165 369 219 q 272 135 292 150 q 232 103 253 119 l 442 103 l 442 0 l 61 0 z "},"₃":{"ha":496,"x_min":42,"x_max":439,"o":"m 242 -12 q 110 27 163 -12 q 42 132 58 67 l 149 150 q 181 106 157 122 q 238 89 204 89 q 298 108 274 89 q 322 157 322 126 q 300 203 322 185 q 240 221 278 221 l 183 221 l 183 321 l 232 321 q 289 338 267 321 q 311 382 311 356 q 290 423 311 407 q 239 439 269 439 q 188 425 210 439 q 158 383 167 411 l 51 401 q 88 475 61 444 q 156 523 115 506 q 246 540 196 540 q 338 522 297 540 q 403 469 379 503 q 426 393 426 436 q 406 324 426 354 q 349 276 386 294 q 415 227 392 260 q 439 149 439 194 q 413 66 439 103 q 343 8 388 29 q 242 -12 299 -12 z "},"₄":{"ha":496,"x_min":31,"x_max":446,"o":"m 276 0 l 276 106 l 31 106 l 31 199 l 258 528 l 389 528 l 389 201 l 446 201 l 446 106 l 389 106 l 389 0 l 276 0 m 140 201 l 276 201 l 276 397 l 140 201 z "},"⁄":{"ha":129,"x_min":-301,"x_max":431,"o":"m -301 0 l 304 958 l 431 958 l -175 0 l -301 0 z "},"%":{"ha":1032,"x_min":49,"x_max":983,"o":"m 265 538 q 154 565 203 538 q 77 642 106 593 q 49 753 49 690 q 77 865 49 815 q 156 942 106 914 q 268 971 206 971 q 379 942 331 971 q 456 865 428 914 q 485 754 485 817 q 456 643 485 692 q 378 566 428 594 q 265 538 328 538 m 283 0 l 150 0 l 749 958 l 882 958 l 283 0 m 172 754 q 185 698 172 722 q 218 660 197 674 q 267 646 239 646 q 315 660 294 646 q 349 698 336 674 q 361 754 361 722 q 349 810 361 786 q 315 849 336 835 q 267 863 294 863 q 218 849 239 863 q 185 810 197 835 q 172 754 172 786 m 764 -12 q 653 15 703 -12 q 576 92 604 43 q 547 203 547 140 q 576 315 547 265 q 653 392 604 364 q 767 421 703 421 q 877 392 828 421 q 955 315 926 364 q 983 204 983 267 q 955 93 983 142 q 877 16 926 44 q 764 -12 828 -12 m 765 96 q 813 110 792 96 q 847 148 835 124 q 860 204 860 172 q 847 260 860 236 q 813 299 835 285 q 765 313 792 313 q 717 299 739 313 q 683 260 696 285 q 671 204 671 236 q 683 148 671 172 q 717 110 696 124 q 765 96 739 96 z "},"‰":{"ha":1533,"x_min":49,"x_max":1485,"o":"m 265 538 q 154 565 203 538 q 77 642 106 593 q 49 753 49 690 q 77 865 49 815 q 156 942 106 914 q 268 971 206 971 q 379 942 331 971 q 456 865 428 914 q 485 754 485 817 q 456 643 485 692 q 378 566 428 594 q 265 538 328 538 m 283 0 l 150 0 l 749 958 l 882 958 l 283 0 m 172 754 q 185 698 172 722 q 218 660 197 674 q 267 646 239 646 q 315 660 294 646 q 349 698 336 674 q 361 754 361 722 q 349 810 361 786 q 315 849 336 835 q 267 863 294 863 q 218 849 239 863 q 185 810 197 835 q 172 754 172 786 m 764 -12 q 653 15 703 -12 q 576 92 604 43 q 547 203 547 140 q 576 315 547 265 q 653 392 604 364 q 767 421 703 421 q 877 392 828 421 q 955 315 926 364 q 983 204 983 267 q 955 93 983 142 q 877 16 926 44 q 764 -12 828 -12 m 1265 -12 q 1154 15 1203 -12 q 1077 92 1106 43 q 1049 203 1049 140 q 1077 315 1049 265 q 1156 392 1106 364 q 1268 421 1206 421 q 1379 392 1331 421 q 1456 315 1428 364 q 1485 204 1485 267 q 1456 93 1485 142 q 1378 16 1428 44 q 1265 -12 1328 -12 m 765 96 q 813 110 792 96 q 847 148 835 124 q 860 204 860 172 q 847 260 860 236 q 813 299 835 285 q 765 313 792 313 q 717 299 739 313 q 683 260 696 285 q 671 204 671 236 q 683 148 671 172 q 717 110 696 124 q 765 96 739 96 m 1267 96 q 1315 110 1294 96 q 1349 148 1336 124 q 1361 204 1361 172 q 1349 260 1361 236 q 1315 299 1336 285 q 1267 313 1294 313 q 1218 299 1239 313 q 1185 260 1197 285 q 1172 204 1172 236 q 1185 148 1172 172 q 1218 110 1197 124 q 1267 96 1239 96 z "},"½":{"ha":1121,"x_min":79,"x_max":1067,"o":"m 182 0 l 788 958 l 914 958 l 308 0 l 182 0 m 686 0 l 686 85 q 748 135 717 108 q 805 183 779 161 q 843 217 831 206 q 915 297 890 258 q 939 368 939 335 q 920 417 939 396 q 869 438 901 438 q 819 420 842 438 q 789 368 797 403 l 681 386 q 717 467 689 432 q 785 521 744 501 q 875 540 826 540 q 969 518 928 540 q 1033 458 1010 496 q 1057 371 1057 419 q 1026 268 1057 317 q 933 165 994 219 q 897 135 917 150 q 857 103 878 119 l 1067 103 l 1067 0 l 686 0 m 231 431 l 231 836 l 115 775 l 79 871 l 246 958 l 346 958 l 346 431 l 231 431 z "},"¼":{"ha":1121,"x_min":79,"x_max":1071,"o":"m 207 0 l 813 958 l 939 958 l 333 0 l 207 0 m 901 0 l 901 106 l 656 106 l 656 199 l 883 528 l 1014 528 l 1014 201 l 1071 201 l 1071 106 l 1014 106 l 1014 0 l 901 0 m 765 201 l 901 201 l 901 397 l 765 201 m 231 431 l 231 836 l 115 775 l 79 871 l 246 958 l 346 958 l 346 431 l 231 431 z "},"¾":{"ha":1121,"x_min":42,"x_max":1071,"o":"m 213 0 l 818 958 l 944 958 l 339 0 l 213 0 m 901 0 l 901 106 l 656 106 l 656 199 l 883 528 l 1014 528 l 1014 201 l 1071 201 l 1071 106 l 1014 106 l 1014 0 l 901 0 m 765 201 l 901 201 l 901 397 l 765 201 m 242 418 q 110 458 163 418 q 42 563 58 497 l 149 581 q 181 536 157 553 q 238 519 204 519 q 298 538 274 519 q 322 588 322 557 q 300 633 322 615 q 240 651 278 651 l 183 651 l 183 751 l 232 751 q 289 769 267 751 q 311 813 311 786 q 290 853 311 838 q 239 869 269 869 q 188 856 210 869 q 158 814 167 842 l 51 832 q 88 906 61 875 q 156 953 115 936 q 246 971 196 971 q 338 952 297 971 q 403 900 379 933 q 426 824 426 867 q 406 755 426 785 q 349 707 386 725 q 415 658 392 690 q 439 579 439 625 q 413 497 439 533 q 343 439 388 460 q 242 418 299 418 z "},"$":{"ha":825,"x_min":71,"x_max":756,"o":"m 371 -194 l 371 -11 q 238 31 299 -1 q 135 115 178 63 q 71 238 92 168 l 219 271 q 278 176 240 213 q 371 126 317 139 l 371 422 q 166 517 239 446 q 93 692 93 588 q 128 826 93 767 q 226 924 164 886 q 371 971 289 963 l 371 1139 l 464 1139 l 464 969 q 590 929 533 961 q 686 846 647 897 q 742 726 725 794 l 596 693 q 544 784 576 750 q 464 829 511 818 l 464 560 l 488 556 q 687 460 618 532 q 756 281 756 388 q 718 135 756 199 q 615 34 681 72 q 464 -12 550 -4 l 464 -194 l 371 -194 m 249 706 q 276 631 249 664 q 371 579 303 599 l 371 832 q 281 789 314 822 q 249 706 249 756 m 600 265 q 566 352 600 317 q 464 404 532 388 l 464 124 q 563 171 525 133 q 600 265 600 208 z "},"¢":{"ha":825,"x_min":75,"x_max":754,"o":"m 379 -192 l 379 -10 q 257 31 313 0 q 160 111 201 63 q 97 223 119 160 q 75 358 75 286 q 97 494 75 431 q 160 609 119 558 q 257 692 201 660 q 379 736 313 725 l 379 903 l 472 903 l 472 739 q 594 706 539 733 q 690 633 650 678 q 747 528 729 588 l 596 492 q 544 562 576 535 q 472 599 513 589 l 472 128 q 550 163 515 136 q 604 233 585 190 l 754 199 q 694 94 736 139 q 596 22 653 50 q 472 -12 539 -6 l 472 -192 l 379 -192 m 239 360 q 256 256 239 303 q 305 177 274 210 q 379 132 336 144 l 379 594 q 306 546 338 579 q 257 465 275 513 q 239 360 239 417 z "},"£":{"ha":825,"x_min":42,"x_max":775,"o":"m 43 0 l 43 146 l 128 146 l 149 399 l 42 399 l 42 526 l 158 526 l 171 671 q 217 835 178 767 q 323 942 257 904 q 475 979 389 979 q 615 949 553 979 q 717 863 676 919 q 775 729 758 807 l 622 699 q 571 799 608 765 q 476 833 533 833 q 375 790 414 833 q 331 669 336 747 l 319 526 l 574 526 l 574 399 l 308 399 l 289 146 l 774 146 l 774 0 l 43 0 z "},"¥":{"ha":825,"x_min":29,"x_max":796,"o":"m 128 172 l 128 276 l 332 276 l 332 388 l 128 388 l 128 492 l 282 492 l 29 958 l 208 958 l 415 532 l 622 958 l 796 958 l 543 492 l 697 492 l 697 388 l 493 388 l 493 276 l 697 276 l 697 172 l 493 172 l 493 0 l 332 0 l 332 172 l 128 172 z "},"€":{"ha":825,"x_min":-6,"x_max":792,"o":"m -6 318 l 19 422 l 100 422 q 99 471 99 446 q 100 529 99 501 l -6 529 l 19 633 l 113 633 q 182 819 133 742 q 303 938 231 897 q 468 979 376 979 q 613 949 547 979 q 722 863 678 918 q 786 731 767 807 l 635 700 q 571 798 615 764 q 467 832 526 832 q 344 781 393 832 q 275 633 296 729 l 574 633 l 549 529 l 261 529 q 260 474 260 503 q 261 422 260 447 l 528 422 l 504 318 l 275 318 q 343 175 294 224 q 465 126 392 126 q 574 161 528 126 q 640 258 621 196 l 792 228 q 726 96 772 151 q 612 10 679 40 q 463 -21 544 -21 q 297 19 369 -21 q 178 135 225 60 q 111 318 131 211 l -6 318 z "},"₺":{"ha":825,"x_min":69,"x_max":768,"o":"m 169 0 l 169 281 l 69 233 l 69 347 l 169 394 l 169 508 l 71 461 l 71 575 l 169 622 l 169 958 l 331 958 l 331 700 l 526 793 l 526 679 l 331 586 l 331 472 l 526 565 l 526 451 l 331 358 l 331 154 l 333 154 q 523 220 453 154 q 615 413 593 286 l 768 399 q 624 101 738 201 q 317 0 511 0 l 169 0 z "},"₹":{"ha":825,"x_min":104,"x_max":756,"o":"m 104 836 l 104 958 l 756 958 l 725 836 l 572 836 q 644 713 625 786 l 756 713 l 725 592 l 650 592 q 601 469 640 522 q 501 383 563 415 q 360 342 439 350 l 754 0 l 518 0 l 106 363 l 104 363 l 104 475 q 178 463 133 468 q 264 458 222 458 q 415 492 358 458 q 486 592 471 526 l 104 592 l 104 713 l 485 713 q 415 804 467 772 q 285 836 364 836 l 104 836 z "},"₡":{"ha":825,"x_min":65,"x_max":768,"o":"m 192 -194 l 232 49 q 109 216 153 107 q 65 474 65 325 q 104 722 65 615 q 215 892 143 828 q 386 968 288 956 l 414 1132 l 493 1132 l 467 971 q 542 958 506 968 l 571 1132 l 650 1132 l 615 925 q 763 715 724 858 l 619 686 q 586 754 607 725 l 482 132 q 570 181 535 143 q 621 272 606 218 l 768 243 q 706 114 749 169 q 599 25 663 58 q 458 -12 536 -8 l 428 -194 l 349 -194 l 379 -10 q 304 8 340 -6 l 271 -194 l 192 -194 m 331 158 q 403 129 363 136 l 518 814 q 443 832 482 832 l 331 158 m 224 475 q 265 242 224 329 l 361 815 q 259 698 294 785 q 224 475 224 611 z "},"₪":{"ha":1276,"x_min":115,"x_max":1163,"o":"m 115 0 l 115 958 l 526 958 q 706 917 631 958 q 822 799 781 875 q 863 618 863 722 l 863 292 l 715 292 l 715 613 q 665 752 715 703 q 521 801 614 801 l 263 801 l 263 0 l 115 0 m 415 0 l 415 664 l 563 664 l 563 157 l 821 157 q 965 206 914 157 q 1015 346 1015 256 l 1015 958 l 1163 958 l 1163 340 q 1122 160 1163 236 q 1006 42 1081 83 q 826 0 931 0 l 415 0 z "},"₩":{"ha":1313,"x_min":47,"x_max":1265,"o":"m 324 0 l 228 368 l 47 368 l 47 464 l 203 464 l 172 578 l 47 578 l 47 674 l 147 674 l 74 958 l 242 958 l 303 674 l 524 674 l 589 958 l 729 958 l 796 674 l 1017 674 l 1078 958 l 1239 958 l 1165 674 l 1265 674 l 1265 578 l 1140 578 l 1110 464 l 1265 464 l 1265 368 l 1085 368 l 989 0 l 824 0 l 739 368 l 575 368 l 490 0 l 324 0 m 597 464 l 717 464 l 657 719 l 597 464 m 818 578 l 844 464 l 971 464 l 996 578 l 818 578 m 349 464 l 475 464 l 501 578 l 324 578 l 349 464 m 369 368 l 410 182 l 453 368 l 369 368 m 867 368 l 910 182 l 950 368 l 867 368 z "},"₭":{"ha":825,"x_min":17,"x_max":826,"o":"m 118 0 l 118 439 l 17 439 l 17 567 l 118 567 l 118 958 l 279 958 l 279 536 l 589 958 l 776 958 l 468 567 l 718 567 l 718 439 l 476 439 l 826 0 l 618 0 l 279 464 l 279 0 l 118 0 z "},"₨":{"ha":1463,"x_min":94,"x_max":1401,"o":"m 94 0 l 94 958 l 374 958 q 565 922 485 958 q 689 819 646 886 q 732 658 732 751 q 712 550 732 601 q 654 458 692 499 q 565 393 617 418 l 783 0 l 600 0 l 419 349 q 357 346 385 346 q 256 354 313 346 l 256 0 l 94 0 m 256 815 l 256 499 q 310 491 282 493 q 365 489 338 489 q 517 532 464 489 q 569 653 569 575 q 518 772 569 729 q 374 815 467 815 l 256 815 m 1117 -21 q 985 3 1044 -21 q 883 70 925 26 q 822 174 842 114 l 967 211 q 1026 138 986 164 q 1118 111 1065 111 q 1207 137 1172 111 q 1242 203 1242 163 q 1214 261 1242 238 q 1124 296 1186 285 l 1078 304 q 902 379 961 325 q 843 518 843 433 q 878 638 843 586 q 973 718 913 689 q 1114 747 1033 747 q 1240 724 1183 747 q 1335 657 1296 700 q 1390 556 1374 614 l 1247 521 q 1195 591 1231 565 q 1113 617 1160 617 q 1032 592 1064 617 q 1000 531 1000 568 q 1028 478 1000 499 q 1125 444 1056 457 l 1171 436 q 1342 360 1282 417 q 1401 218 1401 303 q 1381 123 1401 167 q 1322 47 1360 79 q 1231 -3 1283 14 q 1117 -21 1179 -21 z "},"₱":{"ha":825,"x_min":21,"x_max":807,"o":"m 126 0 l 126 492 l 21 492 l 21 571 l 126 571 l 126 665 l 22 665 l 22 744 l 126 744 l 126 958 l 378 958 q 525 933 460 958 q 636 859 590 907 q 704 744 682 811 l 807 744 l 807 665 l 722 665 q 725 611 725 639 q 724 571 725 590 l 807 571 l 807 492 l 707 492 q 638 372 685 422 q 523 293 590 321 q 372 265 456 265 q 285 272 333 265 l 285 0 l 126 0 m 285 819 l 285 744 l 532 744 q 465 800 506 781 q 374 819 425 819 l 285 819 m 569 613 q 564 665 569 640 l 285 665 l 285 571 l 567 571 q 569 613 569 590 m 360 404 q 466 427 421 404 q 538 492 511 450 l 285 492 l 285 411 q 360 404 326 404 z "},"฿":{"ha":825,"x_min":100,"x_max":771,"o":"m 100 0 l 100 958 l 358 958 l 358 1132 l 451 1132 l 451 957 q 600 920 538 951 q 696 836 663 889 q 729 713 729 783 q 699 593 729 646 q 610 510 668 540 q 728 420 686 483 q 771 271 771 357 q 732 133 771 192 q 622 40 693 74 q 451 0 550 6 l 451 -194 l 358 -194 l 358 0 l 100 0 m 253 824 l 253 560 l 358 560 l 358 824 l 253 824 m 571 692 q 540 779 571 746 q 451 821 508 813 l 451 563 q 540 603 510 569 q 571 692 571 638 m 253 135 l 358 135 l 358 433 l 253 433 l 253 135 m 611 283 q 569 389 611 350 q 451 433 528 428 l 451 135 q 569 179 528 140 q 611 283 611 218 z "},"₫":{"ha":825,"x_min":29,"x_max":810,"o":"m 340 -21 q 217 6 274 -21 q 119 81 161 33 q 53 194 76 129 q 29 333 29 258 q 53 475 29 410 q 121 589 78 540 q 222 665 164 638 q 349 692 281 692 q 468 663 414 692 q 557 585 522 635 l 557 754 l 375 754 l 375 865 l 557 865 l 557 958 l 718 958 l 718 865 l 810 865 l 810 754 l 718 754 l 718 0 l 571 0 l 565 104 q 471 13 529 46 q 340 -21 413 -21 m 375 121 q 469 149 428 121 q 535 225 511 176 q 560 336 560 274 q 535 447 560 399 q 469 524 511 496 q 375 551 428 551 q 281 524 322 551 q 215 447 239 496 q 192 336 192 399 q 215 225 192 274 q 281 149 239 176 q 375 121 322 121 m 36 -212 l 36 -101 l 760 -101 l 760 -212 l 36 -212 z "},"¤":{"ha":825,"x_min":65,"x_max":760,"o":"m 65 246 l 175 356 q 143 425 154 388 q 132 504 132 463 q 143 584 132 546 q 175 654 154 622 l 65 764 l 158 857 l 268 747 q 337 777 300 767 q 413 788 374 788 q 488 777 451 788 q 557 747 525 767 l 667 857 l 760 764 l 650 654 q 682 585 671 622 q 693 506 693 547 q 682 426 693 464 q 650 356 671 388 l 760 246 l 667 153 l 557 263 q 488 233 525 243 q 411 222 451 222 q 336 233 372 222 q 268 263 300 243 l 158 153 l 65 246 m 413 351 q 483 372 453 351 q 531 426 514 392 q 549 504 549 461 q 531 582 549 547 q 483 636 514 617 q 413 656 453 656 q 342 636 372 656 q 293 582 311 617 q 275 504 275 547 q 293 426 275 461 q 342 372 311 392 q 413 351 372 351 z "},"^":{"ha":825,"x_min":106,"x_max":721,"o":"m 106 478 l 343 958 l 483 958 l 721 478 l 568 478 l 411 803 l 253 478 l 106 478 z "},"+":{"ha":825,"x_min":115,"x_max":710,"o":"m 115 315 l 115 450 l 343 450 l 343 681 l 482 681 l 482 450 l 710 450 l 710 315 l 482 315 l 482 76 l 343 76 l 343 315 l 115 315 z "},"−":{"ha":825,"x_min":128,"x_max":697,"o":"m 128 313 l 128 453 l 697 453 l 697 313 l 128 313 z "},"±":{"ha":825,"x_min":122,"x_max":704,"o":"m 346 214 l 346 440 l 122 440 l 122 567 l 346 567 l 346 785 l 479 785 l 479 567 l 704 567 l 704 440 l 479 440 l 479 214 l 346 214 m 136 0 l 136 133 l 690 133 l 690 0 l 136 0 z "},"=":{"ha":825,"x_min":119,"x_max":707,"o":"m 119 471 l 119 611 l 707 611 l 707 471 l 119 471 m 119 154 l 119 294 l 707 294 l 707 154 l 119 154 z "},"÷":{"ha":825,"x_min":122,"x_max":703,"o":"m 413 528 q 369 540 389 528 q 338 571 349 551 q 326 614 326 590 q 338 657 326 638 q 369 688 349 676 q 413 700 389 700 q 456 688 436 700 q 488 657 476 676 q 499 614 499 638 q 488 571 499 590 q 456 540 476 551 q 413 528 436 528 m 122 313 l 122 453 l 703 453 l 703 313 l 122 313 m 413 65 q 369 77 389 65 q 338 108 349 89 q 326 151 326 128 q 338 194 326 175 q 369 226 349 214 q 413 238 389 238 q 456 226 436 238 q 488 194 476 214 q 499 151 499 175 q 488 108 499 128 q 456 77 476 89 q 413 65 436 65 z "},"<":{"ha":825,"x_min":132,"x_max":657,"o":"m 657 672 l 657 532 l 292 385 l 657 238 l 657 92 l 132 318 l 132 446 l 657 672 z "},">":{"ha":825,"x_min":169,"x_max":694,"o":"m 169 92 l 169 232 l 535 379 l 169 526 l 169 672 l 694 446 l 694 318 l 169 92 z "},"~":{"ha":825,"x_min":92,"x_max":733,"o":"m 535 254 q 472 265 500 254 q 422 292 444 276 q 380 324 400 308 q 341 351 360 340 q 301 363 322 363 q 228 264 246 363 l 92 264 q 158 443 106 379 q 290 507 210 507 q 353 496 325 507 q 403 469 381 485 q 445 437 425 453 q 484 410 465 421 q 524 399 503 399 q 597 497 579 399 l 733 497 q 667 318 719 382 q 535 254 615 254 z "},"¬":{"ha":825,"x_min":111,"x_max":686,"o":"m 111 376 l 111 511 l 686 511 l 686 139 l 547 139 l 547 376 l 111 376 z "},"×":{"ha":825,"x_min":131,"x_max":696,"o":"m 219 101 l 131 190 l 325 385 l 140 569 l 229 658 l 414 474 l 597 658 l 686 569 l 501 385 l 696 190 l 607 101 l 414 296 l 219 101 z "},"_":{"ha":796,"x_min":42,"x_max":754,"o":"m 42 -208 l 42 -87 l 754 -87 l 754 -208 l 42 -208 z "},"§":{"ha":703,"x_min":43,"x_max":660,"o":"m 346 -132 q 158 -83 238 -132 q 43 58 78 -35 l 189 94 q 349 -1 236 -1 q 445 24 408 -1 q 482 92 482 49 q 451 151 482 128 q 354 186 421 174 l 288 199 q 115 276 175 219 q 54 419 54 333 q 87 533 54 483 q 178 611 119 583 q 99 683 125 640 q 72 779 72 725 q 93 869 72 828 q 152 942 114 911 q 242 990 190 972 q 354 1007 293 1007 q 537 956 464 1007 q 638 819 610 906 l 492 783 q 349 875 453 875 q 263 852 297 875 q 229 792 229 829 q 263 732 229 756 q 361 699 297 708 l 431 688 q 603 611 546 669 q 660 471 660 553 q 624 353 660 403 q 531 275 589 303 q 642 101 642 217 q 620 8 642 50 q 558 -66 599 -35 q 465 -115 518 -97 q 346 -132 411 -132 m 507 438 q 477 507 507 481 q 389 546 447 533 l 357 553 q 321 557 339 557 q 238 527 271 557 q 206 449 206 497 q 235 379 206 406 q 324 340 265 353 l 356 333 q 392 329 375 329 q 474 359 442 329 q 507 438 507 389 z "},"¶":{"ha":815,"x_min":57,"x_max":708,"o":"m 379 -128 l 379 342 q 207 394 279 351 q 96 505 135 436 q 57 665 57 574 q 102 836 57 764 q 232 947 147 908 q 435 986 317 986 l 490 986 l 490 -128 l 379 -128 m 597 -128 l 597 986 l 708 986 l 708 -128 l 597 -128 z "},"#":{"ha":918,"x_min":72,"x_max":846,"o":"m 186 0 l 207 253 l 72 253 l 82 371 l 217 371 l 233 589 l 101 589 l 111 708 l 243 708 l 264 958 l 397 958 l 376 708 l 578 708 l 599 958 l 732 958 l 711 708 l 846 708 l 836 589 l 701 589 l 685 371 l 817 371 l 807 253 l 675 253 l 654 0 l 521 0 l 542 253 l 340 253 l 319 0 l 186 0 m 350 371 l 551 371 l 568 589 l 367 589 l 350 371 z "},"|":{"ha":364,"x_min":111,"x_max":253,"o":"m 111 -154 l 111 1054 l 253 1054 l 253 -154 l 111 -154 z "},"†":{"ha":654,"x_min":42,"x_max":613,"o":"m 254 -114 l 254 614 l 42 614 l 42 742 l 254 742 l 254 986 l 400 986 l 400 742 l 613 742 l 613 614 l 400 614 l 400 -114 l 254 -114 z "},"‡":{"ha":719,"x_min":74,"x_max":644,"o":"m 74 138 l 74 265 l 286 265 l 286 614 l 74 614 l 74 742 l 286 742 l 286 986 l 432 986 l 432 742 l 644 742 l 644 614 l 432 614 l 432 265 l 644 265 l 644 138 l 432 138 l 432 -114 l 286 -114 l 286 138 l 74 138 z "},"&":{"ha":968,"x_min":50,"x_max":964,"o":"m 388 -28 q 251 -7 313 -28 q 144 51 189 14 q 74 140 99 89 q 50 253 50 192 q 99 410 50 339 q 232 526 147 482 q 169 605 193 568 q 135 678 146 642 q 124 753 124 714 q 144 855 124 808 q 199 935 164 901 q 283 988 235 969 q 390 1007 332 1007 q 494 990 447 1007 q 576 940 542 972 q 631 865 611 908 q 650 772 650 822 q 457 508 650 617 l 675 289 q 720 402 703 339 q 743 539 738 465 l 886 526 q 847 340 875 425 q 776 189 819 256 l 964 0 l 750 0 l 676 75 q 544 -1 617 25 q 388 -28 471 -28 m 275 758 q 297 684 275 722 q 368 597 319 646 q 468 674 435 631 q 501 765 501 718 q 470 843 501 814 q 392 872 439 872 q 332 858 358 872 q 290 817 306 843 q 275 758 275 792 m 215 269 q 238 187 215 222 q 303 131 261 151 q 403 111 346 111 q 497 127 453 111 q 579 172 542 143 l 319 436 q 242 364 269 408 q 215 269 215 319 z "},"*":{"ha":574,"x_min":14,"x_max":560,"o":"m 179 461 l 75 535 l 204 692 l 14 740 l 51 861 l 235 788 l 222 986 l 351 986 l 339 788 l 522 861 l 560 740 l 369 692 l 499 535 l 394 461 l 286 632 l 179 461 z "},"-":{"ha":517,"x_min":64,"x_max":453,"o":"m 64 311 l 64 453 l 453 453 l 453 311 l 64 311 z "},"–":{"ha":694,"x_min":0,"x_max":694,"o":"m 0 321 l 0 443 l 694 443 l 694 321 l 0 321 z "},"—":{"ha":1389,"x_min":0,"x_max":1389,"o":"m 0 321 l 0 443 l 1389 443 l 1389 321 l 0 321 z "},"(":{"ha":475,"x_min":64,"x_max":453,"o":"m 453 -196 l 296 -196 q 122 108 181 -56 q 64 450 64 272 q 122 792 64 628 q 296 1096 181 956 l 453 1096 q 272 785 333 950 q 211 450 211 621 q 272 115 211 279 q 453 -196 333 -50 z "},")":{"ha":475,"x_min":22,"x_max":411,"o":"m 22 1096 l 179 1096 q 353 792 294 956 q 411 450 411 628 q 353 108 411 272 q 179 -196 294 -56 l 22 -196 q 203 115 142 -50 q 264 450 264 279 q 203 785 264 621 q 22 1096 142 950 z "},"/":{"ha":631,"x_min":14,"x_max":617,"o":"m 14 -154 l 469 1054 l 617 1054 l 161 -154 l 14 -154 z "},"\\":{"ha":631,"x_min":14,"x_max":617,"o":"m 469 -154 l 14 1054 l 161 1054 l 617 -154 l 469 -154 z "},"[":{"ha":497,"x_min":111,"x_max":442,"o":"m 111 -196 l 111 1096 l 442 1096 l 442 972 l 253 972 l 253 -72 l 442 -72 l 442 -196 l 111 -196 z "},"]":{"ha":497,"x_min":56,"x_max":386,"o":"m 56 -196 l 56 -72 l 244 -72 l 244 972 l 56 972 l 56 1096 l 386 1096 l 386 -196 l 56 -196 z "},"{":{"ha":510,"x_min":42,"x_max":454,"o":"m 454 1096 l 454 972 l 411 972 q 318 940 350 972 q 286 842 286 907 q 292 766 286 806 q 302 688 297 726 q 307 617 307 649 q 294 541 307 575 q 260 483 281 507 q 213 450 239 460 q 260 417 239 440 q 294 359 281 393 q 307 283 307 325 q 302 213 307 251 q 292 134 297 174 q 286 58 286 94 q 318 -40 286 -7 q 411 -72 350 -72 l 454 -72 l 454 -196 l 401 -196 q 257 -167 315 -196 q 169 -85 199 -137 q 140 40 140 -32 q 145 131 140 85 q 156 219 150 178 q 161 289 161 260 q 136 364 161 336 q 63 392 111 392 l 42 392 l 42 508 l 63 508 q 136 536 111 508 q 161 611 161 564 q 156 681 161 640 q 145 769 150 722 q 140 860 140 815 q 169 985 140 932 q 257 1067 199 1038 q 401 1096 315 1096 l 454 1096 z "},"}":{"ha":510,"x_min":56,"x_max":468,"o":"m 56 -196 l 56 -72 l 99 -72 q 191 -40 158 -72 q 224 58 224 -7 q 219 134 224 94 q 208 213 214 174 q 203 283 203 251 q 216 359 203 325 q 251 417 229 393 q 297 450 272 440 q 251 483 272 460 q 216 541 229 507 q 203 617 203 575 q 208 688 203 649 q 219 766 214 726 q 224 842 224 806 q 191 940 224 907 q 99 972 158 972 l 56 972 l 56 1096 l 108 1096 q 253 1067 194 1096 q 340 985 311 1038 q 369 860 369 932 q 364 769 369 815 q 353 681 358 722 q 349 611 349 640 q 374 536 349 564 q 447 508 400 508 l 468 508 l 468 392 l 447 392 q 374 364 400 392 q 349 289 349 336 q 353 219 349 260 q 364 131 358 178 q 369 40 369 85 q 340 -85 369 -32 q 253 -167 311 -137 q 108 -196 194 -196 l 56 -196 z "},"•":{"ha":397,"x_min":60,"x_max":338,"o":"m 199 244 q 129 263 161 244 q 78 314 97 282 q 60 383 60 346 q 78 453 60 422 q 129 503 97 485 q 199 522 161 522 q 268 503 236 522 q 319 453 300 485 q 338 383 338 422 q 319 314 338 346 q 268 263 300 282 q 199 244 236 244 z "},"‹":{"ha":411,"x_min":28,"x_max":363,"o":"m 217 132 l 28 396 l 217 660 l 363 660 l 179 396 l 363 132 l 217 132 z "},"›":{"ha":411,"x_min":49,"x_max":383,"o":"m 49 132 l 232 396 l 49 660 l 194 660 l 383 396 l 194 132 l 49 132 z "},"«":{"ha":704,"x_min":28,"x_max":656,"o":"m 217 132 l 28 396 l 217 660 l 363 660 l 179 396 l 363 132 l 217 132 m 510 132 l 321 396 l 510 660 l 656 660 l 472 396 l 656 132 l 510 132 z "},"»":{"ha":704,"x_min":49,"x_max":676,"o":"m 49 132 l 232 396 l 49 660 l 194 660 l 383 396 l 194 132 l 49 132 m 342 132 l 525 396 l 342 660 l 488 660 l 676 396 l 488 132 l 342 132 z "},"@":{"ha":1404,"x_min":64,"x_max":1340,"o":"m 671 39 q 557 63 610 39 q 465 131 504 88 q 403 233 425 174 q 382 360 382 292 q 403 487 382 428 q 465 590 425 546 q 556 658 504 633 q 668 683 608 683 q 783 655 732 683 q 867 575 835 626 l 871 667 l 1008 667 l 1008 258 q 1028 190 1008 215 q 1082 164 1049 164 q 1143 194 1117 164 q 1185 278 1169 225 q 1200 401 1200 332 q 1165 587 1200 503 q 1067 733 1131 671 q 915 828 1003 794 q 721 861 826 861 q 554 836 632 861 q 413 766 476 811 q 304 658 350 721 q 233 517 258 594 q 208 353 208 440 q 233 193 208 268 q 302 56 257 118 q 408 -51 347 -6 q 544 -120 469 -96 q 703 -144 619 -144 q 862 -124 783 -144 q 1006 -68 940 -104 l 1061 -182 q 701 -272 906 -272 q 497 -242 593 -272 q 321 -154 400 -211 q 184 -20 242 -97 q 95 152 126 57 q 64 353 64 247 q 96 558 64 463 q 187 733 128 654 q 327 869 246 813 q 508 958 408 926 q 719 989 607 989 q 922 961 828 989 q 1094 881 1017 933 q 1226 756 1171 829 q 1310 594 1281 683 q 1340 403 1340 506 q 1307 212 1340 293 q 1213 85 1274 131 q 1072 40 1153 40 q 952 74 1001 40 q 882 167 903 107 q 797 72 851 106 q 671 39 742 39 m 697 176 q 781 201 744 176 q 840 267 818 225 q 861 363 861 308 q 840 458 861 417 q 781 524 818 500 q 697 549 744 549 q 613 524 650 549 q 554 458 575 500 q 533 363 533 415 q 554 267 533 308 q 613 201 575 225 q 697 176 650 176 z "},"·":{"ha":353,"x_min":71,"x_max":282,"o":"m 176 276 q 124 290 147 276 q 85 328 100 304 q 71 382 71 353 q 85 435 71 411 q 124 474 100 460 q 176 488 147 488 q 229 474 206 488 q 267 435 253 460 q 282 382 282 411 q 267 328 282 353 q 229 290 253 304 q 176 276 206 276 z "},"A":{"ha":1021,"x_min":26,"x_max":994,"o":"m 26 0 l 419 986 l 600 986 l 994 0 l 819 0 l 726 244 l 288 244 l 194 0 l 26 0 m 343 389 l 671 389 l 507 815 l 343 389 z "},"B":{"ha":851,"x_min":97,"x_max":796,"o":"m 97 0 l 97 986 l 439 986 q 606 955 536 986 q 715 867 676 924 q 754 732 754 810 q 722 607 754 661 q 628 522 689 553 q 751 430 707 494 q 796 279 796 365 q 753 132 796 194 q 631 35 710 69 q 446 0 553 0 l 97 0 m 261 842 l 261 581 l 424 581 q 543 614 501 581 q 585 711 585 647 q 542 807 585 772 q 424 842 500 842 l 261 842 m 261 144 l 439 144 q 576 184 528 144 q 625 293 625 224 q 576 404 625 365 q 439 443 528 443 l 261 443 l 261 144 z "},"C":{"ha":1018,"x_min":64,"x_max":968,"o":"m 546 -28 q 353 10 442 -28 q 201 118 265 49 q 100 281 136 188 q 64 486 64 375 q 88 655 64 575 q 155 801 111 735 q 258 915 199 867 q 391 988 318 963 q 546 1014 464 1014 q 724 980 642 1014 q 867 884 807 946 q 958 738 928 822 l 796 692 q 694 815 760 771 q 544 858 628 858 q 424 831 479 858 q 326 753 368 803 q 262 635 285 703 q 239 488 239 567 q 262 342 239 408 q 326 228 285 276 q 423 154 367 181 q 547 128 479 128 q 699 171 633 128 q 806 294 765 214 l 968 249 q 875 101 936 164 q 729 6 814 39 q 546 -28 644 -28 z "},"D":{"ha":1043,"x_min":97,"x_max":979,"o":"m 97 0 l 97 986 l 457 986 q 670 951 574 986 q 835 851 767 915 q 942 696 904 786 q 979 494 979 606 q 942 292 979 383 q 835 136 904 201 q 669 35 765 71 q 457 0 574 0 l 97 0 m 267 151 l 449 151 q 638 193 558 151 q 760 312 717 235 q 804 493 804 389 q 760 674 804 597 q 637 793 717 751 q 449 835 557 835 l 267 835 l 267 151 z "},"E":{"ha":789,"x_min":97,"x_max":708,"o":"m 97 0 l 97 986 l 694 986 l 694 840 l 264 840 l 264 582 l 653 582 l 653 436 l 264 436 l 264 146 l 708 146 l 708 0 l 97 0 z "},"F":{"ha":746,"x_min":97,"x_max":682,"o":"m 97 0 l 97 986 l 682 986 l 682 838 l 264 838 l 264 554 l 639 554 l 639 406 l 264 406 l 264 0 l 97 0 z "},"G":{"ha":1092,"x_min":64,"x_max":1031,"o":"m 561 -28 q 399 -3 475 -28 q 263 69 324 22 q 157 179 201 115 q 88 322 113 243 q 64 490 64 400 q 88 660 64 581 q 158 804 113 739 q 265 916 203 869 q 402 988 326 963 q 564 1014 478 1014 q 738 983 657 1014 q 882 896 819 953 q 981 761 944 839 l 819 707 q 713 819 779 779 q 564 858 647 858 q 435 831 494 858 q 332 753 376 803 q 263 638 288 704 q 239 493 239 571 q 263 347 239 414 q 332 231 288 279 q 437 155 376 182 q 568 128 497 128 q 713 160 650 128 q 814 251 776 193 q 857 388 851 310 l 588 388 l 588 529 l 1031 529 l 1031 436 q 997 249 1031 333 q 899 102 963 164 q 751 6 836 40 q 561 -28 665 -28 z "},"H":{"ha":1015,"x_min":97,"x_max":918,"o":"m 97 0 l 97 986 l 267 986 l 267 586 l 749 586 l 749 986 l 918 986 l 918 0 l 749 0 l 749 435 l 267 435 l 267 0 l 97 0 z "},"I":{"ha":364,"x_min":97,"x_max":267,"o":"m 97 0 l 97 986 l 267 986 l 267 0 l 97 0 z "},"J":{"ha":753,"x_min":22,"x_max":667,"o":"m 346 -21 q 202 9 267 -21 q 92 94 138 39 q 22 231 46 150 l 186 265 q 347 132 235 132 q 427 155 393 132 q 479 219 461 178 q 497 317 497 261 l 497 986 l 667 986 l 667 321 q 644 181 667 244 q 578 73 621 118 q 477 3 536 28 q 346 -21 418 -21 z "},"K":{"ha":939,"x_min":97,"x_max":924,"o":"m 97 0 l 97 986 l 267 986 l 267 546 l 671 986 l 874 986 l 443 524 l 924 0 l 699 0 l 267 482 l 267 0 l 97 0 z "},"L":{"ha":744,"x_min":97,"x_max":685,"o":"m 97 0 l 97 986 l 267 986 l 267 151 l 685 151 l 685 0 l 97 0 z "},"M":{"ha":1172,"x_min":97,"x_max":1075,"o":"m 97 0 l 97 986 l 261 986 l 589 382 l 918 986 l 1075 986 l 1075 0 l 907 0 l 907 681 l 649 206 l 524 206 l 265 681 l 265 0 l 97 0 z "},"N":{"ha":1001,"x_min":97,"x_max":904,"o":"m 97 0 l 97 986 l 247 986 l 739 281 l 739 986 l 904 986 l 904 0 l 754 0 l 263 708 l 263 0 l 97 0 z "},"O":{"ha":1125,"x_min":64,"x_max":1061,"o":"m 563 -28 q 401 -3 476 -28 q 263 69 325 22 q 157 179 201 115 q 88 322 113 243 q 64 492 64 401 q 88 661 64 582 q 157 805 113 740 q 264 917 201 869 q 402 989 326 964 q 564 1014 478 1014 q 726 989 650 1014 q 863 917 801 964 q 969 807 925 871 q 1038 664 1014 743 q 1061 494 1061 585 q 1037 325 1061 404 q 968 181 1013 246 q 862 69 924 117 q 724 -3 800 22 q 563 -28 649 -28 m 563 128 q 692 155 633 128 q 794 231 751 182 q 862 347 838 279 q 886 493 886 414 q 862 640 886 572 q 794 756 838 707 q 692 831 751 804 q 563 858 633 858 q 433 831 492 858 q 331 756 374 804 q 263 640 288 707 q 239 493 239 572 q 263 347 239 414 q 331 231 288 279 q 433 155 374 182 q 563 128 492 128 z "},"P":{"ha":815,"x_min":97,"x_max":772,"o":"m 97 0 l 97 986 l 396 986 q 598 947 514 986 q 727 836 682 908 q 772 661 772 764 q 725 491 772 564 q 592 378 678 418 q 389 339 506 339 q 330 342 361 339 q 264 349 299 344 l 264 0 l 97 0 m 264 839 l 264 496 q 325 489 294 492 q 382 486 356 486 q 544 532 488 486 q 600 663 600 578 q 546 792 600 746 q 393 839 492 839 l 264 839 z "},"Q":{"ha":1125,"x_min":64,"x_max":1061,"o":"m 563 -28 q 401 -3 476 -28 q 263 69 325 22 q 157 179 201 115 q 88 322 113 243 q 64 492 64 401 q 88 661 64 582 q 157 805 113 740 q 264 917 201 869 q 402 989 326 964 q 564 1014 478 1014 q 726 989 650 1014 q 863 917 801 964 q 969 807 925 871 q 1038 664 1014 743 q 1061 494 1061 585 q 1022 285 1061 382 q 915 118 983 189 l 1033 -28 l 919 -119 l 799 31 q 687 -12 746 3 q 563 -28 628 -28 m 563 128 q 697 156 636 128 l 529 365 l 642 456 l 810 246 q 866 356 846 293 q 886 493 886 419 q 862 640 886 572 q 794 756 838 707 q 692 831 751 804 q 563 858 633 858 q 433 831 492 858 q 331 756 374 804 q 263 640 288 707 q 239 493 239 572 q 263 347 239 414 q 331 231 288 279 q 433 155 374 182 q 563 128 492 128 z "},"R":{"ha":858,"x_min":97,"x_max":826,"o":"m 97 0 l 97 986 l 394 986 q 598 949 513 986 q 729 842 683 911 q 775 676 775 772 q 753 565 775 617 q 692 471 732 513 q 597 403 653 429 l 826 0 l 639 0 l 449 358 q 415 356 433 357 q 376 356 396 356 q 264 365 328 356 l 264 0 l 97 0 m 264 839 l 264 513 q 324 505 293 507 q 386 503 356 503 q 546 547 489 503 q 603 671 603 592 q 547 794 603 750 q 392 839 492 839 l 264 839 z "},"S":{"ha":783,"x_min":40,"x_max":735,"o":"m 388 -21 q 233 9 304 -21 q 111 93 161 39 q 40 222 61 147 l 200 261 q 271 163 222 197 q 389 128 319 128 q 478 147 439 128 q 540 200 517 167 q 563 276 563 233 q 524 365 563 329 q 404 418 486 400 l 353 429 q 135 535 206 461 q 65 714 65 608 q 90 831 65 778 q 160 924 115 885 q 264 985 204 964 q 393 1007 324 1007 q 539 978 472 1007 q 653 895 606 949 q 719 768 700 842 l 561 729 q 494 825 539 792 q 389 858 450 858 q 310 841 344 858 q 256 794 276 824 q 236 726 236 764 q 276 640 236 672 q 400 589 317 608 l 451 578 q 735 290 735 514 q 709 165 735 222 q 636 66 683 107 q 526 2 589 25 q 388 -21 463 -21 z "},"T":{"ha":867,"x_min":61,"x_max":806,"o":"m 349 0 l 349 835 l 61 835 l 61 986 l 806 986 l 806 835 l 518 835 l 518 0 l 349 0 z "},"U":{"ha":994,"x_min":86,"x_max":908,"o":"m 494 -28 q 325 1 400 -28 q 197 86 250 31 q 115 219 143 142 q 86 392 86 296 l 86 986 l 256 986 l 256 399 q 285 255 256 315 q 369 161 315 194 q 497 128 424 128 q 625 161 571 128 q 709 255 679 194 q 739 399 739 315 l 739 986 l 908 986 l 908 392 q 879 219 908 296 q 795 87 850 142 q 665 2 740 32 q 494 -28 589 -28 z "},"V":{"ha":989,"x_min":26,"x_max":963,"o":"m 404 0 l 26 986 l 211 986 l 499 192 l 785 986 l 963 986 l 585 0 l 404 0 z "},"W":{"ha":1429,"x_min":43,"x_max":1386,"o":"m 1386 986 l 1094 0 l 922 0 l 715 750 l 508 0 l 335 0 l 43 986 l 224 986 l 426 225 l 635 986 l 799 986 l 1008 225 l 1210 986 l 1386 986 z "},"X":{"ha":929,"x_min":15,"x_max":914,"o":"m 15 0 l 369 521 l 54 986 l 247 986 l 467 640 l 685 986 l 872 986 l 560 521 l 914 0 l 713 0 l 461 390 l 210 0 l 15 0 z "},"Y":{"ha":900,"x_min":19,"x_max":881,"o":"m 365 0 l 365 389 l 19 986 l 211 986 l 453 544 l 693 986 l 881 986 l 535 389 l 535 0 l 365 0 z "},"Z":{"ha":875,"x_min":57,"x_max":821,"o":"m 57 0 l 57 122 l 581 842 l 78 842 l 78 986 l 790 986 l 790 864 l 267 144 l 821 144 l 821 0 l 57 0 z "},"a":{"ha":769,"x_min":51,"x_max":683,"o":"m 308 -21 q 206 -4 253 -21 q 125 43 160 13 q 71 115 90 74 q 51 207 51 157 q 88 328 51 276 q 192 410 125 381 q 347 439 258 439 q 440 430 396 439 q 525 404 485 421 l 525 450 q 507 535 525 499 q 456 593 489 572 q 375 614 422 614 q 285 588 325 614 q 225 514 244 561 l 78 547 q 138 653 94 608 q 244 722 182 697 q 378 747 306 747 q 502 725 446 747 q 599 663 558 703 q 661 567 639 622 q 683 443 683 511 l 683 0 l 538 0 l 532 96 q 444 11 503 43 q 308 -21 386 -21 m 213 214 q 229 159 213 183 q 276 121 246 135 q 346 107 306 107 q 438 129 397 107 q 501 190 478 151 q 525 276 525 228 l 525 293 q 451 317 489 308 q 372 326 413 326 q 256 296 300 326 q 213 214 213 265 z "},"b":{"ha":878,"x_min":86,"x_max":824,"o":"m 86 0 l 86 1033 l 246 1033 l 246 621 q 347 714 285 681 q 485 747 410 747 q 619 718 557 747 q 726 638 681 689 q 798 517 772 586 q 824 367 824 447 q 797 214 824 285 q 724 90 771 143 q 613 8 676 38 q 476 -21 550 -21 q 338 13 400 -21 q 239 107 276 46 l 232 0 l 86 0 m 451 124 q 558 155 511 124 q 633 240 606 186 q 660 364 660 294 q 633 487 660 433 q 558 572 606 540 q 451 603 511 603 q 344 572 392 603 q 270 487 297 540 q 243 364 243 433 q 270 240 243 294 q 344 155 297 186 q 451 124 392 124 z "},"c":{"ha":779,"x_min":54,"x_max":733,"o":"m 414 -21 q 271 8 336 -21 q 157 87 206 36 q 81 207 108 138 q 54 358 54 276 q 82 511 54 440 q 158 635 110 582 q 273 717 207 688 q 417 747 339 747 q 554 720 492 747 q 662 644 617 693 q 726 528 707 594 l 575 492 q 509 574 551 544 q 414 603 467 603 q 314 571 358 603 q 244 484 269 539 q 218 360 218 429 q 243 238 218 292 q 312 154 268 185 q 414 124 356 124 q 515 152 469 124 q 583 233 561 181 l 733 199 q 667 83 714 132 q 554 6 619 33 q 414 -21 489 -21 z "},"d":{"ha":878,"x_min":54,"x_max":792,"o":"m 393 -21 q 259 8 321 -21 q 151 89 197 38 q 80 210 106 140 q 54 360 54 279 q 81 513 54 442 q 154 636 107 583 q 265 718 201 689 q 401 747 328 747 q 533 717 474 747 q 632 631 593 686 l 632 1033 l 792 1033 l 792 0 l 646 0 l 639 117 q 536 16 600 53 q 393 -21 472 -21 m 426 124 q 533 155 486 124 q 608 240 581 186 q 635 363 635 294 q 608 486 635 432 q 533 572 581 540 q 426 603 486 603 q 319 572 367 603 q 245 486 272 540 q 218 363 218 432 q 245 240 218 294 q 319 155 272 186 q 426 124 367 124 z "},"e":{"ha":807,"x_min":54,"x_max":757,"o":"m 424 -21 q 276 8 343 -21 q 158 88 208 36 q 81 209 108 139 q 54 364 54 279 q 81 515 54 446 q 156 637 108 585 q 269 718 204 689 q 411 747 335 747 q 551 720 488 747 q 660 643 614 693 q 732 524 707 593 q 757 372 757 456 l 757 325 l 219 325 q 253 215 226 261 q 324 143 281 168 q 424 118 367 118 q 601 219 538 118 l 742 165 q 669 66 717 108 q 558 1 621 24 q 424 -21 494 -21 m 411 618 q 324 596 363 618 q 260 533 286 574 q 224 439 233 493 l 590 439 q 558 533 582 493 q 497 596 535 574 q 411 618 458 618 z "},"f":{"ha":551,"x_min":24,"x_max":551,"o":"m 151 0 l 151 597 l 24 597 l 24 726 l 151 726 l 151 778 q 185 919 151 858 q 276 1013 218 979 q 410 1047 335 1047 q 488 1037 453 1047 q 551 1011 524 1026 l 515 889 q 474 905 497 899 q 429 911 451 911 q 340 874 369 911 q 311 769 311 838 l 311 726 l 519 726 l 519 597 l 311 597 l 311 0 l 151 0 z "},"g":{"ha":871,"x_min":54,"x_max":785,"o":"m 389 14 q 257 42 318 14 q 150 119 196 69 q 79 234 104 168 q 54 378 54 300 q 80 523 54 456 q 153 640 106 590 q 263 719 200 690 q 397 747 325 747 q 534 715 472 747 q 633 624 596 682 l 639 726 l 785 726 l 785 76 q 758 -76 785 -7 q 683 -194 732 -144 q 567 -269 635 -243 q 417 -296 500 -296 q 222 -246 306 -296 q 92 -107 139 -196 l 243 -54 q 319 -130 274 -104 q 422 -156 365 -156 q 529 -128 483 -156 q 600 -52 575 -101 q 625 64 625 -3 l 625 133 q 525 46 586 78 q 389 14 464 14 m 422 158 q 527 188 481 158 q 601 267 574 217 q 628 381 628 317 q 601 494 628 444 q 527 574 574 544 q 422 603 481 603 q 318 574 364 603 q 245 494 272 544 q 218 381 218 444 q 245 267 218 317 q 318 188 272 217 q 422 158 364 158 z "},"h":{"ha":815,"x_min":86,"x_max":729,"o":"m 86 0 l 86 1033 l 246 1033 l 246 639 q 335 718 279 689 q 460 747 390 747 q 602 708 542 747 q 696 599 663 669 q 729 432 729 528 l 729 0 l 569 0 l 569 414 q 530 553 569 503 q 419 603 490 603 q 330 579 369 603 q 268 515 290 556 q 246 422 246 475 l 246 0 l 86 0 z "},"i":{"ha":332,"x_min":68,"x_max":263,"o":"m 263 929 q 249 881 263 903 q 214 845 236 858 q 165 832 192 832 q 117 845 139 832 q 81 881 94 858 q 68 929 68 903 q 81 978 68 956 q 117 1013 94 1000 q 165 1026 139 1026 q 214 1013 192 1026 q 249 978 236 1000 q 263 929 263 956 m 86 0 l 86 726 l 246 726 l 246 0 l 86 0 z "},"j":{"ha":339,"x_min":-103,"x_max":269,"o":"m 269 929 q 256 881 269 903 q 222 845 243 858 q 172 832 200 832 q 123 845 144 832 q 88 881 101 858 q 75 929 75 903 q 88 978 75 956 q 123 1013 101 1000 q 172 1026 144 1026 q 222 1013 200 1026 q 256 978 243 1000 q 269 929 269 956 m 25 -289 q -43 -280 -11 -289 q -103 -254 -75 -271 l -65 -131 q 1 -149 -33 -149 q 69 -119 44 -149 q 93 -37 93 -90 l 93 726 l 253 726 l 253 -47 q 224 -174 253 -119 q 144 -258 196 -228 q 25 -289 93 -289 z "},"k":{"ha":779,"x_min":86,"x_max":771,"o":"m 86 0 l 86 1033 l 246 1033 l 246 426 l 543 726 l 738 726 l 411 404 l 771 0 l 561 0 l 246 367 l 246 0 l 86 0 z "},"l":{"ha":332,"x_min":86,"x_max":246,"o":"m 86 0 l 86 1033 l 246 1033 l 246 0 l 86 0 z "},"m":{"ha":1271,"x_min":86,"x_max":1185,"o":"m 86 0 l 86 726 l 232 726 l 238 629 q 325 715 269 683 q 451 747 381 747 q 586 709 528 747 q 676 604 644 671 q 733 679 697 647 q 816 729 768 711 q 919 747 864 747 q 1060 709 1000 747 q 1152 601 1119 671 q 1185 433 1185 531 l 1185 0 l 1025 0 l 1025 415 q 986 554 1025 506 q 879 603 947 603 q 795 580 832 603 q 737 516 758 557 q 715 424 715 475 l 715 0 l 556 0 l 556 415 q 517 554 556 506 q 410 603 478 603 q 326 580 363 603 q 267 516 289 557 q 246 424 246 475 l 246 0 l 86 0 z "},"n":{"ha":815,"x_min":86,"x_max":729,"o":"m 86 0 l 86 726 l 232 726 l 238 626 q 327 715 269 682 q 460 747 385 747 q 602 708 542 747 q 696 599 663 669 q 729 432 729 528 l 729 0 l 569 0 l 569 414 q 530 553 569 503 q 419 603 490 603 q 330 579 369 603 q 268 515 290 556 q 246 422 246 475 l 246 0 l 86 0 z "},"o":{"ha":853,"x_min":54,"x_max":799,"o":"m 424 -21 q 277 8 344 -21 q 160 88 210 36 q 82 210 110 140 q 54 364 54 281 q 82 516 54 446 q 160 638 110 586 q 280 719 211 690 q 429 747 349 747 q 576 719 508 747 q 693 638 643 690 q 771 517 743 586 q 799 364 799 447 q 771 210 799 281 q 692 88 743 140 q 573 8 642 36 q 424 -21 504 -21 m 426 124 q 533 155 486 124 q 608 240 581 186 q 635 364 635 294 q 608 487 635 433 q 533 572 581 540 q 426 603 486 603 q 319 572 367 603 q 245 487 272 540 q 218 364 218 433 q 245 240 218 294 q 319 155 272 186 q 426 124 367 124 z "},"p":{"ha":878,"x_min":86,"x_max":824,"o":"m 86 -275 l 86 726 l 232 726 l 239 610 q 342 710 278 674 q 485 747 406 747 q 619 718 557 747 q 726 638 681 689 q 798 517 772 586 q 824 367 824 447 q 797 214 824 285 q 724 90 771 143 q 613 8 676 38 q 476 -21 550 -21 q 344 10 404 -21 q 246 96 285 40 l 246 -275 l 86 -275 m 451 124 q 558 155 511 124 q 633 240 606 186 q 660 364 660 294 q 633 487 660 433 q 558 572 606 540 q 451 603 511 603 q 344 572 392 603 q 270 487 297 540 q 243 364 243 433 q 270 240 243 294 q 344 155 297 186 q 451 124 392 124 z "},"q":{"ha":878,"x_min":54,"x_max":792,"o":"m 393 -21 q 259 8 321 -21 q 151 89 197 38 q 80 210 106 140 q 54 360 54 279 q 81 513 54 442 q 154 636 107 583 q 265 718 201 689 q 401 747 328 747 q 540 714 478 747 q 639 619 601 681 l 646 726 l 792 726 l 792 -275 l 632 -275 l 632 106 q 531 13 593 46 q 393 -21 468 -21 m 426 124 q 533 155 486 124 q 608 240 581 186 q 635 363 635 294 q 608 486 635 432 q 533 572 581 540 q 426 603 486 603 q 319 572 367 603 q 245 486 272 540 q 218 363 218 432 q 245 240 218 294 q 319 155 272 186 q 426 124 367 124 z "},"r":{"ha":539,"x_min":86,"x_max":507,"o":"m 86 0 l 86 726 l 232 726 l 239 607 q 316 702 267 668 q 432 736 365 736 q 472 733 453 736 q 507 724 492 731 l 489 568 q 457 576 474 574 q 424 578 440 578 q 293 522 340 578 q 246 368 246 467 l 246 0 l 86 0 z "},"s":{"ha":665,"x_min":40,"x_max":619,"o":"m 335 -21 q 203 3 264 -21 q 101 70 143 26 q 40 174 58 114 l 185 211 q 243 138 203 164 q 336 111 283 111 q 425 137 390 111 q 460 203 460 163 q 432 261 460 238 q 342 296 404 285 l 296 304 q 120 379 179 325 q 61 518 61 433 q 96 638 61 586 q 192 718 131 689 q 332 747 253 747 q 457 724 400 747 q 553 657 514 700 q 608 556 592 614 l 465 521 q 413 591 449 565 q 331 617 378 617 q 250 592 282 617 q 218 531 218 568 q 247 478 218 499 q 343 444 275 457 l 389 436 q 560 360 500 417 q 619 218 619 303 q 599 123 619 167 q 540 47 578 79 q 449 -3 501 14 q 335 -21 397 -21 z "},"t":{"ha":592,"x_min":24,"x_max":551,"o":"m 386 -21 q 214 42 276 -21 q 151 224 151 106 l 151 597 l 24 597 l 24 726 l 151 726 l 151 972 l 311 972 l 311 726 l 522 726 l 522 597 l 311 597 l 311 240 q 335 151 311 182 q 407 119 360 119 q 461 127 432 119 q 515 149 490 135 l 551 28 q 477 -8 519 6 q 386 -21 435 -21 z "},"u":{"ha":814,"x_min":86,"x_max":728,"o":"m 406 -21 q 237 21 308 -21 q 126 140 165 63 q 86 321 86 217 l 86 726 l 246 726 l 246 318 q 289 176 246 228 q 407 124 332 124 q 525 176 482 124 q 568 318 568 228 l 568 726 l 728 726 l 728 321 q 688 141 728 218 q 576 22 649 64 q 406 -21 504 -21 z "},"v":{"ha":757,"x_min":19,"x_max":738,"o":"m 297 0 l 19 726 l 194 726 l 381 167 l 568 726 l 738 726 l 460 0 l 297 0 z "},"w":{"ha":1144,"x_min":19,"x_max":1125,"o":"m 261 0 l 19 726 l 186 726 l 340 196 l 503 726 l 646 726 l 807 196 l 964 726 l 1125 726 l 882 0 l 732 0 l 572 528 l 411 0 l 261 0 z "},"x":{"ha":769,"x_min":19,"x_max":750,"o":"m 19 0 l 296 383 l 50 726 l 231 726 l 386 483 l 546 726 l 719 726 l 474 383 l 750 0 l 563 0 l 383 278 l 201 0 l 19 0 z "},"y":{"ha":757,"x_min":19,"x_max":738,"o":"m 183 -289 q 119 -282 149 -289 q 61 -260 89 -275 l 96 -133 q 131 -145 111 -140 q 168 -150 150 -150 q 241 -126 210 -150 q 293 -50 272 -103 l 315 7 l 19 726 l 194 726 l 390 183 l 568 726 l 738 726 l 429 -87 q 328 -240 389 -192 q 183 -289 268 -289 z "},"z":{"ha":713,"x_min":57,"x_max":656,"o":"m 57 0 l 57 106 l 435 597 l 67 597 l 67 726 l 632 726 l 632 621 l 254 129 l 656 129 l 656 0 l 57 0 z "},"™":{"ha":1097,"x_min":38,"x_max":1014,"o":"m 175 499 l 175 883 l 38 883 l 38 986 l 429 986 l 429 883 l 292 883 l 292 499 l 175 499 m 511 499 l 511 986 l 628 986 l 764 715 l 900 986 l 1014 986 l 1014 499 l 901 499 l 901 806 l 800 600 l 725 600 l 624 806 l 624 499 l 511 499 z "},"ª":{"ha":554,"x_min":40,"x_max":496,"o":"m 221 433 q 128 453 169 433 q 64 510 88 474 q 40 593 40 546 q 67 679 40 642 q 140 737 93 717 q 250 757 186 757 q 365 733 314 757 l 365 764 q 339 837 365 808 q 272 865 313 865 q 214 849 239 865 q 179 807 189 833 l 58 831 q 102 904 71 872 q 178 954 133 936 q 275 972 222 972 q 391 945 342 972 q 468 870 440 918 q 496 757 496 822 l 496 446 l 375 446 l 371 508 q 311 453 350 474 q 221 433 272 433 m 172 599 q 196 550 172 568 q 254 532 219 532 q 311 547 286 532 q 351 586 336 561 q 365 642 365 611 l 365 650 q 320 664 344 658 q 272 669 296 669 q 200 651 228 669 q 172 599 172 633 z "},"º":{"ha":611,"x_min":38,"x_max":574,"o":"m 306 433 q 199 453 249 433 q 114 510 150 474 q 58 597 78 547 q 38 703 38 646 q 58 809 38 760 q 114 895 78 858 q 199 952 150 932 q 306 972 247 972 q 412 952 363 972 q 497 895 461 932 q 553 809 533 858 q 574 703 574 760 q 553 597 574 646 q 497 510 533 547 q 413 453 461 474 q 306 433 364 433 m 306 556 q 374 575 344 556 q 419 628 403 594 q 436 703 436 661 q 419 778 436 744 q 374 831 403 811 q 306 850 344 850 q 238 831 267 850 q 192 778 208 811 q 175 703 175 744 q 192 628 175 661 q 238 575 208 594 q 306 556 267 556 z "},"°":{"ha":517,"x_min":33,"x_max":483,"o":"m 483 822 q 466 736 483 776 q 417 665 449 696 q 345 617 386 635 q 257 600 304 600 q 170 617 211 600 q 99 664 129 633 q 51 735 68 694 q 33 822 33 775 q 51 908 33 868 q 99 979 68 949 q 172 1027 131 1010 q 260 1044 213 1044 q 347 1028 306 1044 q 418 981 388 1011 q 466 910 449 950 q 483 822 483 869 m 363 822 q 349 878 363 853 q 310 919 335 904 q 258 935 286 935 q 206 919 231 935 q 168 878 182 904 q 154 822 154 853 q 168 766 154 792 q 206 725 182 740 q 258 710 231 710 q 310 725 286 710 q 349 766 335 740 q 363 822 363 792 z "},"©":{"ha":1186,"x_min":71,"x_max":1115,"o":"m 593 -29 q 425 -3 504 -29 q 281 69 346 22 q 169 181 217 117 q 97 325 122 246 q 71 493 71 404 q 97 660 71 582 q 169 804 122 739 q 281 916 217 869 q 425 988 346 963 q 593 1014 504 1014 q 761 988 682 1014 q 905 916 840 963 q 1017 804 969 869 q 1090 660 1064 739 q 1115 493 1115 582 q 1090 325 1115 404 q 1017 181 1064 246 q 905 69 969 117 q 761 -3 840 22 q 593 -29 682 -29 m 593 74 q 724 94 661 74 q 838 154 786 115 q 927 245 889 193 q 986 360 965 297 q 1007 493 1007 424 q 986 625 1007 563 q 927 740 965 688 q 838 831 889 793 q 724 890 786 869 q 593 911 661 911 q 463 890 525 911 q 349 831 400 869 q 259 740 297 793 q 200 625 221 688 q 179 493 179 563 q 200 360 179 424 q 259 245 221 297 q 349 154 297 193 q 463 94 400 115 q 593 74 525 74 m 599 213 q 492 233 542 213 q 407 292 443 254 q 351 382 371 331 q 331 494 331 433 q 351 608 331 556 q 409 701 372 661 q 495 763 446 740 q 601 785 544 785 q 706 764 658 785 q 786 703 753 743 q 835 611 819 664 l 714 582 q 667 643 697 621 q 601 665 638 665 q 532 643 563 665 q 483 583 501 621 q 465 497 465 544 q 483 411 465 449 q 531 353 500 374 q 601 332 561 332 q 672 353 640 332 q 719 414 704 375 l 840 385 q 790 295 825 333 q 705 235 754 257 q 599 213 656 213 z "},"®":{"ha":744,"x_min":56,"x_max":689,"o":"m 372 375 q 247 399 304 375 q 146 465 189 422 q 79 564 103 507 q 56 688 56 621 q 79 811 56 754 q 146 910 103 868 q 247 976 189 953 q 372 1000 304 1000 q 498 976 440 1000 q 599 910 556 953 q 665 811 642 868 q 689 688 689 754 q 665 564 689 621 q 599 465 642 507 q 498 399 556 422 q 372 375 440 375 m 372 447 q 466 465 422 447 q 543 517 510 483 q 594 594 576 550 q 613 688 613 638 q 594 781 613 738 q 543 858 576 825 q 466 910 510 892 q 372 928 422 928 q 278 910 322 928 q 201 858 235 892 q 150 781 168 825 q 132 688 132 738 q 150 594 132 638 q 201 517 168 550 q 278 465 235 483 q 372 447 322 447 m 256 526 l 256 854 l 371 854 q 471 826 435 854 q 507 746 507 797 q 492 692 507 717 q 454 654 478 668 l 524 526 l 436 526 l 385 632 q 367 631 375 631 q 335 633 354 631 l 335 526 l 256 526 m 335 786 l 335 700 q 368 697 350 697 q 410 710 394 697 q 425 743 425 722 q 410 774 425 763 q 368 786 394 786 l 335 786 z "},"‘":{"ha":333,"x_min":51,"x_max":271,"o":"m 179 600 q 115 622 144 600 q 69 682 86 644 q 51 765 51 719 q 74 867 51 819 q 139 949 97 914 q 238 1003 181 983 l 269 917 q 185 860 217 897 q 154 782 154 824 q 157 753 154 765 q 192 764 172 764 q 231 753 214 764 q 260 724 249 743 q 271 683 271 706 q 258 642 271 661 q 225 611 246 622 q 179 600 204 600 z "},"’":{"ha":333,"x_min":63,"x_max":282,"o":"m 154 992 q 218 969 189 992 q 265 910 247 947 q 282 826 282 872 q 259 725 282 772 q 194 643 236 678 q 96 589 153 608 l 64 675 q 148 731 117 694 q 179 810 179 768 q 176 839 179 826 q 142 828 161 828 q 102 838 119 828 q 74 867 85 849 q 63 908 63 886 q 75 950 63 931 q 108 981 88 969 q 154 992 129 992 z "},"‚":{"ha":328,"x_min":69,"x_max":289,"o":"m 161 193 q 225 171 196 193 q 272 111 254 149 q 289 28 289 74 q 266 -74 289 -26 q 201 -156 243 -121 q 103 -210 160 -190 l 71 -124 q 155 -67 124 -104 q 186 11 186 -31 q 183 40 186 28 q 149 29 168 29 q 109 40 126 29 q 81 69 92 50 q 69 110 69 88 q 82 151 69 132 q 115 182 94 171 q 161 193 136 193 z "},"“":{"ha":614,"x_min":51,"x_max":551,"o":"m 179 600 q 115 622 144 600 q 69 682 86 644 q 51 765 51 719 q 74 867 51 819 q 139 949 97 914 q 238 1003 181 983 l 269 917 q 185 860 217 897 q 154 782 154 824 q 157 753 154 765 q 192 764 172 764 q 231 753 214 764 q 260 724 249 743 q 271 683 271 706 q 258 642 271 661 q 225 611 246 622 q 179 600 204 600 m 460 600 q 396 622 425 600 q 349 682 367 644 q 332 765 332 719 q 355 867 332 819 q 419 949 378 914 q 518 1003 461 983 l 550 917 q 466 860 497 897 q 435 782 435 824 q 438 753 435 765 q 472 764 453 764 q 512 753 494 764 q 540 724 529 743 q 551 683 551 706 q 539 642 551 661 q 506 611 526 622 q 460 600 485 600 z "},"”":{"ha":614,"x_min":63,"x_max":563,"o":"m 154 992 q 218 969 189 992 q 265 910 247 947 q 282 826 282 872 q 259 725 282 772 q 194 643 236 678 q 96 589 153 608 l 64 675 q 148 731 117 694 q 179 810 179 768 q 176 839 179 826 q 142 828 161 828 q 102 838 119 828 q 74 867 85 849 q 63 908 63 886 q 75 950 63 931 q 108 981 88 969 q 154 992 129 992 m 435 992 q 499 969 469 992 q 545 910 528 947 q 563 826 563 872 q 540 725 563 772 q 475 643 517 678 q 376 589 433 608 l 344 675 q 428 731 397 694 q 460 810 460 768 q 457 839 460 826 q 422 828 442 828 q 383 838 400 828 q 354 867 365 849 q 343 908 343 886 q 356 950 343 931 q 389 981 368 969 q 435 992 410 992 z "},"„":{"ha":610,"x_min":69,"x_max":571,"o":"m 161 193 q 225 171 196 193 q 272 111 254 149 q 289 28 289 74 q 266 -74 289 -26 q 201 -156 243 -121 q 103 -210 160 -190 l 71 -124 q 155 -67 124 -104 q 186 11 186 -31 q 183 40 186 28 q 149 29 168 29 q 109 40 126 29 q 81 69 92 50 q 69 110 69 88 q 82 151 69 132 q 115 182 94 171 q 161 193 136 193 m 443 193 q 507 171 478 193 q 553 111 536 149 q 571 28 571 74 q 548 -74 571 -26 q 483 -156 525 -121 q 385 -210 442 -190 l 353 -124 q 437 -67 406 -104 q 468 11 468 -31 q 465 40 468 28 q 431 29 450 29 q 391 40 408 29 q 363 69 374 50 q 351 110 351 88 q 364 151 351 132 q 397 182 376 171 q 443 193 418 193 z "},"ı":{"ha":332,"x_min":86,"x_max":246,"o":"m 86 0 l 86 726 l 246 726 l 246 0 l 86 0 z "},"ȷ":{"ha":339,"x_min":-103,"x_max":253,"o":"m 25 -289 q -43 -280 -11 -289 q -103 -254 -75 -271 l -65 -131 q 1 -149 -33 -149 q 69 -119 44 -149 q 93 -37 93 -90 l 93 726 l 253 726 l 253 -47 q 224 -174 253 -119 q 144 -258 196 -228 q 25 -289 93 -289 z "},"Ĳ":{"ha":960,"x_min":86,"x_max":874,"o":"m 86 417 l 86 986 l 256 986 l 256 417 l 86 417 m 478 -28 q 306 4 383 -28 q 173 97 228 36 q 90 244 118 158 l 253 286 q 340 168 283 208 q 471 128 397 128 q 594 160 542 128 q 676 253 647 193 q 704 397 704 314 l 704 986 l 874 986 l 874 396 q 846 222 874 300 q 765 88 818 144 q 640 2 713 32 q 478 -28 567 -28 z "},"ĳ":{"ha":815,"x_min":68,"x_max":746,"o":"m 263 929 q 249 881 263 903 q 214 845 236 858 q 165 832 192 832 q 117 845 139 832 q 81 881 94 858 q 68 929 68 903 q 81 978 68 956 q 117 1013 94 1000 q 165 1026 139 1026 q 214 1013 192 1026 q 249 978 236 1000 q 263 929 263 956 m 746 929 q 733 881 746 903 q 697 845 719 858 q 649 832 675 832 q 600 845 622 832 q 565 881 578 858 q 551 929 551 903 q 565 978 551 956 q 600 1013 578 1000 q 649 1026 622 1026 q 697 1013 675 1026 q 733 978 719 1000 q 746 929 746 956 m 356 14 q 213 53 274 14 q 119 163 153 92 q 86 329 86 233 l 86 726 l 246 726 l 246 347 q 285 208 246 258 q 396 158 325 158 q 486 182 447 158 q 547 246 525 206 q 569 339 569 286 l 569 726 l 729 726 l 729 54 q 706 -90 729 -25 q 638 -201 682 -154 q 531 -272 593 -247 q 394 -296 469 -296 q 267 -274 326 -296 q 164 -213 208 -253 q 93 -118 119 -174 l 240 -65 q 308 -132 268 -108 q 394 -156 347 -156 q 487 -131 447 -156 q 548 -63 526 -107 q 569 42 569 -19 l 569 122 q 481 43 536 72 q 356 14 425 14 z "},"Þ":{"ha":815,"x_min":97,"x_max":772,"o":"m 97 0 l 97 986 l 264 986 l 264 819 l 396 819 q 598 781 514 819 q 727 669 682 742 q 772 494 772 597 q 725 324 772 397 q 592 212 678 251 q 389 172 506 172 q 330 175 361 172 q 264 182 299 178 l 264 0 l 97 0 m 264 672 l 264 329 q 325 322 294 325 q 382 319 356 319 q 544 365 488 319 q 600 496 600 411 q 546 626 600 579 q 393 672 492 672 l 264 672 z "},"Æ":{"ha":1410,"x_min":26,"x_max":1329,"o":"m 26 0 l 654 986 l 1315 986 l 1315 840 l 899 840 l 899 582 l 1274 582 l 1274 436 l 899 436 l 899 146 l 1329 146 l 1329 0 l 732 0 l 732 244 l 365 244 l 215 0 l 26 0 m 454 389 l 732 389 l 732 839 l 454 389 z "},"Œ":{"ha":1433,"x_min":64,"x_max":1353,"o":"m 586 0 q 373 35 469 0 q 208 135 276 71 q 101 290 139 200 q 64 492 64 381 q 101 694 64 603 q 208 850 139 785 q 374 951 278 915 q 586 986 469 986 l 1339 986 l 1339 840 l 922 840 l 922 582 l 1297 582 l 1297 436 l 922 436 l 922 146 l 1353 146 l 1353 0 l 586 0 m 594 151 l 756 151 l 756 835 l 594 835 q 406 793 486 835 q 283 674 326 751 q 239 493 239 597 q 283 312 239 389 q 406 193 326 235 q 594 151 486 151 z "},"ẞ":{"ha":897,"x_min":86,"x_max":857,"o":"m 517 -21 q 426 -10 468 -21 q 344 22 383 1 l 382 160 q 444 136 408 144 q 511 128 481 128 q 600 149 561 128 q 661 209 639 171 q 683 297 683 247 q 658 387 683 349 q 589 447 633 425 q 483 469 544 469 l 468 571 l 636 790 q 563 838 606 819 q 472 856 521 856 q 359 824 408 856 q 283 735 310 793 q 256 599 256 678 l 256 0 l 86 0 l 86 594 q 113 763 86 688 q 191 894 140 839 q 312 978 242 949 q 468 1007 382 1007 q 674 958 579 1007 q 829 821 768 910 l 647 582 q 757 523 710 564 q 831 424 804 482 q 857 297 857 367 q 831 170 857 228 q 760 69 806 113 q 652 3 714 26 q 517 -21 590 -21 z "},"þ":{"ha":878,"x_min":86,"x_max":824,"o":"m 86 -275 l 86 1033 l 246 1033 l 246 621 q 347 714 285 681 q 485 747 410 747 q 619 718 557 747 q 726 638 681 689 q 798 517 772 586 q 824 367 824 447 q 797 214 824 285 q 724 90 771 143 q 613 8 676 38 q 476 -21 550 -21 q 344 10 404 -21 q 246 96 285 40 l 246 -275 l 86 -275 m 451 124 q 558 155 511 124 q 633 240 606 186 q 660 364 660 294 q 633 487 660 433 q 558 572 606 540 q 451 603 511 603 q 344 572 392 603 q 270 487 297 540 q 243 364 243 433 q 270 240 243 294 q 344 155 297 186 q 451 124 392 124 z "},"æ":{"ha":1238,"x_min":51,"x_max":1188,"o":"m 322 -21 q 215 -4 264 -21 q 128 43 165 13 q 72 115 92 74 q 51 208 51 157 q 88 328 51 276 q 188 410 124 381 q 340 439 253 439 q 430 430 388 439 q 511 404 472 421 l 511 450 q 494 535 511 499 q 444 593 476 572 q 368 614 413 614 q 281 588 319 614 q 225 514 243 561 l 78 547 q 137 653 94 608 q 240 722 179 697 q 371 747 300 747 q 505 715 446 747 q 600 626 564 683 q 710 715 646 683 q 854 747 775 747 q 987 720 926 747 q 1092 643 1047 693 q 1163 524 1138 593 q 1188 372 1188 456 l 1188 325 l 664 325 q 696 215 669 261 q 764 143 722 168 q 861 118 806 118 q 1032 219 971 118 l 1172 165 q 1100 66 1147 108 q 992 1 1053 24 q 864 -21 931 -21 q 699 19 772 -21 q 581 128 626 58 q 524 51 561 85 q 436 -2 488 17 q 322 -21 385 -21 m 849 618 q 765 596 803 618 q 703 534 728 574 q 667 439 678 494 l 1021 439 q 990 533 1014 493 q 931 596 967 574 q 849 618 894 618 m 213 214 q 248 137 213 167 q 340 107 283 107 q 427 129 389 107 q 488 190 465 151 q 511 276 511 228 l 511 294 q 440 317 476 308 q 365 326 403 326 q 254 296 296 326 q 213 214 213 265 z "},"œ":{"ha":1360,"x_min":54,"x_max":1310,"o":"m 414 -21 q 274 8 339 -21 q 159 88 208 36 q 82 210 110 140 q 54 363 54 279 q 82 515 54 444 q 159 637 110 585 q 274 718 208 689 q 417 747 340 747 q 579 708 507 747 q 697 600 651 668 q 815 708 744 669 q 974 747 886 747 q 1108 720 1047 747 q 1215 643 1169 693 q 1285 524 1260 593 q 1310 372 1310 456 l 1310 325 l 786 325 q 818 215 792 261 q 886 143 844 168 q 983 118 928 118 q 1154 219 1093 118 l 1294 165 q 1223 66 1269 108 q 1115 1 1176 24 q 985 -21 1053 -21 q 818 19 893 -21 q 696 129 743 58 q 577 19 650 60 q 414 -21 504 -21 m 971 618 q 888 596 925 618 q 825 534 850 574 q 789 439 800 494 l 1143 439 q 1113 533 1136 493 q 1053 596 1089 574 q 971 618 1017 618 m 419 124 q 523 155 478 124 q 594 240 568 186 q 621 364 621 294 q 594 487 621 433 q 523 572 568 540 q 419 603 478 603 q 316 572 361 603 q 244 487 271 540 q 218 364 218 433 q 244 240 218 294 q 316 155 271 186 q 419 124 361 124 z "},"ß":{"ha":833,"x_min":86,"x_max":779,"o":"m 460 -14 q 390 -8 425 -14 q 329 8 356 -3 l 353 144 q 395 133 371 138 q 443 128 419 128 q 531 149 492 128 q 593 209 571 171 q 615 297 615 247 q 591 390 615 350 q 524 454 567 431 q 425 478 481 478 l 381 478 l 381 613 l 411 613 q 490 632 456 613 q 545 685 525 651 q 565 760 565 718 q 544 834 565 801 q 488 886 524 867 q 410 906 453 906 q 324 883 361 906 q 267 819 288 861 q 246 721 246 778 l 246 0 l 86 0 l 86 721 q 110 854 86 794 q 176 958 133 914 q 278 1026 219 1003 q 410 1050 338 1050 q 535 1029 478 1050 q 636 971 593 1008 q 703 883 679 933 q 726 774 726 832 q 694 649 726 706 q 604 557 663 592 q 697 501 657 539 q 758 410 736 463 q 779 294 779 357 q 756 173 779 229 q 690 75 732 117 q 589 10 647 33 q 460 -14 531 -14 z "},"ĸ":{"ha":779,"x_min":86,"x_max":771,"o":"m 86 0 l 86 726 l 246 726 l 246 413 l 543 726 l 738 726 l 411 392 l 771 0 l 561 0 l 246 353 l 246 0 l 86 0 z "},"Ŋ":{"ha":1001,"x_min":97,"x_max":904,"o":"m 97 0 l 97 986 l 247 986 l 739 281 l 739 986 l 904 986 l 904 -12 q 869 -162 904 -99 q 774 -261 835 -226 q 638 -296 714 -296 q 542 -281 585 -296 q 469 -243 500 -265 l 517 -119 q 569 -142 539 -133 q 625 -150 599 -150 q 708 -114 678 -150 q 739 -12 739 -78 l 739 22 l 263 708 l 263 0 l 97 0 z "},"ŋ":{"ha":815,"x_min":86,"x_max":729,"o":"m 86 0 l 86 726 l 232 726 l 238 626 q 327 715 269 682 q 460 747 385 747 q 602 708 542 747 q 696 599 663 669 q 729 432 729 528 l 729 -54 q 701 -181 729 -126 q 621 -265 672 -235 q 503 -296 569 -296 q 434 -287 467 -296 q 375 -262 401 -278 l 411 -137 q 444 -150 425 -144 q 479 -156 463 -156 q 545 -126 521 -156 q 569 -44 569 -97 l 569 414 q 530 553 569 503 q 419 603 490 603 q 330 579 369 603 q 268 515 290 556 q 246 422 246 475 l 246 0 l 86 0 z "},"Ð":{"ha":1057,"x_min":-3,"x_max":993,"o":"m 111 0 l 111 440 l -3 440 l -3 578 l 111 578 l 111 986 l 471 986 q 684 951 588 986 q 849 851 781 915 q 956 696 918 786 q 993 494 993 606 q 956 292 993 383 q 849 136 918 201 q 683 35 779 71 q 471 0 588 0 l 111 0 m 281 151 l 463 151 q 651 193 572 151 q 774 312 731 235 q 818 493 818 389 q 774 674 818 597 q 651 793 731 751 q 463 835 571 835 l 281 835 l 281 578 l 494 578 l 494 440 l 281 440 l 281 151 z "},"Đ":{"ha":1057,"x_min":-3,"x_max":993,"o":"m 111 0 l 111 440 l -3 440 l -3 578 l 111 578 l 111 986 l 471 986 q 684 951 588 986 q 849 851 781 915 q 956 696 918 786 q 993 494 993 606 q 956 292 993 383 q 849 136 918 201 q 683 35 779 71 q 471 0 588 0 l 111 0 m 281 151 l 463 151 q 651 193 572 151 q 774 312 731 235 q 818 493 818 389 q 774 674 818 597 q 651 793 731 751 q 463 835 571 835 l 281 835 l 281 578 l 494 578 l 494 440 l 281 440 l 281 151 z "},"Ħ":{"ha":1043,"x_min":-3,"x_max":1046,"o":"m 111 0 l 111 735 l -3 735 l -3 860 l 111 860 l 111 986 l 281 986 l 281 860 l 763 860 l 763 986 l 932 986 l 932 860 l 1046 860 l 1046 735 l 932 735 l 932 0 l 763 0 l 763 425 l 281 425 l 281 0 l 111 0 m 281 576 l 763 576 l 763 735 l 281 735 l 281 576 z "},"Ŧ":{"ha":867,"x_min":61,"x_max":806,"o":"m 349 0 l 349 397 l 174 397 l 174 535 l 349 535 l 349 835 l 61 835 l 61 986 l 806 986 l 806 835 l 518 835 l 518 535 l 693 535 l 693 397 l 518 397 l 518 0 l 349 0 z "},"Ł":{"ha":758,"x_min":-3,"x_max":699,"o":"m 111 0 l 111 315 l -3 232 l -3 392 l 111 475 l 111 986 l 281 986 l 281 600 l 460 732 l 460 572 l 281 440 l 281 151 l 699 151 l 699 0 l 111 0 z "},"Ø":{"ha":1125,"x_min":64,"x_max":1061,"o":"m 242 -49 l 78 -49 l 206 122 q 101 287 139 192 q 64 493 64 382 q 88 661 64 582 q 157 805 113 740 q 263 916 201 869 q 401 988 325 963 q 563 1014 476 1014 q 698 997 633 1014 q 817 946 763 979 l 883 1035 l 1047 1035 l 919 864 q 1024 699 986 794 q 1061 493 1061 604 q 1037 325 1061 404 q 968 181 1013 246 q 863 70 924 117 q 726 -2 801 24 q 564 -28 650 -28 q 428 -10 493 -28 q 308 40 364 8 l 242 -49 m 235 492 q 253 362 235 422 q 304 256 271 301 l 724 821 q 649 851 689 840 q 564 863 608 863 q 431 835 492 863 q 327 758 371 808 q 259 640 283 708 q 235 492 235 572 m 561 124 q 694 151 633 124 q 798 228 754 178 q 866 346 842 278 q 890 494 890 414 q 872 624 890 564 q 821 731 854 685 l 401 165 q 476 135 436 146 q 561 124 517 124 z "},"ð":{"ha":865,"x_min":54,"x_max":800,"o":"m 424 -21 q 277 7 344 -21 q 160 85 210 35 q 82 204 110 136 q 54 351 54 272 q 81 498 54 431 q 154 617 107 565 q 264 697 201 668 q 397 725 326 725 q 513 701 461 725 q 603 635 565 678 q 549 738 581 686 q 476 839 517 790 l 343 775 l 297 871 l 401 921 q 300 1007 353 968 l 463 1050 q 538 988 501 1021 l 661 1047 l 707 951 l 613 906 q 713 748 671 832 q 778 576 756 664 q 800 401 800 488 q 773 228 800 306 q 696 94 746 150 q 576 9 646 39 q 424 -21 507 -21 m 428 124 q 535 153 489 124 q 609 235 582 183 q 636 354 636 288 q 609 473 636 421 q 535 554 582 525 q 428 583 489 583 q 319 554 367 583 q 245 473 272 525 q 218 354 218 421 q 245 235 218 288 q 319 153 272 183 q 428 124 367 124 z "},"đ":{"ha":878,"x_min":54,"x_max":894,"o":"m 393 -21 q 259 8 321 -21 q 151 89 197 38 q 80 210 106 140 q 54 360 54 279 q 81 513 54 442 q 154 636 107 583 q 265 718 201 689 q 401 747 328 747 q 533 717 474 747 q 632 631 593 686 l 632 821 l 429 821 l 429 933 l 632 933 l 632 1033 l 792 1033 l 792 933 l 894 933 l 894 821 l 792 821 l 792 0 l 646 0 l 639 117 q 536 16 600 53 q 393 -21 472 -21 m 426 124 q 533 155 486 124 q 608 240 581 186 q 635 363 635 294 q 608 486 635 432 q 533 572 581 540 q 426 603 486 603 q 319 572 367 603 q 245 486 272 540 q 218 363 218 432 q 245 240 218 294 q 319 155 272 186 q 426 124 367 124 z "},"ħ":{"ha":815,"x_min":-17,"x_max":729,"o":"m 86 0 l 86 821 l -17 821 l -17 933 l 86 933 l 86 1033 l 246 1033 l 246 933 l 449 933 l 449 821 l 246 821 l 246 639 q 335 718 279 689 q 460 747 390 747 q 602 708 542 747 q 696 599 663 669 q 729 432 729 528 l 729 0 l 569 0 l 569 414 q 530 553 569 503 q 419 603 490 603 q 330 579 369 603 q 268 515 290 556 q 246 422 246 475 l 246 0 l 86 0 z "},"ŧ":{"ha":592,"x_min":24,"x_max":551,"o":"m 38 324 l 38 442 l 151 442 l 151 597 l 24 597 l 24 726 l 151 726 l 151 972 l 311 972 l 311 726 l 522 726 l 522 597 l 311 597 l 311 442 l 508 442 l 508 324 l 311 324 l 311 240 q 335 151 311 182 q 407 119 360 119 q 461 127 432 119 q 515 149 490 135 l 551 28 q 477 -8 519 6 q 386 -21 435 -21 q 214 42 276 -21 q 151 224 151 106 l 151 324 l 38 324 z "},"ł":{"ha":379,"x_min":6,"x_max":374,"o":"m 110 0 l 110 382 l 6 304 l 6 450 l 110 528 l 110 1033 l 269 1033 l 269 647 l 374 725 l 374 579 l 269 501 l 269 0 l 110 0 z "},"ø":{"ha":853,"x_min":54,"x_max":799,"o":"m 210 -35 l 64 -35 l 157 94 q 82 215 110 146 q 54 364 54 283 q 82 516 54 446 q 160 638 110 586 q 280 719 211 690 q 429 747 349 747 q 520 736 476 747 q 601 704 564 725 l 643 761 l 789 761 l 696 633 q 771 513 743 582 q 799 364 799 443 q 771 210 799 281 q 692 88 743 140 q 573 8 642 36 q 424 -21 504 -21 q 333 -10 376 -21 q 251 22 289 1 l 210 -35 m 215 364 q 225 288 215 324 q 251 224 235 253 l 515 585 q 426 606 474 606 q 342 588 381 606 q 276 537 304 569 q 231 460 247 504 q 215 364 215 417 m 426 121 q 534 152 486 121 q 610 239 582 183 q 638 364 638 294 q 628 440 638 404 q 601 503 618 475 l 338 142 q 426 121 379 121 z "},"̧":{"ha":0,"x_min":-154,"x_max":135,"o":"m -44 15 l 58 15 l 35 -64 q 107 -106 79 -74 q 135 -178 135 -137 q 112 -247 135 -217 q 49 -294 89 -278 q -44 -311 8 -311 q -154 -290 -103 -311 l -135 -200 q -94 -210 -112 -207 q -60 -214 -75 -214 q -12 -201 -31 -214 q 6 -168 6 -189 q -87 -119 6 -119 l -44 15 z "},"¸":{"ha":815,"x_min":263,"x_max":551,"o":"m 372 15 l 475 15 l 451 -64 q 524 -106 496 -74 q 551 -178 551 -137 q 528 -247 551 -217 q 465 -294 506 -278 q 372 -311 425 -311 q 263 -290 314 -311 l 282 -200 q 323 -210 304 -207 q 357 -214 342 -214 q 404 -201 386 -214 q 422 -168 422 -189 q 329 -119 422 -119 l 372 15 z "},"̦":{"ha":0,"x_min":-90,"x_max":92,"o":"m -43 -356 l -74 -285 q -24 -251 -43 -271 q 1 -210 -4 -232 q -25 -217 -10 -217 q -72 -197 -53 -217 q -90 -149 -90 -178 q -67 -97 -90 -118 q -8 -76 -44 -76 q 44 -91 21 -76 q 79 -131 67 -106 q 92 -187 92 -156 q 56 -289 92 -244 q -43 -356 19 -333 z "},"̒":{"ha":0,"x_min":-90,"x_max":92,"o":"m 10 807 q -42 822 -19 807 q -77 861 -64 836 q -90 918 -90 886 q -54 1019 -90 975 q 44 1086 -18 1064 l 75 1015 q 25 982 44 1001 q 0 940 6 963 q 26 947 11 947 q 72 928 53 947 q 92 879 92 908 q 68 828 92 849 q 10 807 44 807 z "},"̨":{"ha":0,"x_min":-254,"x_max":15,"o":"m -103 -304 q -182 -289 -147 -304 q -235 -246 -217 -274 q -254 -182 -254 -218 q -213 -78 -254 -131 q -87 33 -172 -26 l 0 0 q -95 -86 -65 -50 q -125 -149 -125 -122 q -110 -182 -125 -169 q -71 -194 -96 -194 q -34 -192 -53 -194 q -3 -182 -15 -189 l 15 -281 q -103 -304 -44 -304 z "},"˛":{"ha":815,"x_min":272,"x_max":542,"o":"m 424 -304 q 344 -289 379 -304 q 291 -246 310 -274 q 272 -182 272 -218 q 313 -78 272 -131 q 439 33 354 -26 l 526 0 q 431 -86 461 -50 q 401 -149 401 -122 q 416 -182 401 -169 q 456 -194 431 -194 q 492 -192 474 -194 q 524 -182 511 -189 l 542 -281 q 424 -304 482 -304 z "},"Ç":{"ha":1018,"x_min":64,"x_max":968,"o":"m 546 -28 q 353 10 442 -28 q 201 118 265 49 q 100 281 136 188 q 64 486 64 375 q 88 655 64 575 q 155 801 111 735 q 258 915 199 867 q 391 988 318 963 q 546 1014 464 1014 q 724 980 642 1014 q 867 884 807 946 q 958 738 928 822 l 796 692 q 694 815 760 771 q 544 858 628 858 q 424 831 479 858 q 326 753 368 803 q 262 635 285 703 q 239 488 239 567 q 262 342 239 408 q 326 228 285 276 q 423 154 367 181 q 547 128 479 128 q 699 171 633 128 q 806 294 765 214 l 968 249 q 875 101 936 164 q 729 6 814 39 q 546 -28 644 -28 m 506 11 l 613 11 l 588 -71 q 660 -115 632 -83 q 688 -189 688 -147 q 665 -260 688 -229 q 601 -308 642 -290 q 506 -325 560 -325 q 389 -304 444 -325 l 410 -210 q 451 -220 432 -217 q 488 -224 471 -224 q 535 -211 518 -224 q 553 -178 553 -199 q 460 -129 553 -129 l 506 11 z "},"Ş":{"ha":783,"x_min":40,"x_max":735,"o":"m 388 -21 q 233 9 304 -21 q 111 93 161 39 q 40 222 61 147 l 200 261 q 271 163 222 197 q 389 128 319 128 q 478 147 439 128 q 540 200 517 167 q 563 276 563 233 q 524 365 563 329 q 404 418 486 400 l 353 429 q 135 535 206 461 q 65 714 65 608 q 90 831 65 778 q 160 924 115 885 q 264 985 204 964 q 393 1007 324 1007 q 539 978 472 1007 q 653 895 606 949 q 719 768 700 842 l 561 729 q 494 825 539 792 q 389 858 450 858 q 310 841 344 858 q 256 794 276 824 q 236 726 236 764 q 276 640 236 672 q 400 589 317 608 l 451 578 q 735 290 735 514 q 709 165 735 222 q 636 66 683 107 q 526 2 589 25 q 388 -21 463 -21 m 346 11 l 453 11 l 428 -71 q 500 -115 472 -83 q 528 -189 528 -147 q 505 -260 528 -229 q 441 -308 482 -290 q 346 -325 400 -325 q 229 -304 285 -325 l 250 -210 q 292 -220 272 -217 q 328 -224 311 -224 q 376 -211 358 -224 q 393 -178 393 -199 q 300 -129 393 -129 l 346 11 z "},"Ģ":{"ha":1092,"x_min":64,"x_max":1031,"o":"m 561 -28 q 399 -3 475 -28 q 263 69 324 22 q 157 179 201 115 q 88 322 113 243 q 64 490 64 400 q 88 660 64 581 q 158 804 113 739 q 265 916 203 869 q 402 988 326 963 q 564 1014 478 1014 q 738 983 657 1014 q 882 896 819 953 q 981 761 944 839 l 819 707 q 713 819 779 779 q 564 858 647 858 q 435 831 494 858 q 332 753 376 803 q 263 638 288 704 q 239 493 239 571 q 263 347 239 414 q 332 231 288 279 q 437 155 376 182 q 568 128 497 128 q 713 160 650 128 q 814 251 776 193 q 857 388 851 310 l 588 388 l 588 529 l 1031 529 l 1031 436 q 997 249 1031 333 q 899 102 963 164 q 751 6 836 40 q 561 -28 665 -28 m 522 -372 l 492 -301 q 544 -268 524 -287 q 568 -226 564 -249 q 542 -233 557 -233 q 494 -213 514 -233 q 475 -165 475 -193 q 499 -111 475 -132 q 560 -90 524 -90 q 612 -105 589 -90 q 648 -144 635 -119 q 661 -201 661 -169 q 624 -304 661 -258 q 522 -372 588 -350 z "},"Ķ":{"ha":939,"x_min":97,"x_max":924,"o":"m 97 0 l 97 986 l 267 986 l 267 546 l 671 986 l 874 986 l 443 524 l 924 0 l 699 0 l 267 482 l 267 0 l 97 0 m 425 -372 l 394 -301 q 447 -268 426 -287 q 471 -226 467 -249 q 444 -233 460 -233 q 397 -213 417 -233 q 378 -165 378 -193 q 402 -111 378 -132 q 463 -90 426 -90 q 515 -105 492 -90 q 551 -144 538 -119 q 564 -201 564 -169 q 527 -304 564 -258 q 425 -372 490 -350 z "},"Ļ":{"ha":744,"x_min":97,"x_max":685,"o":"m 97 0 l 97 986 l 267 986 l 267 151 l 685 151 l 685 0 l 97 0 m 344 -372 l 314 -301 q 366 -268 346 -287 q 390 -226 386 -249 q 364 -233 379 -233 q 317 -213 336 -233 q 297 -165 297 -193 q 322 -111 297 -132 q 382 -90 346 -90 q 434 -105 411 -90 q 470 -144 457 -119 q 483 -201 483 -169 q 447 -304 483 -258 q 344 -372 410 -350 z "},"Ņ":{"ha":1001,"x_min":97,"x_max":904,"o":"m 97 0 l 97 986 l 247 986 l 739 281 l 739 986 l 904 986 l 904 0 l 754 0 l 263 708 l 263 0 l 97 0 m 456 -372 l 425 -301 q 477 -268 457 -287 q 501 -226 497 -249 q 475 -233 490 -233 q 428 -213 447 -233 q 408 -165 408 -193 q 433 -111 408 -132 q 493 -90 457 -90 q 545 -105 522 -90 q 581 -144 568 -119 q 594 -201 594 -169 q 558 -304 594 -258 q 456 -372 521 -350 z "},"Ș":{"ha":783,"x_min":40,"x_max":735,"o":"m 388 -21 q 233 9 304 -21 q 111 93 161 39 q 40 222 61 147 l 200 261 q 271 163 222 197 q 389 128 319 128 q 478 147 439 128 q 540 200 517 167 q 563 276 563 233 q 524 365 563 329 q 404 418 486 400 l 353 429 q 135 535 206 461 q 65 714 65 608 q 90 831 65 778 q 160 924 115 885 q 264 985 204 964 q 393 1007 324 1007 q 539 978 472 1007 q 653 895 606 949 q 719 768 700 842 l 561 729 q 494 825 539 792 q 389 858 450 858 q 310 841 344 858 q 256 794 276 824 q 236 726 236 764 q 276 640 236 672 q 400 589 317 608 l 451 578 q 735 290 735 514 q 709 165 735 222 q 636 66 683 107 q 526 2 589 25 q 388 -21 463 -21 m 342 -372 l 311 -301 q 363 -268 343 -287 q 388 -226 383 -249 q 361 -233 376 -233 q 314 -213 333 -233 q 294 -165 294 -193 q 319 -111 294 -132 q 379 -90 343 -90 q 431 -105 408 -90 q 467 -144 454 -119 q 481 -201 481 -169 q 444 -304 481 -258 q 342 -372 407 -350 z "},"Ț":{"ha":867,"x_min":61,"x_max":806,"o":"m 349 0 l 349 835 l 61 835 l 61 986 l 806 986 l 806 835 l 518 835 l 518 0 l 349 0 m 388 -372 l 357 -301 q 409 -268 389 -287 q 433 -226 429 -249 q 407 -233 422 -233 q 360 -213 379 -233 q 340 -165 340 -193 q 365 -111 340 -132 q 425 -90 389 -90 q 477 -105 454 -90 q 513 -144 500 -119 q 526 -201 526 -169 q 490 -304 526 -258 q 388 -372 453 -350 z "},"Ą":{"ha":1021,"x_min":26,"x_max":1010,"o":"m 26 0 l 419 986 l 600 986 l 994 0 l 819 0 l 726 244 l 288 244 l 194 0 l 26 0 m 343 389 l 671 389 l 507 815 l 343 389 m 889 -308 q 809 -292 843 -308 q 756 -249 775 -276 q 736 -183 736 -221 q 776 -78 736 -131 q 901 33 817 -26 l 994 0 q 899 -86 929 -50 q 869 -149 869 -122 q 884 -182 869 -169 q 924 -194 899 -194 q 959 -192 940 -194 q 992 -182 978 -189 l 1010 -285 q 948 -302 978 -296 q 889 -308 918 -308 z "},"Ę":{"ha":789,"x_min":97,"x_max":725,"o":"m 97 0 l 97 986 l 694 986 l 694 840 l 264 840 l 264 582 l 653 582 l 653 436 l 264 436 l 264 146 l 708 146 l 708 0 l 97 0 m 604 -308 q 524 -292 558 -308 q 471 -249 490 -276 q 451 -183 451 -221 q 492 -78 451 -131 q 617 33 532 -26 l 710 0 q 615 -86 644 -50 q 585 -149 585 -122 q 599 -182 585 -169 q 639 -194 614 -194 q 674 -192 656 -194 q 707 -182 693 -189 l 725 -285 q 663 -302 693 -296 q 604 -308 633 -308 z "},"Į":{"ha":364,"x_min":8,"x_max":282,"o":"m 97 0 l 97 986 l 267 986 l 267 0 l 97 0 m 161 -308 q 81 -292 115 -308 q 28 -249 47 -276 q 8 -183 8 -221 q 49 -78 8 -131 q 174 33 89 -26 l 267 0 q 172 -86 201 -50 q 142 -149 142 -122 q 156 -182 142 -169 q 196 -194 171 -194 q 231 -192 213 -194 q 264 -182 250 -189 l 282 -285 q 220 -302 250 -296 q 161 -308 190 -308 z "},"Ų":{"ha":994,"x_min":86,"x_max":908,"o":"m 494 -28 q 325 1 400 -28 q 197 86 250 31 q 115 219 143 142 q 86 392 86 296 l 86 986 l 256 986 l 256 399 q 285 255 256 315 q 369 161 315 194 q 497 128 424 128 q 625 161 571 128 q 709 255 679 194 q 739 399 739 315 l 739 986 l 908 986 l 908 392 q 879 219 908 296 q 795 87 850 142 q 665 2 740 32 q 494 -28 589 -28 m 665 -308 q 552 -272 594 -308 q 510 -176 510 -236 q 681 67 510 -65 l 783 79 q 677 -47 711 7 q 643 -139 643 -100 q 658 -180 643 -165 q 699 -194 672 -194 q 734 -192 715 -194 q 765 -182 753 -189 l 783 -285 q 665 -308 724 -308 z "},"ç":{"ha":779,"x_min":54,"x_max":733,"o":"m 414 -21 q 271 8 336 -21 q 157 87 206 36 q 81 207 108 138 q 54 358 54 276 q 82 511 54 440 q 158 635 110 582 q 273 717 207 688 q 417 747 339 747 q 554 720 492 747 q 662 644 617 693 q 726 528 707 594 l 575 492 q 509 574 551 544 q 414 603 467 603 q 314 571 358 603 q 244 484 269 539 q 218 360 218 429 q 243 238 218 292 q 312 154 268 185 q 414 124 356 124 q 515 152 469 124 q 583 233 561 181 l 733 199 q 667 83 714 132 q 554 6 619 33 q 414 -21 489 -21 m 371 15 l 474 15 l 450 -64 q 522 -106 494 -74 q 550 -178 550 -137 q 527 -247 550 -217 q 464 -294 504 -278 q 371 -311 424 -311 q 261 -290 313 -311 l 281 -200 q 322 -210 303 -207 q 356 -214 340 -214 q 403 -201 385 -214 q 421 -168 421 -189 q 328 -119 421 -119 l 371 15 z "},"ş":{"ha":665,"x_min":40,"x_max":619,"o":"m 335 -21 q 203 3 264 -21 q 101 70 143 26 q 40 174 58 114 l 185 211 q 243 138 203 164 q 336 111 283 111 q 425 137 390 111 q 460 203 460 163 q 432 261 460 238 q 342 296 404 285 l 296 304 q 120 379 179 325 q 61 518 61 433 q 96 638 61 586 q 192 718 131 689 q 332 747 253 747 q 457 724 400 747 q 553 657 514 700 q 608 556 592 614 l 465 521 q 413 591 449 565 q 331 617 378 617 q 250 592 282 617 q 218 531 218 568 q 247 478 218 499 q 343 444 275 457 l 389 436 q 560 360 500 417 q 619 218 619 303 q 599 123 619 167 q 540 47 578 79 q 449 -3 501 14 q 335 -21 397 -21 m 289 15 l 392 15 l 368 -64 q 440 -106 413 -74 q 468 -178 468 -137 q 445 -247 468 -217 q 382 -294 422 -278 q 289 -311 342 -311 q 179 -290 231 -311 l 199 -200 q 240 -210 221 -207 q 274 -214 258 -214 q 321 -201 303 -214 q 339 -168 339 -189 q 246 -119 339 -119 l 289 15 z "},"ģ":{"ha":871,"x_min":54,"x_max":785,"o":"m 389 14 q 257 42 318 14 q 150 119 196 69 q 79 234 104 168 q 54 378 54 300 q 80 523 54 456 q 153 640 106 590 q 263 719 200 690 q 397 747 325 747 q 534 715 472 747 q 633 624 596 682 l 639 726 l 785 726 l 785 76 q 758 -76 785 -7 q 683 -194 732 -144 q 567 -269 635 -243 q 417 -296 500 -296 q 222 -246 306 -296 q 92 -107 139 -196 l 243 -54 q 319 -130 274 -104 q 422 -156 365 -156 q 529 -128 483 -156 q 600 -52 575 -101 q 625 64 625 -3 l 625 133 q 525 46 586 78 q 389 14 464 14 m 422 158 q 527 188 481 158 q 601 267 574 217 q 628 381 628 317 q 601 494 628 444 q 527 574 574 544 q 422 603 481 603 q 318 574 364 603 q 245 494 272 544 q 218 381 218 444 q 245 267 218 317 q 318 188 272 217 q 422 158 364 158 m 431 807 q 379 822 401 807 q 344 861 357 836 q 331 918 331 886 q 367 1019 331 975 q 465 1086 403 1064 l 496 1015 q 446 982 465 1001 q 421 940 426 963 q 447 947 432 947 q 493 928 474 947 q 513 879 513 908 q 489 828 513 849 q 431 807 465 807 z "},"ķ":{"ha":779,"x_min":86,"x_max":771,"o":"m 86 0 l 86 1033 l 246 1033 l 246 426 l 543 726 l 738 726 l 411 404 l 771 0 l 561 0 l 246 367 l 246 0 l 86 0 m 356 -356 l 325 -285 q 375 -251 356 -271 q 400 -210 394 -232 q 374 -217 389 -217 q 327 -197 346 -217 q 308 -149 308 -178 q 331 -97 308 -118 q 390 -76 354 -76 q 442 -91 419 -76 q 478 -131 465 -106 q 490 -187 490 -156 q 454 -289 490 -244 q 356 -356 418 -333 z "},"ļ":{"ha":332,"x_min":74,"x_max":256,"o":"m 86 0 l 86 1033 l 246 1033 l 246 0 l 86 0 m 121 -356 l 90 -285 q 140 -251 121 -271 q 165 -210 160 -232 q 139 -217 154 -217 q 92 -197 111 -217 q 74 -149 74 -178 q 97 -97 74 -118 q 156 -76 119 -76 q 208 -91 185 -76 q 243 -131 231 -106 q 256 -187 256 -156 q 219 -289 256 -244 q 121 -356 183 -333 z "},"ņ":{"ha":815,"x_min":86,"x_max":729,"o":"m 86 0 l 86 726 l 232 726 l 238 626 q 327 715 269 682 q 460 747 385 747 q 602 708 542 747 q 696 599 663 669 q 729 432 729 528 l 729 0 l 569 0 l 569 414 q 530 553 569 503 q 419 603 490 603 q 330 579 369 603 q 268 515 290 556 q 246 422 246 475 l 246 0 l 86 0 m 364 -356 l 333 -285 q 383 -251 364 -271 q 408 -210 403 -232 q 382 -217 397 -217 q 335 -197 354 -217 q 317 -149 317 -178 q 340 -97 317 -118 q 399 -76 363 -76 q 451 -91 428 -76 q 486 -131 474 -106 q 499 -187 499 -156 q 463 -289 499 -244 q 364 -356 426 -333 z "},"ș":{"ha":665,"x_min":40,"x_max":619,"o":"m 335 -21 q 203 3 264 -21 q 101 70 143 26 q 40 174 58 114 l 185 211 q 243 138 203 164 q 336 111 283 111 q 425 137 390 111 q 460 203 460 163 q 432 261 460 238 q 342 296 404 285 l 296 304 q 120 379 179 325 q 61 518 61 433 q 96 638 61 586 q 192 718 131 689 q 332 747 253 747 q 457 724 400 747 q 553 657 514 700 q 608 556 592 614 l 465 521 q 413 591 449 565 q 331 617 378 617 q 250 592 282 617 q 218 531 218 568 q 247 478 218 499 q 343 444 275 457 l 389 436 q 560 360 500 417 q 619 218 619 303 q 599 123 619 167 q 540 47 578 79 q 449 -3 501 14 q 335 -21 397 -21 m 290 -356 l 260 -285 q 310 -251 290 -271 q 335 -210 329 -232 q 308 -217 324 -217 q 262 -197 281 -217 q 243 -149 243 -178 q 266 -97 243 -118 q 325 -76 289 -76 q 377 -91 354 -76 q 413 -131 400 -106 q 425 -187 425 -156 q 389 -289 425 -244 q 290 -356 353 -333 z "},"ț":{"ha":592,"x_min":24,"x_max":551,"o":"m 386 -21 q 214 42 276 -21 q 151 224 151 106 l 151 597 l 24 597 l 24 726 l 151 726 l 151 972 l 311 972 l 311 726 l 522 726 l 522 597 l 311 597 l 311 240 q 335 151 311 182 q 407 119 360 119 q 461 127 432 119 q 515 149 490 135 l 551 28 q 477 -8 519 6 q 386 -21 435 -21 m 299 -356 l 268 -285 q 318 -251 299 -271 q 343 -210 338 -232 q 317 -217 332 -217 q 270 -197 289 -217 q 251 -149 251 -178 q 274 -97 251 -118 q 333 -76 297 -76 q 385 -91 363 -76 q 421 -131 408 -106 q 433 -187 433 -156 q 397 -289 433 -244 q 299 -356 361 -333 z "},"ą":{"ha":769,"x_min":51,"x_max":699,"o":"m 308 -21 q 206 -4 253 -21 q 125 43 160 13 q 71 115 90 74 q 51 207 51 157 q 88 328 51 276 q 192 410 125 381 q 347 439 258 439 q 440 430 396 439 q 525 404 485 421 l 525 450 q 507 535 525 499 q 456 593 489 572 q 375 614 422 614 q 285 588 325 614 q 225 514 244 561 l 78 547 q 138 653 94 608 q 244 722 182 697 q 378 747 306 747 q 502 725 446 747 q 599 663 558 703 q 661 567 639 622 q 683 443 683 511 l 683 0 l 538 0 l 532 96 q 444 11 503 43 q 308 -21 386 -21 m 213 214 q 229 159 213 183 q 276 121 246 135 q 346 107 306 107 q 438 129 397 107 q 501 190 478 151 q 525 276 525 228 l 525 293 q 451 317 489 308 q 372 326 413 326 q 256 296 300 326 q 213 214 213 265 m 581 -304 q 501 -289 536 -304 q 448 -246 467 -274 q 429 -182 429 -218 q 470 -78 429 -131 q 596 33 511 -26 l 683 0 q 588 -86 618 -50 q 558 -149 558 -122 q 573 -182 558 -169 q 613 -194 588 -194 q 649 -192 631 -194 q 681 -182 668 -189 l 699 -281 q 581 -304 639 -304 z "},"ę":{"ha":807,"x_min":54,"x_max":757,"o":"m 424 -21 q 276 8 343 -21 q 158 88 208 36 q 81 209 108 139 q 54 364 54 279 q 81 515 54 446 q 156 637 108 585 q 269 718 204 689 q 411 747 335 747 q 551 720 488 747 q 660 643 614 693 q 732 524 707 593 q 757 372 757 456 l 757 325 l 219 325 q 253 215 226 261 q 324 143 281 168 q 424 118 367 118 q 601 219 538 118 l 742 165 q 669 66 717 108 q 558 1 621 24 q 424 -21 494 -21 m 411 618 q 324 596 363 618 q 260 533 286 574 q 224 439 233 493 l 590 439 q 558 533 582 493 q 497 596 535 574 q 411 618 458 618 m 556 -304 q 472 -288 507 -304 q 417 -243 436 -272 q 397 -176 397 -214 q 439 -64 397 -122 q 567 58 481 -6 l 667 71 q 560 -51 593 0 q 526 -139 526 -101 q 589 -194 526 -194 q 621 -192 604 -194 q 649 -182 638 -189 l 667 -281 q 556 -304 611 -304 z "},"į":{"ha":332,"x_min":-8,"x_max":263,"o":"m 263 929 q 249 881 263 903 q 214 845 236 858 q 165 832 192 832 q 117 845 139 832 q 81 881 94 858 q 68 929 68 903 q 81 978 68 956 q 117 1013 94 1000 q 165 1026 139 1026 q 214 1013 192 1026 q 249 978 236 1000 q 263 929 263 956 m 86 0 l 86 726 l 246 726 l 246 0 l 86 0 m 143 -304 q 64 -289 99 -304 q 10 -246 29 -274 q -8 -182 -8 -218 q 33 -78 -8 -131 q 158 33 74 -26 l 246 0 q 151 -86 181 -50 q 121 -149 121 -122 q 135 -182 121 -169 q 175 -194 150 -194 q 212 -192 193 -194 q 243 -182 231 -189 l 261 -281 q 143 -304 201 -304 z "},"ų":{"ha":814,"x_min":86,"x_max":728,"o":"m 406 -21 q 237 21 308 -21 q 126 140 165 63 q 86 321 86 217 l 86 726 l 246 726 l 246 318 q 289 176 246 228 q 407 124 332 124 q 525 176 482 124 q 568 318 568 228 l 568 726 l 728 726 l 728 321 q 688 141 728 218 q 576 22 649 64 q 406 -21 504 -21 m 524 -304 q 440 -288 475 -304 q 385 -243 404 -272 q 365 -176 365 -214 q 407 -64 365 -122 q 535 58 449 -6 l 635 71 q 528 -51 561 0 q 494 -139 494 -101 q 557 -194 494 -194 q 589 -192 572 -194 q 617 -182 606 -189 l 635 -281 q 524 -304 579 -304 z "},"́":{"ha":0,"x_min":-119,"x_max":222,"o":"m -119 835 l 42 1033 l 222 1033 l 33 835 l -119 835 z "},"´":{"ha":815,"x_min":236,"x_max":578,"o":"m 236 835 l 397 1033 l 578 1033 l 389 835 l 236 835 z "},"̋":{"ha":0,"x_min":-210,"x_max":335,"o":"m -210 835 l -74 1033 l 90 1033 l -75 835 l -210 835 m 35 835 l 171 1033 l 335 1033 l 169 835 l 35 835 z "},"˝":{"ha":815,"x_min":135,"x_max":679,"o":"m 135 835 l 271 1033 l 435 1033 l 269 835 l 135 835 m 379 835 l 515 1033 l 679 1033 l 514 835 l 379 835 z "},"Á":{"ha":1021,"x_min":26,"x_max":994,"o":"m 26 0 l 419 986 l 600 986 l 994 0 l 819 0 l 726 244 l 288 244 l 194 0 l 26 0 m 343 389 l 671 389 l 507 815 l 343 389 m 368 1092 l 558 1269 l 764 1269 l 538 1092 l 368 1092 z "},"Ć":{"ha":1018,"x_min":64,"x_max":968,"o":"m 546 -28 q 353 10 442 -28 q 201 118 265 49 q 100 281 136 188 q 64 486 64 375 q 88 655 64 575 q 155 801 111 735 q 258 915 199 867 q 391 988 318 963 q 546 1014 464 1014 q 724 980 642 1014 q 867 884 807 946 q 958 738 928 822 l 796 692 q 694 815 760 771 q 544 858 628 858 q 424 831 479 858 q 326 753 368 803 q 262 635 285 703 q 239 488 239 567 q 262 342 239 408 q 326 228 285 276 q 423 154 367 181 q 547 128 479 128 q 699 171 633 128 q 806 294 765 214 l 968 249 q 875 101 936 164 q 729 6 814 39 q 546 -28 644 -28 m 403 1092 l 593 1269 l 799 1269 l 572 1092 l 403 1092 z "},"É":{"ha":789,"x_min":97,"x_max":708,"o":"m 97 0 l 97 986 l 694 986 l 694 840 l 264 840 l 264 582 l 653 582 l 653 436 l 264 436 l 264 146 l 708 146 l 708 0 l 97 0 m 254 1092 l 444 1269 l 650 1269 l 424 1092 l 254 1092 z "},"Í":{"ha":364,"x_min":40,"x_max":436,"o":"m 97 0 l 97 986 l 267 986 l 267 0 l 97 0 m 40 1092 l 231 1269 l 436 1269 l 210 1092 l 40 1092 z "},"Ĺ":{"ha":744,"x_min":40,"x_max":685,"o":"m 97 0 l 97 986 l 267 986 l 267 151 l 685 151 l 685 0 l 97 0 m 40 1092 l 231 1269 l 436 1269 l 210 1092 l 40 1092 z "},"Ń":{"ha":1001,"x_min":97,"x_max":904,"o":"m 97 0 l 97 986 l 247 986 l 739 281 l 739 986 l 904 986 l 904 0 l 754 0 l 263 708 l 263 0 l 97 0 m 360 1092 l 550 1269 l 756 1269 l 529 1092 l 360 1092 z "},"Ó":{"ha":1125,"x_min":64,"x_max":1061,"o":"m 563 -28 q 401 -3 476 -28 q 263 69 325 22 q 157 179 201 115 q 88 322 113 243 q 64 492 64 401 q 88 661 64 582 q 157 805 113 740 q 264 917 201 869 q 402 989 326 964 q 564 1014 478 1014 q 726 989 650 1014 q 863 917 801 964 q 969 807 925 871 q 1038 664 1014 743 q 1061 494 1061 585 q 1037 325 1061 404 q 968 181 1013 246 q 862 69 924 117 q 724 -3 800 22 q 563 -28 649 -28 m 563 128 q 692 155 633 128 q 794 231 751 182 q 862 347 838 279 q 886 493 886 414 q 862 640 886 572 q 794 756 838 707 q 692 831 751 804 q 563 858 633 858 q 433 831 492 858 q 331 756 374 804 q 263 640 288 707 q 239 493 239 572 q 263 347 239 414 q 331 231 288 279 q 433 155 374 182 q 563 128 492 128 m 421 1092 l 611 1269 l 817 1269 l 590 1092 l 421 1092 z "},"Ŕ":{"ha":858,"x_min":97,"x_max":826,"o":"m 97 0 l 97 986 l 394 986 q 598 949 513 986 q 729 842 683 911 q 775 676 775 772 q 753 565 775 617 q 692 471 732 513 q 597 403 653 429 l 826 0 l 639 0 l 449 358 q 415 356 433 357 q 376 356 396 356 q 264 365 328 356 l 264 0 l 97 0 m 264 839 l 264 513 q 324 505 293 507 q 386 503 356 503 q 546 547 489 503 q 603 671 603 592 q 547 794 603 750 q 392 839 492 839 l 264 839 m 246 1092 l 436 1269 l 642 1269 l 415 1092 l 246 1092 z "},"Ś":{"ha":783,"x_min":40,"x_max":735,"o":"m 388 -21 q 233 9 304 -21 q 111 93 161 39 q 40 222 61 147 l 200 261 q 271 163 222 197 q 389 128 319 128 q 478 147 439 128 q 540 200 517 167 q 563 276 563 233 q 524 365 563 329 q 404 418 486 400 l 353 429 q 135 535 206 461 q 65 714 65 608 q 90 831 65 778 q 160 924 115 885 q 264 985 204 964 q 393 1007 324 1007 q 539 978 472 1007 q 653 895 606 949 q 719 768 700 842 l 561 729 q 494 825 539 792 q 389 858 450 858 q 310 841 344 858 q 256 794 276 824 q 236 726 236 764 q 276 640 236 672 q 400 589 317 608 l 451 578 q 735 290 735 514 q 709 165 735 222 q 636 66 683 107 q 526 2 589 25 q 388 -21 463 -21 m 250 1092 l 440 1269 l 646 1269 l 419 1092 l 250 1092 z "},"Ú":{"ha":994,"x_min":86,"x_max":908,"o":"m 494 -28 q 325 1 400 -28 q 197 86 250 31 q 115 219 143 142 q 86 392 86 296 l 86 986 l 256 986 l 256 399 q 285 255 256 315 q 369 161 315 194 q 497 128 424 128 q 625 161 571 128 q 709 255 679 194 q 739 399 739 315 l 739 986 l 908 986 l 908 392 q 879 219 908 296 q 795 87 850 142 q 665 2 740 32 q 494 -28 589 -28 m 356 1092 l 546 1269 l 751 1269 l 525 1092 l 356 1092 z "},"Ẃ":{"ha":1429,"x_min":43,"x_max":1386,"o":"m 1386 986 l 1094 0 l 922 0 l 715 750 l 508 0 l 335 0 l 43 986 l 224 986 l 426 225 l 635 986 l 799 986 l 1008 225 l 1210 986 l 1386 986 m 572 1092 l 763 1269 l 968 1269 l 742 1092 l 572 1092 z "},"Ý":{"ha":900,"x_min":19,"x_max":881,"o":"m 365 0 l 365 389 l 19 986 l 211 986 l 453 544 l 693 986 l 881 986 l 535 389 l 535 0 l 365 0 m 307 1092 l 497 1269 l 703 1269 l 476 1092 l 307 1092 z "},"Ź":{"ha":875,"x_min":57,"x_max":821,"o":"m 57 0 l 57 122 l 581 842 l 78 842 l 78 986 l 790 986 l 790 864 l 267 144 l 821 144 l 821 0 l 57 0 m 292 1092 l 482 1269 l 688 1269 l 461 1092 l 292 1092 z "},"Ő":{"ha":1125,"x_min":64,"x_max":1061,"o":"m 563 -28 q 401 -3 476 -28 q 263 69 325 22 q 157 179 201 115 q 88 322 113 243 q 64 492 64 401 q 88 661 64 582 q 157 805 113 740 q 264 917 201 869 q 402 989 326 964 q 564 1014 478 1014 q 726 989 650 1014 q 863 917 801 964 q 969 807 925 871 q 1038 664 1014 743 q 1061 494 1061 585 q 1037 325 1061 404 q 968 181 1013 246 q 862 69 924 117 q 724 -3 800 22 q 563 -28 649 -28 m 563 128 q 692 155 633 128 q 794 231 751 182 q 862 347 838 279 q 886 493 886 414 q 862 640 886 572 q 794 756 838 707 q 692 831 751 804 q 563 858 633 858 q 433 831 492 858 q 331 756 374 804 q 263 640 288 707 q 239 493 239 572 q 263 347 239 414 q 331 231 288 279 q 433 155 374 182 q 563 128 492 128 m 290 1092 l 483 1269 l 676 1269 l 450 1092 l 290 1092 m 582 1092 l 775 1269 l 968 1269 l 742 1092 l 582 1092 z "},"Ű":{"ha":994,"x_min":86,"x_max":908,"o":"m 494 -28 q 325 1 400 -28 q 197 86 250 31 q 115 219 143 142 q 86 392 86 296 l 86 986 l 256 986 l 256 399 q 285 255 256 315 q 369 161 315 194 q 497 128 424 128 q 625 161 571 128 q 709 255 679 194 q 739 399 739 315 l 739 986 l 908 986 l 908 392 q 879 219 908 296 q 795 87 850 142 q 665 2 740 32 q 494 -28 589 -28 m 225 1092 l 418 1269 l 611 1269 l 385 1092 l 225 1092 m 517 1092 l 710 1269 l 903 1269 l 676 1092 l 517 1092 z "},"á":{"ha":769,"x_min":51,"x_max":683,"o":"m 308 -21 q 206 -4 253 -21 q 125 43 160 13 q 71 115 90 74 q 51 207 51 157 q 88 328 51 276 q 192 410 125 381 q 347 439 258 439 q 440 430 396 439 q 525 404 485 421 l 525 450 q 507 535 525 499 q 456 593 489 572 q 375 614 422 614 q 285 588 325 614 q 225 514 244 561 l 78 547 q 138 653 94 608 q 244 722 182 697 q 378 747 306 747 q 502 725 446 747 q 599 663 558 703 q 661 567 639 622 q 683 443 683 511 l 683 0 l 538 0 l 532 96 q 444 11 503 43 q 308 -21 386 -21 m 213 214 q 229 159 213 183 q 276 121 246 135 q 346 107 306 107 q 438 129 397 107 q 501 190 478 151 q 525 276 525 228 l 525 293 q 451 317 489 308 q 372 326 413 326 q 256 296 300 326 q 213 214 213 265 m 261 835 l 422 1033 l 603 1033 l 414 835 l 261 835 z "},"ć":{"ha":779,"x_min":54,"x_max":733,"o":"m 414 -21 q 271 8 336 -21 q 157 87 206 36 q 81 207 108 138 q 54 358 54 276 q 82 511 54 440 q 158 635 110 582 q 273 717 207 688 q 417 747 339 747 q 554 720 492 747 q 662 644 617 693 q 726 528 707 594 l 575 492 q 509 574 551 544 q 414 603 467 603 q 314 571 358 603 q 244 484 269 539 q 218 360 218 429 q 243 238 218 292 q 312 154 268 185 q 414 124 356 124 q 515 152 469 124 q 583 233 561 181 l 733 199 q 667 83 714 132 q 554 6 619 33 q 414 -21 489 -21 m 297 835 l 458 1033 l 639 1033 l 450 835 l 297 835 z "},"é":{"ha":807,"x_min":54,"x_max":757,"o":"m 424 -21 q 276 8 343 -21 q 158 88 208 36 q 81 209 108 139 q 54 364 54 279 q 81 515 54 446 q 156 637 108 585 q 269 718 204 689 q 411 747 335 747 q 551 720 488 747 q 660 643 614 693 q 732 524 707 593 q 757 372 757 456 l 757 325 l 219 325 q 253 215 226 261 q 324 143 281 168 q 424 118 367 118 q 601 219 538 118 l 742 165 q 669 66 717 108 q 558 1 621 24 q 424 -21 494 -21 m 411 618 q 324 596 363 618 q 260 533 286 574 q 224 439 233 493 l 590 439 q 558 533 582 493 q 497 596 535 574 q 411 618 458 618 m 292 835 l 453 1033 l 633 1033 l 444 835 l 292 835 z "},"í":{"ha":332,"x_min":44,"x_max":386,"o":"m 86 0 l 86 726 l 246 726 l 246 0 l 86 0 m 44 835 l 206 1033 l 386 1033 l 197 835 l 44 835 z "},"ĺ":{"ha":332,"x_min":44,"x_max":386,"o":"m 86 0 l 86 1033 l 246 1033 l 246 0 l 86 0 m 44 1115 l 206 1314 l 386 1314 l 197 1115 l 44 1115 z "},"ń":{"ha":815,"x_min":86,"x_max":729,"o":"m 86 0 l 86 726 l 232 726 l 238 626 q 327 715 269 682 q 460 747 385 747 q 602 708 542 747 q 696 599 663 669 q 729 432 729 528 l 729 0 l 569 0 l 569 414 q 530 553 569 503 q 419 603 490 603 q 330 579 369 603 q 268 515 290 556 q 246 422 246 475 l 246 0 l 86 0 m 288 835 l 449 1033 l 629 1033 l 440 835 l 288 835 z "},"ó":{"ha":853,"x_min":54,"x_max":799,"o":"m 424 -21 q 277 8 344 -21 q 160 88 210 36 q 82 210 110 140 q 54 364 54 281 q 82 516 54 446 q 160 638 110 586 q 280 719 211 690 q 429 747 349 747 q 576 719 508 747 q 693 638 643 690 q 771 517 743 586 q 799 364 799 447 q 771 210 799 281 q 692 88 743 140 q 573 8 642 36 q 424 -21 504 -21 m 426 124 q 533 155 486 124 q 608 240 581 186 q 635 364 635 294 q 608 487 635 433 q 533 572 581 540 q 426 603 486 603 q 319 572 367 603 q 245 487 272 540 q 218 364 218 433 q 245 240 218 294 q 319 155 272 186 q 426 124 367 124 m 307 835 l 468 1033 l 649 1033 l 460 835 l 307 835 z "},"ŕ":{"ha":539,"x_min":86,"x_max":519,"o":"m 86 0 l 86 726 l 232 726 l 239 607 q 316 702 267 668 q 432 736 365 736 q 472 733 453 736 q 507 724 492 731 l 489 568 q 457 576 474 574 q 424 578 440 578 q 293 522 340 578 q 246 368 246 467 l 246 0 l 86 0 m 178 835 l 339 1033 l 519 1033 l 331 835 l 178 835 z "},"ś":{"ha":665,"x_min":40,"x_max":619,"o":"m 335 -21 q 203 3 264 -21 q 101 70 143 26 q 40 174 58 114 l 185 211 q 243 138 203 164 q 336 111 283 111 q 425 137 390 111 q 460 203 460 163 q 432 261 460 238 q 342 296 404 285 l 296 304 q 120 379 179 325 q 61 518 61 433 q 96 638 61 586 q 192 718 131 689 q 332 747 253 747 q 457 724 400 747 q 553 657 514 700 q 608 556 592 614 l 465 521 q 413 591 449 565 q 331 617 378 617 q 250 592 282 617 q 218 531 218 568 q 247 478 218 499 q 343 444 275 457 l 389 436 q 560 360 500 417 q 619 218 619 303 q 599 123 619 167 q 540 47 578 79 q 449 -3 501 14 q 335 -21 397 -21 m 211 835 l 372 1033 l 553 1033 l 364 835 l 211 835 z "},"ú":{"ha":814,"x_min":86,"x_max":728,"o":"m 406 -21 q 237 21 308 -21 q 126 140 165 63 q 86 321 86 217 l 86 726 l 246 726 l 246 318 q 289 176 246 228 q 407 124 332 124 q 525 176 482 124 q 568 318 568 228 l 568 726 l 728 726 l 728 321 q 688 141 728 218 q 576 22 649 64 q 406 -21 504 -21 m 286 835 l 447 1033 l 628 1033 l 439 835 l 286 835 z "},"ẃ":{"ha":1144,"x_min":19,"x_max":1125,"o":"m 261 0 l 19 726 l 186 726 l 340 196 l 503 726 l 646 726 l 807 196 l 964 726 l 1125 726 l 882 0 l 732 0 l 572 528 l 411 0 l 261 0 m 451 835 l 613 1033 l 793 1033 l 604 835 l 451 835 z "},"ý":{"ha":757,"x_min":19,"x_max":738,"o":"m 183 -289 q 119 -282 149 -289 q 61 -260 89 -275 l 96 -133 q 131 -145 111 -140 q 168 -150 150 -150 q 241 -126 210 -150 q 293 -50 272 -103 l 315 7 l 19 726 l 194 726 l 390 183 l 568 726 l 738 726 l 429 -87 q 328 -240 389 -192 q 183 -289 268 -289 m 258 835 l 419 1033 l 600 1033 l 411 835 l 258 835 z "},"ź":{"ha":713,"x_min":57,"x_max":656,"o":"m 57 0 l 57 106 l 435 597 l 67 597 l 67 726 l 632 726 l 632 621 l 254 129 l 656 129 l 656 0 l 57 0 m 229 835 l 390 1033 l 571 1033 l 382 835 l 229 835 z "},"ő":{"ha":853,"x_min":54,"x_max":799,"o":"m 424 -21 q 277 8 344 -21 q 160 88 210 36 q 82 210 110 140 q 54 364 54 281 q 82 516 54 446 q 160 638 110 586 q 280 719 211 690 q 429 747 349 747 q 576 719 508 747 q 693 638 643 690 q 771 517 743 586 q 799 364 799 447 q 771 210 799 281 q 692 88 743 140 q 573 8 642 36 q 424 -21 504 -21 m 426 124 q 533 155 486 124 q 608 240 581 186 q 635 364 635 294 q 608 487 635 433 q 533 572 581 540 q 426 603 486 603 q 319 572 367 603 q 245 487 272 540 q 218 364 218 433 q 245 240 218 294 q 319 155 272 186 q 426 124 367 124 m 217 835 l 353 1033 l 517 1033 l 351 835 l 217 835 m 461 835 l 597 1033 l 761 1033 l 596 835 l 461 835 z "},"ű":{"ha":814,"x_min":86,"x_max":740,"o":"m 406 -21 q 237 21 308 -21 q 126 140 165 63 q 86 321 86 217 l 86 726 l 246 726 l 246 318 q 289 176 246 228 q 407 124 332 124 q 525 176 482 124 q 568 318 568 228 l 568 726 l 728 726 l 728 321 q 688 141 728 218 q 576 22 649 64 q 406 -21 504 -21 m 196 835 l 332 1033 l 496 1033 l 331 835 l 196 835 m 440 835 l 576 1033 l 740 1033 l 575 835 l 440 835 z "},"̀":{"ha":0,"x_min":-222,"x_max":119,"o":"m -33 835 l -222 1033 l -42 1033 l 119 835 l -33 835 z "},"`":{"ha":815,"x_min":236,"x_max":578,"o":"m 425 835 l 236 1033 l 417 1033 l 578 835 l 425 835 z "},"ˋ":{"ha":815,"x_min":236,"x_max":578,"o":"m 425 835 l 236 1033 l 417 1033 l 578 835 l 425 835 z "},"À":{"ha":1021,"x_min":26,"x_max":994,"o":"m 26 0 l 419 986 l 600 986 l 994 0 l 819 0 l 726 244 l 288 244 l 194 0 l 26 0 m 343 389 l 671 389 l 507 815 l 343 389 m 482 1092 l 256 1269 l 461 1269 l 651 1092 l 482 1092 z "},"È":{"ha":789,"x_min":97,"x_max":708,"o":"m 97 0 l 97 986 l 694 986 l 694 840 l 264 840 l 264 582 l 653 582 l 653 436 l 264 436 l 264 146 l 708 146 l 708 0 l 97 0 m 368 1092 l 142 1269 l 347 1269 l 538 1092 l 368 1092 z "},"Ì":{"ha":364,"x_min":-72,"x_max":324,"o":"m 97 0 l 97 986 l 267 986 l 267 0 l 97 0 m 154 1092 l -72 1269 l 133 1269 l 324 1092 l 154 1092 z "},"Ò":{"ha":1125,"x_min":64,"x_max":1061,"o":"m 563 -28 q 401 -3 476 -28 q 263 69 325 22 q 157 179 201 115 q 88 322 113 243 q 64 492 64 401 q 88 661 64 582 q 157 805 113 740 q 264 917 201 869 q 402 989 326 964 q 564 1014 478 1014 q 726 989 650 1014 q 863 917 801 964 q 969 807 925 871 q 1038 664 1014 743 q 1061 494 1061 585 q 1037 325 1061 404 q 968 181 1013 246 q 862 69 924 117 q 724 -3 800 22 q 563 -28 649 -28 m 563 128 q 692 155 633 128 q 794 231 751 182 q 862 347 838 279 q 886 493 886 414 q 862 640 886 572 q 794 756 838 707 q 692 831 751 804 q 563 858 633 858 q 433 831 492 858 q 331 756 374 804 q 263 640 288 707 q 239 493 239 572 q 263 347 239 414 q 331 231 288 279 q 433 155 374 182 q 563 128 492 128 m 535 1092 l 308 1269 l 514 1269 l 704 1092 l 535 1092 z "},"Ù":{"ha":994,"x_min":86,"x_max":908,"o":"m 494 -28 q 325 1 400 -28 q 197 86 250 31 q 115 219 143 142 q 86 392 86 296 l 86 986 l 256 986 l 256 399 q 285 255 256 315 q 369 161 315 194 q 497 128 424 128 q 625 161 571 128 q 709 255 679 194 q 739 399 739 315 l 739 986 l 908 986 l 908 392 q 879 219 908 296 q 795 87 850 142 q 665 2 740 32 q 494 -28 589 -28 m 469 1092 l 243 1269 l 449 1269 l 639 1092 l 469 1092 z "},"Ẁ":{"ha":1429,"x_min":43,"x_max":1386,"o":"m 1386 986 l 1094 0 l 922 0 l 715 750 l 508 0 l 335 0 l 43 986 l 224 986 l 426 225 l 635 986 l 799 986 l 1008 225 l 1210 986 l 1386 986 m 686 1092 l 460 1269 l 665 1269 l 856 1092 l 686 1092 z "},"Ỳ":{"ha":900,"x_min":19,"x_max":881,"o":"m 365 0 l 365 389 l 19 986 l 211 986 l 453 544 l 693 986 l 881 986 l 535 389 l 535 0 l 365 0 m 421 1092 l 194 1269 l 400 1269 l 590 1092 l 421 1092 z "},"à":{"ha":769,"x_min":51,"x_max":683,"o":"m 308 -21 q 206 -4 253 -21 q 125 43 160 13 q 71 115 90 74 q 51 207 51 157 q 88 328 51 276 q 192 410 125 381 q 347 439 258 439 q 440 430 396 439 q 525 404 485 421 l 525 450 q 507 535 525 499 q 456 593 489 572 q 375 614 422 614 q 285 588 325 614 q 225 514 244 561 l 78 547 q 138 653 94 608 q 244 722 182 697 q 378 747 306 747 q 502 725 446 747 q 599 663 558 703 q 661 567 639 622 q 683 443 683 511 l 683 0 l 538 0 l 532 96 q 444 11 503 43 q 308 -21 386 -21 m 213 214 q 229 159 213 183 q 276 121 246 135 q 346 107 306 107 q 438 129 397 107 q 501 190 478 151 q 525 276 525 228 l 525 293 q 451 317 489 308 q 372 326 413 326 q 256 296 300 326 q 213 214 213 265 m 347 835 l 158 1033 l 339 1033 l 500 835 l 347 835 z "},"è":{"ha":807,"x_min":54,"x_max":757,"o":"m 424 -21 q 276 8 343 -21 q 158 88 208 36 q 81 209 108 139 q 54 364 54 279 q 81 515 54 446 q 156 637 108 585 q 269 718 204 689 q 411 747 335 747 q 551 720 488 747 q 660 643 614 693 q 732 524 707 593 q 757 372 757 456 l 757 325 l 219 325 q 253 215 226 261 q 324 143 281 168 q 424 118 367 118 q 601 219 538 118 l 742 165 q 669 66 717 108 q 558 1 621 24 q 424 -21 494 -21 m 411 618 q 324 596 363 618 q 260 533 286 574 q 224 439 233 493 l 590 439 q 558 533 582 493 q 497 596 535 574 q 411 618 458 618 m 378 835 l 189 1033 l 369 1033 l 531 835 l 378 835 z "},"ì":{"ha":332,"x_min":-58,"x_max":283,"o":"m 86 0 l 86 726 l 246 726 l 246 0 l 86 0 m 131 835 l -58 1033 l 122 1033 l 283 835 l 131 835 z "},"ò":{"ha":853,"x_min":54,"x_max":799,"o":"m 424 -21 q 277 8 344 -21 q 160 88 210 36 q 82 210 110 140 q 54 364 54 281 q 82 516 54 446 q 160 638 110 586 q 280 719 211 690 q 429 747 349 747 q 576 719 508 747 q 693 638 643 690 q 771 517 743 586 q 799 364 799 447 q 771 210 799 281 q 692 88 743 140 q 573 8 642 36 q 424 -21 504 -21 m 426 124 q 533 155 486 124 q 608 240 581 186 q 635 364 635 294 q 608 487 635 433 q 533 572 581 540 q 426 603 486 603 q 319 572 367 603 q 245 487 272 540 q 218 364 218 433 q 245 240 218 294 q 319 155 272 186 q 426 124 367 124 m 393 835 l 204 1033 l 385 1033 l 546 835 l 393 835 z "},"ù":{"ha":814,"x_min":86,"x_max":728,"o":"m 406 -21 q 237 21 308 -21 q 126 140 165 63 q 86 321 86 217 l 86 726 l 246 726 l 246 318 q 289 176 246 228 q 407 124 332 124 q 525 176 482 124 q 568 318 568 228 l 568 726 l 728 726 l 728 321 q 688 141 728 218 q 576 22 649 64 q 406 -21 504 -21 m 372 835 l 183 1033 l 364 1033 l 525 835 l 372 835 z "},"ẁ":{"ha":1144,"x_min":19,"x_max":1125,"o":"m 261 0 l 19 726 l 186 726 l 340 196 l 503 726 l 646 726 l 807 196 l 964 726 l 1125 726 l 882 0 l 732 0 l 572 528 l 411 0 l 261 0 m 538 835 l 349 1033 l 529 1033 l 690 835 l 538 835 z "},"ỳ":{"ha":757,"x_min":19,"x_max":738,"o":"m 183 -289 q 119 -282 149 -289 q 61 -260 89 -275 l 96 -133 q 131 -145 111 -140 q 168 -150 150 -150 q 241 -126 210 -150 q 293 -50 272 -103 l 315 7 l 19 726 l 194 726 l 390 183 l 568 726 l 738 726 l 429 -87 q 328 -240 389 -192 q 183 -289 268 -289 m 344 835 l 156 1033 l 336 1033 l 497 835 l 344 835 z "},"̂":{"ha":0,"x_min":-243,"x_max":244,"o":"m -243 835 l -64 1033 l 65 1033 l 244 835 l 99 835 l 0 933 l -101 835 l -243 835 z "},"ˆ":{"ha":815,"x_min":164,"x_max":651,"o":"m 164 835 l 343 1033 l 472 1033 l 651 835 l 506 835 l 407 933 l 306 835 l 164 835 z "},"̃":{"ha":0,"x_min":-232,"x_max":233,"o":"m 90 829 q 36 840 60 829 q -6 864 13 850 q -42 888 -25 878 q -75 899 -58 899 q -106 883 -93 899 q -121 836 -118 867 l -232 836 q -185 973 -224 925 q -89 1021 -146 1021 q -35 1010 -58 1021 q 8 986 -11 1000 q 43 962 26 972 q 76 951 60 951 q 107 967 94 951 q 122 1014 119 983 l 233 1014 q 186 877 225 925 q 90 829 147 829 z "},"˜":{"ha":815,"x_min":175,"x_max":640,"o":"m 497 829 q 443 840 467 829 q 401 864 419 850 q 365 888 382 878 q 332 899 349 899 q 301 883 314 899 q 286 836 289 867 l 175 836 q 222 973 183 925 q 318 1021 261 1021 q 372 1010 349 1021 q 415 986 396 1000 q 450 962 433 972 q 483 951 467 951 q 514 967 501 951 q 529 1014 526 983 l 640 1014 q 593 877 632 925 q 497 829 554 829 z "},"Â":{"ha":1021,"x_min":26,"x_max":994,"o":"m 26 0 l 419 986 l 600 986 l 994 0 l 819 0 l 726 244 l 288 244 l 194 0 l 26 0 m 343 389 l 671 389 l 507 815 l 343 389 m 231 1092 l 432 1269 l 588 1269 l 789 1092 l 619 1092 l 508 1178 l 396 1092 l 231 1092 z "},"Ê":{"ha":789,"x_min":97,"x_max":708,"o":"m 97 0 l 97 986 l 694 986 l 694 840 l 264 840 l 264 582 l 653 582 l 653 436 l 264 436 l 264 146 l 708 146 l 708 0 l 97 0 m 117 1092 l 318 1269 l 474 1269 l 675 1092 l 506 1092 l 394 1178 l 282 1092 l 117 1092 z "},"Î":{"ha":364,"x_min":-97,"x_max":461,"o":"m 97 0 l 97 986 l 267 986 l 267 0 l 97 0 m -97 1092 l 104 1269 l 260 1269 l 461 1092 l 292 1092 l 181 1178 l 68 1092 l -97 1092 z "},"Ô":{"ha":1125,"x_min":64,"x_max":1061,"o":"m 563 -28 q 401 -3 476 -28 q 263 69 325 22 q 157 179 201 115 q 88 322 113 243 q 64 492 64 401 q 88 661 64 582 q 157 805 113 740 q 264 917 201 869 q 402 989 326 964 q 564 1014 478 1014 q 726 989 650 1014 q 863 917 801 964 q 969 807 925 871 q 1038 664 1014 743 q 1061 494 1061 585 q 1037 325 1061 404 q 968 181 1013 246 q 862 69 924 117 q 724 -3 800 22 q 563 -28 649 -28 m 563 128 q 692 155 633 128 q 794 231 751 182 q 862 347 838 279 q 886 493 886 414 q 862 640 886 572 q 794 756 838 707 q 692 831 751 804 q 563 858 633 858 q 433 831 492 858 q 331 756 374 804 q 263 640 288 707 q 239 493 239 572 q 263 347 239 414 q 331 231 288 279 q 433 155 374 182 q 563 128 492 128 m 283 1092 l 485 1269 l 640 1269 l 842 1092 l 672 1092 l 561 1178 l 449 1092 l 283 1092 z "},"Û":{"ha":994,"x_min":86,"x_max":908,"o":"m 494 -28 q 325 1 400 -28 q 197 86 250 31 q 115 219 143 142 q 86 392 86 296 l 86 986 l 256 986 l 256 399 q 285 255 256 315 q 369 161 315 194 q 497 128 424 128 q 625 161 571 128 q 709 255 679 194 q 739 399 739 315 l 739 986 l 908 986 l 908 392 q 879 219 908 296 q 795 87 850 142 q 665 2 740 32 q 494 -28 589 -28 m 218 1092 l 419 1269 l 575 1269 l 776 1092 l 607 1092 l 496 1178 l 383 1092 l 218 1092 z "},"Ŵ":{"ha":1429,"x_min":43,"x_max":1386,"o":"m 1386 986 l 1094 0 l 922 0 l 715 750 l 508 0 l 335 0 l 43 986 l 224 986 l 426 225 l 635 986 l 799 986 l 1008 225 l 1210 986 l 1386 986 m 435 1092 l 636 1269 l 792 1269 l 993 1092 l 824 1092 l 713 1178 l 600 1092 l 435 1092 z "},"Ŷ":{"ha":900,"x_min":19,"x_max":881,"o":"m 365 0 l 365 389 l 19 986 l 211 986 l 453 544 l 693 986 l 881 986 l 535 389 l 535 0 l 365 0 m 169 1092 l 371 1269 l 526 1269 l 728 1092 l 558 1092 l 447 1178 l 335 1092 l 169 1092 z "},"Ã":{"ha":1021,"x_min":26,"x_max":994,"o":"m 26 0 l 419 986 l 600 986 l 994 0 l 819 0 l 726 244 l 288 244 l 194 0 l 26 0 m 343 389 l 671 389 l 507 815 l 343 389 m 611 1088 q 551 1099 578 1088 q 502 1124 524 1110 q 461 1149 481 1138 q 422 1160 442 1160 q 383 1143 399 1160 q 361 1096 368 1126 l 247 1096 q 276 1194 254 1153 q 331 1257 297 1235 q 410 1279 365 1279 q 470 1268 443 1279 q 519 1243 497 1257 q 560 1218 540 1229 q 599 1207 579 1207 q 638 1224 622 1207 q 660 1271 654 1240 l 774 1271 q 746 1173 768 1214 q 689 1110 724 1132 q 611 1088 654 1088 z "},"Ĩ":{"ha":364,"x_min":-81,"x_max":446,"o":"m 97 0 l 97 986 l 267 986 l 267 0 l 97 0 m 283 1088 q 223 1099 250 1088 q 174 1124 196 1110 q 133 1149 153 1138 q 94 1160 114 1160 q 56 1143 71 1160 q 33 1096 40 1126 l -81 1096 q -52 1194 -74 1153 q 3 1257 -31 1235 q 82 1279 38 1279 q 142 1268 115 1279 q 191 1243 169 1257 q 232 1218 213 1229 q 271 1207 251 1207 q 310 1224 294 1207 q 332 1271 326 1240 l 446 1271 q 418 1173 440 1214 q 361 1110 396 1132 q 283 1088 326 1088 z "},"Ñ":{"ha":1001,"x_min":97,"x_max":904,"o":"m 97 0 l 97 986 l 247 986 l 739 281 l 739 986 l 904 986 l 904 0 l 754 0 l 263 708 l 263 0 l 97 0 m 603 1088 q 542 1099 569 1088 q 494 1124 515 1110 q 453 1149 472 1138 q 414 1160 433 1160 q 375 1143 390 1160 q 353 1096 360 1126 l 239 1096 q 267 1194 246 1153 q 323 1257 289 1235 q 401 1279 357 1279 q 462 1268 435 1279 q 510 1243 489 1257 q 551 1218 532 1229 q 590 1207 571 1207 q 630 1224 614 1207 q 651 1271 646 1240 l 765 1271 q 738 1173 760 1214 q 681 1110 715 1132 q 603 1088 646 1088 z "},"Õ":{"ha":1125,"x_min":64,"x_max":1061,"o":"m 563 -28 q 401 -3 476 -28 q 263 69 325 22 q 157 179 201 115 q 88 322 113 243 q 64 492 64 401 q 88 661 64 582 q 157 805 113 740 q 264 917 201 869 q 402 989 326 964 q 564 1014 478 1014 q 726 989 650 1014 q 863 917 801 964 q 969 807 925 871 q 1038 664 1014 743 q 1061 494 1061 585 q 1037 325 1061 404 q 968 181 1013 246 q 862 69 924 117 q 724 -3 800 22 q 563 -28 649 -28 m 563 128 q 692 155 633 128 q 794 231 751 182 q 862 347 838 279 q 886 493 886 414 q 862 640 886 572 q 794 756 838 707 q 692 831 751 804 q 563 858 633 858 q 433 831 492 858 q 331 756 374 804 q 263 640 288 707 q 239 493 239 572 q 263 347 239 414 q 331 231 288 279 q 433 155 374 182 q 563 128 492 128 m 664 1088 q 603 1099 631 1088 q 555 1124 576 1110 q 514 1149 533 1138 q 475 1160 494 1160 q 436 1143 451 1160 q 414 1096 421 1126 l 300 1096 q 328 1194 307 1153 q 384 1257 350 1235 q 463 1279 418 1279 q 523 1268 496 1279 q 572 1243 550 1257 q 613 1218 593 1229 q 651 1207 632 1207 q 691 1224 675 1207 q 713 1271 707 1240 l 826 1271 q 799 1173 821 1214 q 742 1110 776 1132 q 664 1088 707 1088 z "},"Ũ":{"ha":994,"x_min":86,"x_max":908,"o":"m 494 -28 q 325 1 400 -28 q 197 86 250 31 q 115 219 143 142 q 86 392 86 296 l 86 986 l 256 986 l 256 399 q 285 255 256 315 q 369 161 315 194 q 497 128 424 128 q 625 161 571 128 q 709 255 679 194 q 739 399 739 315 l 739 986 l 908 986 l 908 392 q 879 219 908 296 q 795 87 850 142 q 665 2 740 32 q 494 -28 589 -28 m 599 1088 q 538 1099 565 1088 q 490 1124 511 1110 q 449 1149 468 1138 q 410 1160 429 1160 q 371 1143 386 1160 q 349 1096 356 1126 l 235 1096 q 263 1194 242 1153 q 319 1257 285 1235 q 397 1279 353 1279 q 458 1268 431 1279 q 506 1243 485 1257 q 547 1218 528 1229 q 586 1207 567 1207 q 626 1224 610 1207 q 647 1271 642 1240 l 761 1271 q 733 1173 756 1214 q 676 1110 711 1132 q 599 1088 642 1088 z "},"â":{"ha":769,"x_min":51,"x_max":683,"o":"m 308 -21 q 206 -4 253 -21 q 125 43 160 13 q 71 115 90 74 q 51 207 51 157 q 88 328 51 276 q 192 410 125 381 q 347 439 258 439 q 440 430 396 439 q 525 404 485 421 l 525 450 q 507 535 525 499 q 456 593 489 572 q 375 614 422 614 q 285 588 325 614 q 225 514 244 561 l 78 547 q 138 653 94 608 q 244 722 182 697 q 378 747 306 747 q 502 725 446 747 q 599 663 558 703 q 661 567 639 622 q 683 443 683 511 l 683 0 l 538 0 l 532 96 q 444 11 503 43 q 308 -21 386 -21 m 213 214 q 229 159 213 183 q 276 121 246 135 q 346 107 306 107 q 438 129 397 107 q 501 190 478 151 q 525 276 525 228 l 525 293 q 451 317 489 308 q 372 326 413 326 q 256 296 300 326 q 213 214 213 265 m 138 835 l 317 1033 l 446 1033 l 625 835 l 479 835 l 381 933 l 279 835 l 138 835 z "},"ê":{"ha":807,"x_min":54,"x_max":757,"o":"m 424 -21 q 276 8 343 -21 q 158 88 208 36 q 81 209 108 139 q 54 364 54 279 q 81 515 54 446 q 156 637 108 585 q 269 718 204 689 q 411 747 335 747 q 551 720 488 747 q 660 643 614 693 q 732 524 707 593 q 757 372 757 456 l 757 325 l 219 325 q 253 215 226 261 q 324 143 281 168 q 424 118 367 118 q 601 219 538 118 l 742 165 q 669 66 717 108 q 558 1 621 24 q 424 -21 494 -21 m 411 618 q 324 596 363 618 q 260 533 286 574 q 224 439 233 493 l 590 439 q 558 533 582 493 q 497 596 535 574 q 411 618 458 618 m 168 835 l 347 1033 l 476 1033 l 656 835 l 510 835 l 411 933 l 310 835 l 168 835 z "},"î":{"ha":332,"x_min":-79,"x_max":408,"o":"m 86 0 l 86 726 l 246 726 l 246 0 l 86 0 m -79 835 l 100 1033 l 229 1033 l 408 835 l 263 835 l 164 933 l 63 835 l -79 835 z "},"ô":{"ha":853,"x_min":54,"x_max":799,"o":"m 424 -21 q 277 8 344 -21 q 160 88 210 36 q 82 210 110 140 q 54 364 54 281 q 82 516 54 446 q 160 638 110 586 q 280 719 211 690 q 429 747 349 747 q 576 719 508 747 q 693 638 643 690 q 771 517 743 586 q 799 364 799 447 q 771 210 799 281 q 692 88 743 140 q 573 8 642 36 q 424 -21 504 -21 m 426 124 q 533 155 486 124 q 608 240 581 186 q 635 364 635 294 q 608 487 635 433 q 533 572 581 540 q 426 603 486 603 q 319 572 367 603 q 245 487 272 540 q 218 364 218 433 q 245 240 218 294 q 319 155 272 186 q 426 124 367 124 m 183 835 l 363 1033 l 492 1033 l 671 835 l 525 835 l 426 933 l 325 835 l 183 835 z "},"û":{"ha":814,"x_min":86,"x_max":728,"o":"m 406 -21 q 237 21 308 -21 q 126 140 165 63 q 86 321 86 217 l 86 726 l 246 726 l 246 318 q 289 176 246 228 q 407 124 332 124 q 525 176 482 124 q 568 318 568 228 l 568 726 l 728 726 l 728 321 q 688 141 728 218 q 576 22 649 64 q 406 -21 504 -21 m 163 835 l 342 1033 l 471 1033 l 650 835 l 504 835 l 406 933 l 304 835 l 163 835 z "},"ŵ":{"ha":1144,"x_min":19,"x_max":1125,"o":"m 261 0 l 19 726 l 186 726 l 340 196 l 503 726 l 646 726 l 807 196 l 964 726 l 1125 726 l 882 0 l 732 0 l 572 528 l 411 0 l 261 0 m 328 835 l 507 1033 l 636 1033 l 815 835 l 669 835 l 571 933 l 469 835 l 328 835 z "},"ŷ":{"ha":757,"x_min":19,"x_max":738,"o":"m 183 -289 q 119 -282 149 -289 q 61 -260 89 -275 l 96 -133 q 131 -145 111 -140 q 168 -150 150 -150 q 241 -126 210 -150 q 293 -50 272 -103 l 315 7 l 19 726 l 194 726 l 390 183 l 568 726 l 738 726 l 429 -87 q 328 -240 389 -192 q 183 -289 268 -289 m 135 835 l 314 1033 l 443 1033 l 622 835 l 476 835 l 378 933 l 276 835 l 135 835 z "},"ã":{"ha":769,"x_min":51,"x_max":683,"o":"m 308 -21 q 206 -4 253 -21 q 125 43 160 13 q 71 115 90 74 q 51 207 51 157 q 88 328 51 276 q 192 410 125 381 q 347 439 258 439 q 440 430 396 439 q 525 404 485 421 l 525 450 q 507 535 525 499 q 456 593 489 572 q 375 614 422 614 q 285 588 325 614 q 225 514 244 561 l 78 547 q 138 653 94 608 q 244 722 182 697 q 378 747 306 747 q 502 725 446 747 q 599 663 558 703 q 661 567 639 622 q 683 443 683 511 l 683 0 l 538 0 l 532 96 q 444 11 503 43 q 308 -21 386 -21 m 213 214 q 229 159 213 183 q 276 121 246 135 q 346 107 306 107 q 438 129 397 107 q 501 190 478 151 q 525 276 525 228 l 525 293 q 451 317 489 308 q 372 326 413 326 q 256 296 300 326 q 213 214 213 265 m 471 829 q 417 840 440 829 q 374 864 393 850 q 339 888 356 878 q 306 899 322 899 q 275 883 288 899 q 260 836 263 867 l 149 836 q 196 973 157 925 q 292 1021 235 1021 q 346 1010 322 1021 q 388 986 369 1000 q 424 962 407 972 q 457 951 440 951 q 488 967 475 951 q 503 1014 500 983 l 614 1014 q 567 877 606 925 q 471 829 528 829 z "},"ĩ":{"ha":332,"x_min":-68,"x_max":397,"o":"m 86 0 l 86 726 l 246 726 l 246 0 l 86 0 m 254 829 q 200 840 224 829 q 158 864 176 850 q 122 888 139 878 q 89 899 106 899 q 58 883 71 899 q 43 836 46 867 l -68 836 q -21 973 -60 925 q 75 1021 18 1021 q 129 1010 106 1021 q 172 986 153 1000 q 207 962 190 972 q 240 951 224 951 q 271 967 258 951 q 286 1014 283 983 l 397 1014 q 350 877 389 925 q 254 829 311 829 z "},"ñ":{"ha":815,"x_min":86,"x_max":729,"o":"m 86 0 l 86 726 l 232 726 l 238 626 q 327 715 269 682 q 460 747 385 747 q 602 708 542 747 q 696 599 663 669 q 729 432 729 528 l 729 0 l 569 0 l 569 414 q 530 553 569 503 q 419 603 490 603 q 330 579 369 603 q 268 515 290 556 q 246 422 246 475 l 246 0 l 86 0 m 497 829 q 443 840 467 829 q 401 864 419 850 q 365 888 382 878 q 332 899 349 899 q 301 883 314 899 q 286 836 289 867 l 175 836 q 222 973 183 925 q 318 1021 261 1021 q 372 1010 349 1021 q 415 986 396 1000 q 450 962 433 972 q 483 951 467 951 q 514 967 501 951 q 529 1014 526 983 l 640 1014 q 593 877 632 925 q 497 829 554 829 z "},"õ":{"ha":853,"x_min":54,"x_max":799,"o":"m 424 -21 q 277 8 344 -21 q 160 88 210 36 q 82 210 110 140 q 54 364 54 281 q 82 516 54 446 q 160 638 110 586 q 280 719 211 690 q 429 747 349 747 q 576 719 508 747 q 693 638 643 690 q 771 517 743 586 q 799 364 799 447 q 771 210 799 281 q 692 88 743 140 q 573 8 642 36 q 424 -21 504 -21 m 426 124 q 533 155 486 124 q 608 240 581 186 q 635 364 635 294 q 608 487 635 433 q 533 572 581 540 q 426 603 486 603 q 319 572 367 603 q 245 487 272 540 q 218 364 218 433 q 245 240 218 294 q 319 155 272 186 q 426 124 367 124 m 517 829 q 463 840 486 829 q 420 864 439 850 q 385 888 401 878 q 351 899 368 899 q 321 883 333 899 q 306 836 308 867 l 194 836 q 242 973 203 925 q 338 1021 281 1021 q 392 1010 368 1021 q 434 986 415 1000 q 469 962 453 972 q 503 951 486 951 q 533 967 521 951 q 549 1014 546 983 l 660 1014 q 613 877 651 925 q 517 829 574 829 z "},"ũ":{"ha":814,"x_min":86,"x_max":728,"o":"m 406 -21 q 237 21 308 -21 q 126 140 165 63 q 86 321 86 217 l 86 726 l 246 726 l 246 318 q 289 176 246 228 q 407 124 332 124 q 525 176 482 124 q 568 318 568 228 l 568 726 l 728 726 l 728 321 q 688 141 728 218 q 576 22 649 64 q 406 -21 504 -21 m 496 829 q 442 840 465 829 q 399 864 418 850 q 364 888 381 878 q 331 899 347 899 q 300 883 313 899 q 285 836 288 867 l 174 836 q 221 973 182 925 q 317 1021 260 1021 q 371 1010 347 1021 q 413 986 394 1000 q 449 962 432 972 q 482 951 465 951 q 513 967 500 951 q 528 1014 525 983 l 639 1014 q 592 877 631 925 q 496 829 553 829 z "},"̌":{"ha":0,"x_min":-243,"x_max":244,"o":"m -64 835 l -243 1033 l -97 1033 l 1 935 l 103 1033 l 244 1033 l 65 835 l -64 835 z "},"ˇ":{"ha":815,"x_min":164,"x_max":651,"o":"m 343 835 l 164 1033 l 310 1033 l 408 935 l 510 1033 l 651 1033 l 472 835 l 343 835 z "},"̕":{"ha":0,"x_min":97,"x_max":263,"o":"m 97 789 l 121 1033 l 263 1033 l 200 789 l 97 789 z "},"̄":{"ha":0,"x_min":-212,"x_max":213,"o":"m -212 847 l -212 963 l 213 963 l 213 847 l -212 847 z "},"ˉ":{"ha":815,"x_min":194,"x_max":619,"o":"m 194 847 l 194 963 l 619 963 l 619 847 l 194 847 z "},"¯":{"ha":815,"x_min":194,"x_max":619,"o":"m 194 847 l 194 963 l 619 963 l 619 847 l 194 847 z "},"Č":{"ha":1018,"x_min":64,"x_max":968,"o":"m 546 -28 q 353 10 442 -28 q 201 118 265 49 q 100 281 136 188 q 64 486 64 375 q 88 655 64 575 q 155 801 111 735 q 258 915 199 867 q 391 988 318 963 q 546 1014 464 1014 q 724 980 642 1014 q 867 884 807 946 q 958 738 928 822 l 796 692 q 694 815 760 771 q 544 858 628 858 q 424 831 479 858 q 326 753 368 803 q 262 635 285 703 q 239 488 239 567 q 262 342 239 408 q 326 228 285 276 q 423 154 367 181 q 547 128 479 128 q 699 171 633 128 q 806 294 765 214 l 968 249 q 875 101 936 164 q 729 6 814 39 q 546 -28 644 -28 m 467 1092 l 265 1269 l 435 1269 l 546 1183 l 658 1269 l 824 1269 l 622 1092 l 467 1092 z "},"Ď":{"ha":1043,"x_min":97,"x_max":979,"o":"m 97 0 l 97 986 l 457 986 q 670 951 574 986 q 835 851 767 915 q 942 696 904 786 q 979 494 979 606 q 942 292 979 383 q 835 136 904 201 q 669 35 765 71 q 457 0 574 0 l 97 0 m 267 151 l 449 151 q 638 193 558 151 q 760 312 717 235 q 804 493 804 389 q 760 674 804 597 q 637 793 717 751 q 449 835 557 835 l 267 835 l 267 151 m 407 1092 l 206 1269 l 375 1269 l 486 1183 l 599 1269 l 764 1269 l 563 1092 l 407 1092 z "},"Ě":{"ha":789,"x_min":97,"x_max":708,"o":"m 97 0 l 97 986 l 694 986 l 694 840 l 264 840 l 264 582 l 653 582 l 653 436 l 264 436 l 264 146 l 708 146 l 708 0 l 97 0 m 318 1092 l 117 1269 l 286 1269 l 397 1183 l 510 1269 l 675 1269 l 474 1092 l 318 1092 z "},"Ľ":{"ha":744,"x_min":97,"x_max":685,"o":"m 97 0 l 97 986 l 267 986 l 267 151 l 685 151 l 685 0 l 97 0 m 364 789 l 388 1033 l 529 1033 l 467 789 l 364 789 z "},"Ň":{"ha":1001,"x_min":97,"x_max":904,"o":"m 97 0 l 97 986 l 247 986 l 739 281 l 739 986 l 904 986 l 904 0 l 754 0 l 263 708 l 263 0 l 97 0 m 424 1092 l 222 1269 l 392 1269 l 503 1183 l 615 1269 l 781 1269 l 579 1092 l 424 1092 z "},"Ř":{"ha":858,"x_min":97,"x_max":826,"o":"m 97 0 l 97 986 l 394 986 q 598 949 513 986 q 729 842 683 911 q 775 676 775 772 q 753 565 775 617 q 692 471 732 513 q 597 403 653 429 l 826 0 l 639 0 l 449 358 q 415 356 433 357 q 376 356 396 356 q 264 365 328 356 l 264 0 l 97 0 m 264 839 l 264 513 q 324 505 293 507 q 386 503 356 503 q 546 547 489 503 q 603 671 603 592 q 547 794 603 750 q 392 839 492 839 l 264 839 m 310 1092 l 108 1269 l 278 1269 l 389 1183 l 501 1269 l 667 1269 l 465 1092 l 310 1092 z "},"Š":{"ha":783,"x_min":40,"x_max":735,"o":"m 388 -21 q 233 9 304 -21 q 111 93 161 39 q 40 222 61 147 l 200 261 q 271 163 222 197 q 389 128 319 128 q 478 147 439 128 q 540 200 517 167 q 563 276 563 233 q 524 365 563 329 q 404 418 486 400 l 353 429 q 135 535 206 461 q 65 714 65 608 q 90 831 65 778 q 160 924 115 885 q 264 985 204 964 q 393 1007 324 1007 q 539 978 472 1007 q 653 895 606 949 q 719 768 700 842 l 561 729 q 494 825 539 792 q 389 858 450 858 q 310 841 344 858 q 256 794 276 824 q 236 726 236 764 q 276 640 236 672 q 400 589 317 608 l 451 578 q 735 290 735 514 q 709 165 735 222 q 636 66 683 107 q 526 2 589 25 q 388 -21 463 -21 m 314 1092 l 113 1269 l 282 1269 l 393 1183 l 506 1269 l 671 1269 l 469 1092 l 314 1092 z "},"Ť":{"ha":867,"x_min":61,"x_max":806,"o":"m 349 0 l 349 835 l 61 835 l 61 986 l 806 986 l 806 835 l 518 835 l 518 0 l 349 0 m 356 1092 l 154 1269 l 324 1269 l 435 1183 l 547 1269 l 713 1269 l 511 1092 l 356 1092 z "},"Ž":{"ha":875,"x_min":57,"x_max":821,"o":"m 57 0 l 57 122 l 581 842 l 78 842 l 78 986 l 790 986 l 790 864 l 267 144 l 821 144 l 821 0 l 57 0 m 356 1092 l 154 1269 l 324 1269 l 435 1183 l 547 1269 l 713 1269 l 511 1092 l 356 1092 z "},"Ā":{"ha":1021,"x_min":26,"x_max":994,"o":"m 26 0 l 419 986 l 600 986 l 994 0 l 819 0 l 726 244 l 288 244 l 194 0 l 26 0 m 343 389 l 671 389 l 507 815 l 343 389 m 267 1099 l 267 1221 l 753 1221 l 753 1099 l 267 1099 z "},"Ē":{"ha":789,"x_min":97,"x_max":708,"o":"m 97 0 l 97 986 l 694 986 l 694 840 l 264 840 l 264 582 l 653 582 l 653 436 l 264 436 l 264 146 l 708 146 l 708 0 l 97 0 m 153 1099 l 153 1221 l 639 1221 l 639 1099 l 153 1099 z "},"Ī":{"ha":364,"x_min":-61,"x_max":425,"o":"m 97 0 l 97 986 l 267 986 l 267 0 l 97 0 m -61 1099 l -61 1221 l 425 1221 l 425 1099 l -61 1099 z "},"Ū":{"ha":994,"x_min":86,"x_max":908,"o":"m 494 -28 q 325 1 400 -28 q 197 86 250 31 q 115 219 143 142 q 86 392 86 296 l 86 986 l 256 986 l 256 399 q 285 255 256 315 q 369 161 315 194 q 497 128 424 128 q 625 161 571 128 q 709 255 679 194 q 739 399 739 315 l 739 986 l 908 986 l 908 392 q 879 219 908 296 q 795 87 850 142 q 665 2 740 32 q 494 -28 589 -28 m 254 1099 l 254 1221 l 740 1221 l 740 1099 l 254 1099 z "},"č":{"ha":779,"x_min":54,"x_max":733,"o":"m 414 -21 q 271 8 336 -21 q 157 87 206 36 q 81 207 108 138 q 54 358 54 276 q 82 511 54 440 q 158 635 110 582 q 273 717 207 688 q 417 747 339 747 q 554 720 492 747 q 662 644 617 693 q 726 528 707 594 l 575 492 q 509 574 551 544 q 414 603 467 603 q 314 571 358 603 q 244 484 269 539 q 218 360 218 429 q 243 238 218 292 q 312 154 268 185 q 414 124 356 124 q 515 152 469 124 q 583 233 561 181 l 733 199 q 667 83 714 132 q 554 6 619 33 q 414 -21 489 -21 m 353 835 l 174 1033 l 319 1033 l 418 935 l 519 1033 l 661 1033 l 482 835 l 353 835 z "},"ď":{"ha":878,"x_min":54,"x_max":1054,"o":"m 393 -21 q 259 8 321 -21 q 151 89 197 38 q 80 210 106 140 q 54 360 54 279 q 81 513 54 442 q 154 636 107 583 q 265 718 201 689 q 401 747 328 747 q 533 717 474 747 q 632 631 593 686 l 632 1033 l 792 1033 l 792 0 l 646 0 l 639 117 q 536 16 600 53 q 393 -21 472 -21 m 426 124 q 533 155 486 124 q 608 240 581 186 q 635 363 635 294 q 608 486 635 432 q 533 572 581 540 q 426 603 486 603 q 319 572 367 603 q 245 486 272 540 q 218 363 218 432 q 245 240 218 294 q 319 155 272 186 q 426 124 367 124 m 889 789 l 913 1033 l 1054 1033 l 992 789 l 889 789 z "},"ě":{"ha":807,"x_min":54,"x_max":757,"o":"m 424 -21 q 276 8 343 -21 q 158 88 208 36 q 81 209 108 139 q 54 364 54 279 q 81 515 54 446 q 156 637 108 585 q 269 718 204 689 q 411 747 335 747 q 551 720 488 747 q 660 643 614 693 q 732 524 707 593 q 757 372 757 456 l 757 325 l 219 325 q 253 215 226 261 q 324 143 281 168 q 424 118 367 118 q 601 219 538 118 l 742 165 q 669 66 717 108 q 558 1 621 24 q 424 -21 494 -21 m 411 618 q 324 596 363 618 q 260 533 286 574 q 224 439 233 493 l 590 439 q 558 533 582 493 q 497 596 535 574 q 411 618 458 618 m 347 835 l 168 1033 l 314 1033 l 413 935 l 514 1033 l 656 1033 l 476 835 l 347 835 z "},"ľ":{"ha":332,"x_min":86,"x_max":508,"o":"m 86 0 l 86 1033 l 246 1033 l 246 0 l 86 0 m 343 789 l 367 1033 l 508 1033 l 446 789 l 343 789 z "},"ň":{"ha":815,"x_min":86,"x_max":729,"o":"m 86 0 l 86 726 l 232 726 l 238 626 q 327 715 269 682 q 460 747 385 747 q 602 708 542 747 q 696 599 663 669 q 729 432 729 528 l 729 0 l 569 0 l 569 414 q 530 553 569 503 q 419 603 490 603 q 330 579 369 603 q 268 515 290 556 q 246 422 246 475 l 246 0 l 86 0 m 343 835 l 164 1033 l 310 1033 l 408 935 l 510 1033 l 651 1033 l 472 835 l 343 835 z "},"ř":{"ha":539,"x_min":54,"x_max":542,"o":"m 86 0 l 86 726 l 232 726 l 239 607 q 316 702 267 668 q 432 736 365 736 q 472 733 453 736 q 507 724 492 731 l 489 568 q 457 576 474 574 q 424 578 440 578 q 293 522 340 578 q 246 368 246 467 l 246 0 l 86 0 m 233 835 l 54 1033 l 200 1033 l 299 935 l 400 1033 l 542 1033 l 363 835 l 233 835 z "},"š":{"ha":665,"x_min":40,"x_max":619,"o":"m 335 -21 q 203 3 264 -21 q 101 70 143 26 q 40 174 58 114 l 185 211 q 243 138 203 164 q 336 111 283 111 q 425 137 390 111 q 460 203 460 163 q 432 261 460 238 q 342 296 404 285 l 296 304 q 120 379 179 325 q 61 518 61 433 q 96 638 61 586 q 192 718 131 689 q 332 747 253 747 q 457 724 400 747 q 553 657 514 700 q 608 556 592 614 l 465 521 q 413 591 449 565 q 331 617 378 617 q 250 592 282 617 q 218 531 218 568 q 247 478 218 499 q 343 444 275 457 l 389 436 q 560 360 500 417 q 619 218 619 303 q 599 123 619 167 q 540 47 578 79 q 449 -3 501 14 q 335 -21 397 -21 m 267 835 l 88 1033 l 233 1033 l 332 935 l 433 1033 l 575 1033 l 396 835 l 267 835 z "},"ť":{"ha":592,"x_min":24,"x_max":581,"o":"m 386 -21 q 214 42 276 -21 q 151 224 151 106 l 151 597 l 24 597 l 24 726 l 151 726 l 151 972 l 311 972 l 311 726 l 522 726 l 522 597 l 311 597 l 311 240 q 335 151 311 182 q 407 119 360 119 q 461 127 432 119 q 515 149 490 135 l 551 28 q 477 -8 519 6 q 386 -21 435 -21 m 419 821 l 439 1033 l 581 1033 l 525 821 l 419 821 z "},"ž":{"ha":713,"x_min":57,"x_max":656,"o":"m 57 0 l 57 106 l 435 597 l 67 597 l 67 726 l 632 726 l 632 621 l 254 129 l 656 129 l 656 0 l 57 0 m 285 835 l 106 1033 l 251 1033 l 350 935 l 451 1033 l 593 1033 l 414 835 l 285 835 z "},"ā":{"ha":769,"x_min":51,"x_max":683,"o":"m 308 -21 q 206 -4 253 -21 q 125 43 160 13 q 71 115 90 74 q 51 207 51 157 q 88 328 51 276 q 192 410 125 381 q 347 439 258 439 q 440 430 396 439 q 525 404 485 421 l 525 450 q 507 535 525 499 q 456 593 489 572 q 375 614 422 614 q 285 588 325 614 q 225 514 244 561 l 78 547 q 138 653 94 608 q 244 722 182 697 q 378 747 306 747 q 502 725 446 747 q 599 663 558 703 q 661 567 639 622 q 683 443 683 511 l 683 0 l 538 0 l 532 96 q 444 11 503 43 q 308 -21 386 -21 m 213 214 q 229 159 213 183 q 276 121 246 135 q 346 107 306 107 q 438 129 397 107 q 501 190 478 151 q 525 276 525 228 l 525 293 q 451 317 489 308 q 372 326 413 326 q 256 296 300 326 q 213 214 213 265 m 168 847 l 168 963 l 593 963 l 593 847 l 168 847 z "},"ē":{"ha":807,"x_min":54,"x_max":757,"o":"m 424 -21 q 276 8 343 -21 q 158 88 208 36 q 81 209 108 139 q 54 364 54 279 q 81 515 54 446 q 156 637 108 585 q 269 718 204 689 q 411 747 335 747 q 551 720 488 747 q 660 643 614 693 q 732 524 707 593 q 757 372 757 456 l 757 325 l 219 325 q 253 215 226 261 q 324 143 281 168 q 424 118 367 118 q 601 219 538 118 l 742 165 q 669 66 717 108 q 558 1 621 24 q 424 -21 494 -21 m 411 618 q 324 596 363 618 q 260 533 286 574 q 224 439 233 493 l 590 439 q 558 533 582 493 q 497 596 535 574 q 411 618 458 618 m 199 847 l 199 963 l 624 963 l 624 847 l 199 847 z "},"ī":{"ha":332,"x_min":-49,"x_max":376,"o":"m 86 0 l 86 726 l 246 726 l 246 0 l 86 0 m -49 847 l -49 963 l 376 963 l 376 847 l -49 847 z "},"ū":{"ha":814,"x_min":86,"x_max":728,"o":"m 406 -21 q 237 21 308 -21 q 126 140 165 63 q 86 321 86 217 l 86 726 l 246 726 l 246 318 q 289 176 246 228 q 407 124 332 124 q 525 176 482 124 q 568 318 568 228 l 568 726 l 728 726 l 728 321 q 688 141 728 218 q 576 22 649 64 q 406 -21 504 -21 m 193 847 l 193 963 l 618 963 l 618 847 l 193 847 z "},"̈":{"ha":0,"x_min":-231,"x_max":231,"o":"m -140 839 q -185 851 -165 839 q -218 884 -206 864 q -231 929 -231 904 q -218 974 -231 954 q -185 1007 -206 994 q -140 1019 -165 1019 q -94 1007 -115 1019 q -62 974 -74 994 q -50 929 -50 954 q -62 884 -50 904 q -94 851 -74 864 q -140 839 -115 839 m 140 839 q 94 851 115 839 q 62 884 74 864 q 50 929 50 904 q 62 974 50 954 q 94 1007 74 994 q 140 1019 115 1019 q 185 1007 165 1019 q 218 974 206 994 q 231 929 231 954 q 218 884 231 904 q 185 851 206 864 q 140 839 165 839 z "},"¨":{"ha":815,"x_min":176,"x_max":638,"o":"m 267 839 q 222 851 242 839 q 189 884 201 864 q 176 929 176 904 q 189 974 176 954 q 222 1007 201 994 q 267 1019 242 1019 q 313 1007 292 1019 q 345 974 333 994 q 357 929 357 954 q 345 884 357 904 q 313 851 333 864 q 267 839 292 839 m 547 839 q 501 851 522 839 q 469 884 481 864 q 457 929 457 904 q 469 974 457 954 q 501 1007 481 994 q 547 1019 522 1019 q 592 1007 572 1019 q 625 974 613 994 q 638 929 638 954 q 625 884 638 904 q 592 851 613 864 q 547 839 572 839 z "},"̆":{"ha":0,"x_min":-226,"x_max":226,"o":"m 0 833 q -108 856 -60 833 q -186 920 -156 879 q -226 1018 -217 961 l -99 1018 q -63 958 -89 978 q 0 939 -37 939 q 63 958 38 939 q 99 1018 89 978 l 226 1018 q 186 920 217 961 q 108 856 156 879 q 0 833 60 833 z "},"˘":{"ha":815,"x_min":181,"x_max":633,"o":"m 407 833 q 299 856 347 833 q 221 920 251 879 q 181 1018 190 961 l 308 1018 q 344 958 318 978 q 407 939 369 939 q 470 958 444 939 q 506 1018 496 978 l 633 1018 q 593 920 624 961 q 515 856 563 879 q 407 833 467 833 z "},"Ä":{"ha":1021,"x_min":26,"x_max":994,"o":"m 26 0 l 419 986 l 600 986 l 994 0 l 819 0 l 726 244 l 288 244 l 194 0 l 26 0 m 343 389 l 671 389 l 507 815 l 343 389 m 349 1082 q 299 1094 321 1082 q 265 1128 278 1107 q 253 1176 253 1150 q 265 1224 253 1203 q 299 1258 278 1246 q 349 1271 321 1271 q 398 1258 376 1271 q 432 1224 419 1246 q 444 1176 444 1203 q 432 1128 444 1150 q 398 1094 419 1107 q 349 1082 376 1082 m 672 1082 q 624 1094 646 1082 q 589 1128 601 1107 q 576 1176 576 1150 q 589 1224 576 1203 q 624 1258 601 1246 q 672 1271 646 1271 q 721 1258 699 1271 q 756 1224 743 1246 q 768 1176 768 1203 q 756 1128 768 1150 q 721 1094 743 1107 q 672 1082 699 1082 z "},"Ë":{"ha":789,"x_min":97,"x_max":708,"o":"m 97 0 l 97 986 l 694 986 l 694 840 l 264 840 l 264 582 l 653 582 l 653 436 l 264 436 l 264 146 l 708 146 l 708 0 l 97 0 m 235 1082 q 185 1094 207 1082 q 151 1128 164 1107 q 139 1176 139 1150 q 151 1224 139 1203 q 185 1258 164 1246 q 235 1271 207 1271 q 284 1258 263 1271 q 318 1224 306 1246 q 331 1176 331 1203 q 318 1128 331 1150 q 284 1094 306 1107 q 235 1082 263 1082 m 558 1082 q 510 1094 532 1082 q 475 1128 488 1107 q 463 1176 463 1150 q 475 1224 463 1203 q 510 1258 488 1246 q 558 1271 532 1271 q 607 1258 585 1271 q 642 1224 629 1246 q 654 1176 654 1203 q 642 1128 654 1150 q 607 1094 629 1107 q 558 1082 585 1082 z "},"Ï":{"ha":364,"x_min":-75,"x_max":440,"o":"m 97 0 l 97 986 l 267 986 l 267 0 l 97 0 m 21 1082 q -28 1094 -7 1082 q -62 1128 -50 1107 q -75 1176 -75 1150 q -62 1224 -75 1203 q -28 1258 -50 1246 q 21 1271 -7 1271 q 70 1258 49 1271 q 104 1224 92 1246 q 117 1176 117 1203 q 104 1128 117 1150 q 70 1094 92 1107 q 21 1082 49 1082 m 344 1082 q 296 1094 318 1082 q 261 1128 274 1107 q 249 1176 249 1150 q 261 1224 249 1203 q 296 1258 274 1246 q 344 1271 318 1271 q 393 1258 371 1271 q 428 1224 415 1246 q 440 1176 440 1203 q 428 1128 440 1150 q 393 1094 415 1107 q 344 1082 371 1082 z "},"Ö":{"ha":1125,"x_min":64,"x_max":1061,"o":"m 563 -28 q 401 -3 476 -28 q 263 69 325 22 q 157 179 201 115 q 88 322 113 243 q 64 492 64 401 q 88 661 64 582 q 157 805 113 740 q 264 917 201 869 q 402 989 326 964 q 564 1014 478 1014 q 726 989 650 1014 q 863 917 801 964 q 969 807 925 871 q 1038 664 1014 743 q 1061 494 1061 585 q 1037 325 1061 404 q 968 181 1013 246 q 862 69 924 117 q 724 -3 800 22 q 563 -28 649 -28 m 563 128 q 692 155 633 128 q 794 231 751 182 q 862 347 838 279 q 886 493 886 414 q 862 640 886 572 q 794 756 838 707 q 692 831 751 804 q 563 858 633 858 q 433 831 492 858 q 331 756 374 804 q 263 640 288 707 q 239 493 239 572 q 263 347 239 414 q 331 231 288 279 q 433 155 374 182 q 563 128 492 128 m 401 1082 q 352 1094 374 1082 q 318 1128 331 1107 q 306 1176 306 1150 q 318 1224 306 1203 q 352 1258 331 1246 q 401 1271 374 1271 q 451 1258 429 1271 q 485 1224 472 1246 q 497 1176 497 1203 q 485 1128 497 1150 q 451 1094 472 1107 q 401 1082 429 1082 m 725 1082 q 676 1094 699 1082 q 642 1128 654 1107 q 629 1176 629 1150 q 642 1224 629 1203 q 676 1258 654 1246 q 725 1271 699 1271 q 774 1258 751 1271 q 808 1224 796 1246 q 821 1176 821 1203 q 808 1128 821 1150 q 774 1094 796 1107 q 725 1082 751 1082 z "},"Ü":{"ha":994,"x_min":86,"x_max":908,"o":"m 494 -28 q 325 1 400 -28 q 197 86 250 31 q 115 219 143 142 q 86 392 86 296 l 86 986 l 256 986 l 256 399 q 285 255 256 315 q 369 161 315 194 q 497 128 424 128 q 625 161 571 128 q 709 255 679 194 q 739 399 739 315 l 739 986 l 908 986 l 908 392 q 879 219 908 296 q 795 87 850 142 q 665 2 740 32 q 494 -28 589 -28 m 336 1082 q 287 1094 308 1082 q 253 1128 265 1107 q 240 1176 240 1150 q 253 1224 240 1203 q 287 1258 265 1246 q 336 1271 308 1271 q 385 1258 364 1271 q 419 1224 407 1246 q 432 1176 432 1203 q 419 1128 432 1150 q 385 1094 407 1107 q 336 1082 364 1082 m 660 1082 q 611 1094 633 1082 q 576 1128 589 1107 q 564 1176 564 1150 q 576 1224 564 1203 q 611 1258 589 1246 q 660 1271 633 1271 q 708 1258 686 1271 q 743 1224 731 1246 q 756 1176 756 1203 q 743 1128 756 1150 q 708 1094 731 1107 q 660 1082 686 1082 z "},"Ẅ":{"ha":1429,"x_min":43,"x_max":1386,"o":"m 1386 986 l 1094 0 l 922 0 l 715 750 l 508 0 l 335 0 l 43 986 l 224 986 l 426 225 l 635 986 l 799 986 l 1008 225 l 1210 986 l 1386 986 m 553 1082 q 503 1094 525 1082 q 469 1128 482 1107 q 457 1176 457 1150 q 469 1224 457 1203 q 503 1258 482 1246 q 553 1271 525 1271 q 602 1258 581 1271 q 636 1224 624 1246 q 649 1176 649 1203 q 636 1128 649 1150 q 602 1094 624 1107 q 553 1082 581 1082 m 876 1082 q 828 1094 850 1082 q 793 1128 806 1107 q 781 1176 781 1150 q 793 1224 781 1203 q 828 1258 806 1246 q 876 1271 850 1271 q 925 1258 903 1271 q 960 1224 947 1246 q 972 1176 972 1203 q 960 1128 972 1150 q 925 1094 947 1107 q 876 1082 903 1082 z "},"Ÿ":{"ha":900,"x_min":19,"x_max":881,"o":"m 365 0 l 365 389 l 19 986 l 211 986 l 453 544 l 693 986 l 881 986 l 535 389 l 535 0 l 365 0 m 288 1082 q 238 1094 260 1082 q 204 1128 217 1107 q 192 1176 192 1150 q 204 1224 192 1203 q 238 1258 217 1246 q 288 1271 260 1271 q 337 1258 315 1271 q 371 1224 358 1246 q 383 1176 383 1203 q 371 1128 383 1150 q 337 1094 358 1107 q 288 1082 315 1082 m 611 1082 q 563 1094 585 1082 q 528 1128 540 1107 q 515 1176 515 1150 q 528 1224 515 1203 q 563 1258 540 1246 q 611 1271 585 1271 q 660 1258 638 1271 q 694 1224 682 1246 q 707 1176 707 1203 q 694 1128 707 1150 q 660 1094 682 1107 q 611 1082 638 1082 z "},"Ă":{"ha":1021,"x_min":26,"x_max":994,"o":"m 26 0 l 419 986 l 600 986 l 994 0 l 819 0 l 726 244 l 288 244 l 194 0 l 26 0 m 343 389 l 671 389 l 507 815 l 343 389 m 510 1085 q 395 1108 446 1085 q 310 1174 344 1132 q 267 1276 276 1217 l 399 1276 q 439 1214 410 1236 q 510 1192 468 1192 q 581 1214 553 1192 q 621 1276 610 1236 l 753 1276 q 709 1174 743 1217 q 624 1108 675 1132 q 510 1085 574 1085 z "},"Ğ":{"ha":1092,"x_min":64,"x_max":1031,"o":"m 561 -28 q 399 -3 475 -28 q 263 69 324 22 q 157 179 201 115 q 88 322 113 243 q 64 490 64 400 q 88 660 64 581 q 158 804 113 739 q 265 916 203 869 q 402 988 326 963 q 564 1014 478 1014 q 738 983 657 1014 q 882 896 819 953 q 981 761 944 839 l 819 707 q 713 819 779 779 q 564 858 647 858 q 435 831 494 858 q 332 753 376 803 q 263 638 288 704 q 239 493 239 571 q 263 347 239 414 q 332 231 288 279 q 437 155 376 182 q 568 128 497 128 q 713 160 650 128 q 814 251 776 193 q 857 388 851 310 l 588 388 l 588 529 l 1031 529 l 1031 436 q 997 249 1031 333 q 899 102 963 164 q 751 6 836 40 q 561 -28 665 -28 m 572 1085 q 458 1108 508 1085 q 373 1174 407 1132 q 329 1276 339 1217 l 461 1276 q 501 1214 472 1236 q 572 1192 531 1192 q 644 1214 615 1192 q 683 1276 672 1236 l 815 1276 q 772 1174 806 1217 q 687 1108 738 1132 q 572 1085 636 1085 z "},"ä":{"ha":769,"x_min":51,"x_max":683,"o":"m 308 -21 q 206 -4 253 -21 q 125 43 160 13 q 71 115 90 74 q 51 207 51 157 q 88 328 51 276 q 192 410 125 381 q 347 439 258 439 q 440 430 396 439 q 525 404 485 421 l 525 450 q 507 535 525 499 q 456 593 489 572 q 375 614 422 614 q 285 588 325 614 q 225 514 244 561 l 78 547 q 138 653 94 608 q 244 722 182 697 q 378 747 306 747 q 502 725 446 747 q 599 663 558 703 q 661 567 639 622 q 683 443 683 511 l 683 0 l 538 0 l 532 96 q 444 11 503 43 q 308 -21 386 -21 m 213 214 q 229 159 213 183 q 276 121 246 135 q 346 107 306 107 q 438 129 397 107 q 501 190 478 151 q 525 276 525 228 l 525 293 q 451 317 489 308 q 372 326 413 326 q 256 296 300 326 q 213 214 213 265 m 240 839 q 195 851 215 839 q 163 884 175 864 q 150 929 150 904 q 163 974 150 954 q 195 1007 175 994 q 240 1019 215 1019 q 286 1007 265 1019 q 319 974 307 994 q 331 929 331 954 q 319 884 331 904 q 286 851 307 864 q 240 839 265 839 m 521 839 q 475 851 496 839 q 442 884 454 864 q 431 929 431 904 q 442 974 431 954 q 475 1007 454 994 q 521 1019 496 1019 q 566 1007 546 1019 q 599 974 586 994 q 611 929 611 954 q 599 884 611 904 q 566 851 586 864 q 521 839 546 839 z "},"ë":{"ha":807,"x_min":54,"x_max":757,"o":"m 424 -21 q 276 8 343 -21 q 158 88 208 36 q 81 209 108 139 q 54 364 54 279 q 81 515 54 446 q 156 637 108 585 q 269 718 204 689 q 411 747 335 747 q 551 720 488 747 q 660 643 614 693 q 732 524 707 593 q 757 372 757 456 l 757 325 l 219 325 q 253 215 226 261 q 324 143 281 168 q 424 118 367 118 q 601 219 538 118 l 742 165 q 669 66 717 108 q 558 1 621 24 q 424 -21 494 -21 m 411 618 q 324 596 363 618 q 260 533 286 574 q 224 439 233 493 l 590 439 q 558 533 582 493 q 497 596 535 574 q 411 618 458 618 m 271 839 q 226 851 246 839 q 193 884 206 864 q 181 929 181 904 q 193 974 181 954 q 226 1007 206 994 q 271 1019 246 1019 q 317 1007 296 1019 q 349 974 338 994 q 361 929 361 954 q 349 884 361 904 q 317 851 338 864 q 271 839 296 839 m 551 839 q 506 851 526 839 q 473 884 485 864 q 461 929 461 904 q 473 974 461 954 q 506 1007 485 994 q 551 1019 526 1019 q 597 1007 576 1019 q 629 974 617 994 q 642 929 642 954 q 629 884 642 904 q 597 851 617 864 q 551 839 576 839 z "},"ï":{"ha":332,"x_min":-67,"x_max":394,"o":"m 86 0 l 86 726 l 246 726 l 246 0 l 86 0 m 24 839 q -22 851 -1 839 q -54 884 -42 864 q -67 929 -67 904 q -54 974 -67 954 q -22 1007 -42 994 q 24 1019 -1 1019 q 69 1007 49 1019 q 102 974 90 994 q 114 929 114 954 q 102 884 114 904 q 69 851 90 864 q 24 839 49 839 m 304 839 q 258 851 279 839 q 226 884 238 864 q 214 929 214 904 q 226 974 214 954 q 258 1007 238 994 q 304 1019 279 1019 q 349 1007 329 1019 q 382 974 369 994 q 394 929 394 954 q 382 884 394 904 q 349 851 369 864 q 304 839 329 839 z "},"ö":{"ha":853,"x_min":54,"x_max":799,"o":"m 424 -21 q 277 8 344 -21 q 160 88 210 36 q 82 210 110 140 q 54 364 54 281 q 82 516 54 446 q 160 638 110 586 q 280 719 211 690 q 429 747 349 747 q 576 719 508 747 q 693 638 643 690 q 771 517 743 586 q 799 364 799 447 q 771 210 799 281 q 692 88 743 140 q 573 8 642 36 q 424 -21 504 -21 m 426 124 q 533 155 486 124 q 608 240 581 186 q 635 364 635 294 q 608 487 635 433 q 533 572 581 540 q 426 603 486 603 q 319 572 367 603 q 245 487 272 540 q 218 364 218 433 q 245 240 218 294 q 319 155 272 186 q 426 124 367 124 m 286 839 q 241 851 261 839 q 208 884 221 864 q 196 929 196 904 q 208 974 196 954 q 241 1007 221 994 q 286 1019 261 1019 q 332 1007 311 1019 q 365 974 353 994 q 376 929 376 954 q 365 884 376 904 q 332 851 353 864 q 286 839 311 839 m 567 839 q 521 851 542 839 q 488 884 500 864 q 476 929 476 904 q 488 974 476 954 q 521 1007 500 994 q 567 1019 542 1019 q 612 1007 592 1019 q 644 974 632 994 q 657 929 657 954 q 644 884 657 904 q 612 851 632 864 q 567 839 592 839 z "},"ü":{"ha":814,"x_min":86,"x_max":728,"o":"m 406 -21 q 237 21 308 -21 q 126 140 165 63 q 86 321 86 217 l 86 726 l 246 726 l 246 318 q 289 176 246 228 q 407 124 332 124 q 525 176 482 124 q 568 318 568 228 l 568 726 l 728 726 l 728 321 q 688 141 728 218 q 576 22 649 64 q 406 -21 504 -21 m 265 839 q 220 851 240 839 q 188 884 200 864 q 175 929 175 904 q 188 974 175 954 q 220 1007 200 994 q 265 1019 240 1019 q 311 1007 290 1019 q 344 974 332 994 q 356 929 356 954 q 344 884 356 904 q 311 851 332 864 q 265 839 290 839 m 546 839 q 500 851 521 839 q 467 884 479 864 q 456 929 456 904 q 467 974 456 954 q 500 1007 479 994 q 546 1019 521 1019 q 591 1007 571 1019 q 624 974 611 994 q 636 929 636 954 q 624 884 636 904 q 591 851 611 864 q 546 839 571 839 z "},"ẅ":{"ha":1144,"x_min":19,"x_max":1125,"o":"m 261 0 l 19 726 l 186 726 l 340 196 l 503 726 l 646 726 l 807 196 l 964 726 l 1125 726 l 882 0 l 732 0 l 572 528 l 411 0 l 261 0 m 431 839 q 385 851 406 839 q 353 884 365 864 q 340 929 340 904 q 353 974 340 954 q 385 1007 365 994 q 431 1019 406 1019 q 476 1007 456 1019 q 509 974 497 994 q 521 929 521 954 q 509 884 521 904 q 476 851 497 864 q 431 839 456 839 m 711 839 q 665 851 686 839 q 633 884 644 864 q 621 929 621 904 q 633 974 621 954 q 665 1007 644 994 q 711 1019 686 1019 q 756 1007 736 1019 q 789 974 776 994 q 801 929 801 954 q 789 884 801 904 q 756 851 776 864 q 711 839 736 839 z "},"ÿ":{"ha":757,"x_min":19,"x_max":738,"o":"m 183 -289 q 119 -282 149 -289 q 61 -260 89 -275 l 96 -133 q 131 -145 111 -140 q 168 -150 150 -150 q 241 -126 210 -150 q 293 -50 272 -103 l 315 7 l 19 726 l 194 726 l 390 183 l 568 726 l 738 726 l 429 -87 q 328 -240 389 -192 q 183 -289 268 -289 m 238 839 q 192 851 213 839 q 160 884 172 864 q 147 929 147 904 q 160 974 147 954 q 192 1007 172 994 q 238 1019 213 1019 q 283 1007 263 1019 q 316 974 304 994 q 328 929 328 954 q 316 884 328 904 q 283 851 304 864 q 238 839 263 839 m 518 839 q 472 851 493 839 q 440 884 451 864 q 428 929 428 904 q 440 974 428 954 q 472 1007 451 994 q 518 1019 493 1019 q 563 1007 543 1019 q 596 974 583 994 q 608 929 608 954 q 596 884 608 904 q 563 851 583 864 q 518 839 543 839 z "},"ă":{"ha":769,"x_min":51,"x_max":683,"o":"m 308 -21 q 206 -4 253 -21 q 125 43 160 13 q 71 115 90 74 q 51 207 51 157 q 88 328 51 276 q 192 410 125 381 q 347 439 258 439 q 440 430 396 439 q 525 404 485 421 l 525 450 q 507 535 525 499 q 456 593 489 572 q 375 614 422 614 q 285 588 325 614 q 225 514 244 561 l 78 547 q 138 653 94 608 q 244 722 182 697 q 378 747 306 747 q 502 725 446 747 q 599 663 558 703 q 661 567 639 622 q 683 443 683 511 l 683 0 l 538 0 l 532 96 q 444 11 503 43 q 308 -21 386 -21 m 213 214 q 229 159 213 183 q 276 121 246 135 q 346 107 306 107 q 438 129 397 107 q 501 190 478 151 q 525 276 525 228 l 525 293 q 451 317 489 308 q 372 326 413 326 q 256 296 300 326 q 213 214 213 265 m 381 833 q 273 856 321 833 q 194 920 225 879 q 154 1018 164 961 l 282 1018 q 317 958 292 978 q 381 939 343 939 q 444 958 418 939 q 479 1018 469 978 l 607 1018 q 567 920 597 961 q 488 856 536 879 q 381 833 440 833 z "},"ğ":{"ha":871,"x_min":54,"x_max":785,"o":"m 389 14 q 257 42 318 14 q 150 119 196 69 q 79 234 104 168 q 54 378 54 300 q 80 523 54 456 q 153 640 106 590 q 263 719 200 690 q 397 747 325 747 q 534 715 472 747 q 633 624 596 682 l 639 726 l 785 726 l 785 76 q 758 -76 785 -7 q 683 -194 732 -144 q 567 -269 635 -243 q 417 -296 500 -296 q 222 -246 306 -296 q 92 -107 139 -196 l 243 -54 q 319 -130 274 -104 q 422 -156 365 -156 q 529 -128 483 -156 q 600 -52 575 -101 q 625 64 625 -3 l 625 133 q 525 46 586 78 q 389 14 464 14 m 422 158 q 527 188 481 158 q 601 267 574 217 q 628 381 628 317 q 601 494 628 444 q 527 574 574 544 q 422 603 481 603 q 318 574 364 603 q 245 494 272 544 q 218 381 218 444 q 245 267 218 317 q 318 188 272 217 q 422 158 364 158 m 421 833 q 313 856 361 833 q 235 920 265 879 q 194 1018 204 961 l 322 1018 q 358 958 332 978 q 421 939 383 939 q 484 958 458 939 q 519 1018 510 978 l 647 1018 q 607 920 638 961 q 528 856 576 879 q 421 833 481 833 z "},"̇":{"ha":0,"x_min":-97,"x_max":97,"o":"m 97 929 q 84 881 97 903 q 49 845 71 858 q 0 832 28 832 q -49 845 -28 832 q -84 881 -71 858 q -97 929 -97 903 q -84 978 -97 956 q -49 1013 -71 1000 q 0 1026 -28 1026 q 49 1013 28 1026 q 84 978 71 1000 q 97 929 97 956 z "},"˙":{"ha":815,"x_min":310,"x_max":504,"o":"m 504 929 q 491 881 504 903 q 456 845 478 858 q 407 832 435 832 q 358 845 379 832 q 323 881 336 858 q 310 929 310 903 q 323 978 310 956 q 358 1013 336 1000 q 407 1026 379 1026 q 456 1013 435 1026 q 491 978 478 1000 q 504 929 504 956 z "},"̣":{"ha":0,"x_min":-97,"x_max":97,"o":"m 97 -206 q 84 -255 97 -233 q 49 -290 71 -276 q 0 -303 28 -303 q -49 -290 -28 -303 q -84 -255 -71 -276 q -97 -206 -97 -233 q -84 -156 -97 -178 q -49 -122 -71 -135 q 0 -108 -28 -108 q 49 -122 28 -108 q 84 -156 71 -135 q 97 -206 97 -178 z "},"Ė":{"ha":789,"x_min":97,"x_max":708,"o":"m 97 0 l 97 986 l 694 986 l 694 840 l 264 840 l 264 582 l 653 582 l 653 436 l 264 436 l 264 146 l 708 146 l 708 0 l 97 0 m 396 1082 q 345 1095 368 1082 q 309 1131 322 1108 q 296 1182 296 1154 q 309 1232 296 1210 q 345 1267 322 1254 q 396 1281 368 1281 q 447 1267 424 1281 q 483 1232 469 1254 q 496 1182 496 1210 q 483 1131 496 1154 q 447 1095 469 1108 q 396 1082 424 1082 z "},"İ":{"ha":364,"x_min":82,"x_max":282,"o":"m 97 0 l 97 986 l 267 986 l 267 0 l 97 0 m 182 1082 q 131 1095 154 1082 q 95 1131 108 1108 q 82 1182 82 1154 q 95 1232 82 1210 q 131 1267 108 1254 q 182 1281 154 1281 q 233 1267 210 1281 q 269 1232 256 1254 q 282 1182 282 1210 q 269 1131 282 1154 q 233 1095 256 1108 q 182 1082 210 1082 z "},"Ċ":{"ha":1018,"x_min":64,"x_max":968,"o":"m 546 -28 q 353 10 442 -28 q 201 118 265 49 q 100 281 136 188 q 64 486 64 375 q 88 655 64 575 q 155 801 111 735 q 258 915 199 867 q 391 988 318 963 q 546 1014 464 1014 q 724 980 642 1014 q 867 884 807 946 q 958 738 928 822 l 796 692 q 694 815 760 771 q 544 858 628 858 q 424 831 479 858 q 326 753 368 803 q 262 635 285 703 q 239 488 239 567 q 262 342 239 408 q 326 228 285 276 q 423 154 367 181 q 547 128 479 128 q 699 171 633 128 q 806 294 765 214 l 968 249 q 875 101 936 164 q 729 6 814 39 q 546 -28 644 -28 m 544 1082 q 494 1095 517 1082 q 458 1131 471 1108 q 444 1182 444 1154 q 458 1232 444 1210 q 494 1267 471 1254 q 544 1281 517 1281 q 595 1267 572 1281 q 631 1232 618 1254 q 644 1182 644 1210 q 631 1131 644 1154 q 595 1095 618 1108 q 544 1082 572 1082 z "},"Ġ":{"ha":1092,"x_min":64,"x_max":1031,"o":"m 561 -28 q 399 -3 475 -28 q 263 69 324 22 q 157 179 201 115 q 88 322 113 243 q 64 490 64 400 q 88 660 64 581 q 158 804 113 739 q 265 916 203 869 q 402 988 326 963 q 564 1014 478 1014 q 738 983 657 1014 q 882 896 819 953 q 981 761 944 839 l 819 707 q 713 819 779 779 q 564 858 647 858 q 435 831 494 858 q 332 753 376 803 q 263 638 288 704 q 239 493 239 571 q 263 347 239 414 q 332 231 288 279 q 437 155 376 182 q 568 128 497 128 q 713 160 650 128 q 814 251 776 193 q 857 388 851 310 l 588 388 l 588 529 l 1031 529 l 1031 436 q 997 249 1031 333 q 899 102 963 164 q 751 6 836 40 q 561 -28 665 -28 m 572 1082 q 522 1095 544 1082 q 485 1131 499 1108 q 472 1182 472 1154 q 485 1232 472 1210 q 522 1267 499 1254 q 572 1281 544 1281 q 623 1267 600 1281 q 659 1232 646 1254 q 672 1182 672 1210 q 659 1131 672 1154 q 623 1095 646 1108 q 572 1082 600 1082 z "},"Ż":{"ha":875,"x_min":57,"x_max":821,"o":"m 57 0 l 57 122 l 581 842 l 78 842 l 78 986 l 790 986 l 790 864 l 267 144 l 821 144 l 821 0 l 57 0 m 433 1082 q 383 1095 406 1082 q 347 1131 360 1108 q 333 1182 333 1154 q 347 1232 333 1210 q 383 1267 360 1254 q 433 1281 406 1281 q 484 1267 461 1281 q 520 1232 507 1254 q 533 1182 533 1210 q 520 1131 533 1154 q 484 1095 507 1108 q 433 1082 461 1082 z "},"Ḥ":{"ha":1015,"x_min":97,"x_max":918,"o":"m 97 0 l 97 986 l 267 986 l 267 586 l 749 586 l 749 986 l 918 986 l 918 0 l 749 0 l 749 435 l 267 435 l 267 0 l 97 0 m 508 -314 q 458 -301 481 -314 q 422 -265 435 -287 q 408 -214 408 -242 q 422 -164 408 -186 q 458 -128 435 -142 q 508 -115 481 -115 q 559 -128 536 -115 q 595 -164 582 -142 q 608 -214 608 -186 q 595 -265 608 -242 q 559 -301 582 -287 q 508 -314 536 -314 z "},"Ḷ":{"ha":744,"x_min":97,"x_max":685,"o":"m 97 0 l 97 986 l 267 986 l 267 151 l 685 151 l 685 0 l 97 0 m 390 -314 q 340 -301 363 -314 q 303 -265 317 -287 q 290 -214 290 -242 q 303 -164 290 -186 q 340 -128 317 -142 q 390 -115 363 -115 q 441 -128 418 -115 q 477 -164 464 -142 q 490 -214 490 -186 q 477 -265 490 -242 q 441 -301 464 -287 q 390 -314 418 -314 z "},"ė":{"ha":807,"x_min":54,"x_max":757,"o":"m 424 -21 q 276 8 343 -21 q 158 88 208 36 q 81 209 108 139 q 54 364 54 279 q 81 515 54 446 q 156 637 108 585 q 269 718 204 689 q 411 747 335 747 q 551 720 488 747 q 660 643 614 693 q 732 524 707 593 q 757 372 757 456 l 757 325 l 219 325 q 253 215 226 261 q 324 143 281 168 q 424 118 367 118 q 601 219 538 118 l 742 165 q 669 66 717 108 q 558 1 621 24 q 424 -21 494 -21 m 411 618 q 324 596 363 618 q 260 533 286 574 q 224 439 233 493 l 590 439 q 558 533 582 493 q 497 596 535 574 q 411 618 458 618 m 508 929 q 495 881 508 903 q 460 845 482 858 q 411 832 439 832 q 362 845 383 832 q 327 881 340 858 q 314 929 314 903 q 327 978 314 956 q 362 1013 340 1000 q 411 1026 383 1026 q 460 1013 439 1026 q 495 978 482 1000 q 508 929 508 956 z "},"ċ":{"ha":779,"x_min":54,"x_max":733,"o":"m 414 -21 q 271 8 336 -21 q 157 87 206 36 q 81 207 108 138 q 54 358 54 276 q 82 511 54 440 q 158 635 110 582 q 273 717 207 688 q 417 747 339 747 q 554 720 492 747 q 662 644 617 693 q 726 528 707 594 l 575 492 q 509 574 551 544 q 414 603 467 603 q 314 571 358 603 q 244 484 269 539 q 218 360 218 429 q 243 238 218 292 q 312 154 268 185 q 414 124 356 124 q 515 152 469 124 q 583 233 561 181 l 733 199 q 667 83 714 132 q 554 6 619 33 q 414 -21 489 -21 m 514 929 q 501 881 514 903 q 466 845 488 858 q 417 832 444 832 q 367 845 389 832 q 333 881 346 858 q 319 929 319 903 q 333 978 319 956 q 367 1013 346 1000 q 417 1026 389 1026 q 466 1013 444 1026 q 501 978 488 1000 q 514 929 514 956 z "},"ġ":{"ha":871,"x_min":54,"x_max":785,"o":"m 389 14 q 257 42 318 14 q 150 119 196 69 q 79 234 104 168 q 54 378 54 300 q 80 523 54 456 q 153 640 106 590 q 263 719 200 690 q 397 747 325 747 q 534 715 472 747 q 633 624 596 682 l 639 726 l 785 726 l 785 76 q 758 -76 785 -7 q 683 -194 732 -144 q 567 -269 635 -243 q 417 -296 500 -296 q 222 -246 306 -296 q 92 -107 139 -196 l 243 -54 q 319 -130 274 -104 q 422 -156 365 -156 q 529 -128 483 -156 q 600 -52 575 -101 q 625 64 625 -3 l 625 133 q 525 46 586 78 q 389 14 464 14 m 422 158 q 527 188 481 158 q 601 267 574 217 q 628 381 628 317 q 601 494 628 444 q 527 574 574 544 q 422 603 481 603 q 318 574 364 603 q 245 494 272 544 q 218 381 218 444 q 245 267 218 317 q 318 188 272 217 q 422 158 364 158 m 518 929 q 505 881 518 903 q 470 845 492 858 q 421 832 449 832 q 372 845 393 832 q 337 881 350 858 q 324 929 324 903 q 337 978 324 956 q 372 1013 350 1000 q 421 1026 393 1026 q 470 1013 449 1026 q 505 978 492 1000 q 518 929 518 956 z "},"ż":{"ha":713,"x_min":57,"x_max":656,"o":"m 57 0 l 57 106 l 435 597 l 67 597 l 67 726 l 632 726 l 632 621 l 254 129 l 656 129 l 656 0 l 57 0 m 446 929 q 433 881 446 903 q 398 845 419 858 q 349 832 376 832 q 299 845 321 832 q 265 881 278 858 q 251 929 251 903 q 265 978 251 956 q 299 1013 278 1000 q 349 1026 321 1026 q 398 1013 376 1026 q 433 978 419 1000 q 446 929 446 956 z "},"ḥ":{"ha":815,"x_min":86,"x_max":729,"o":"m 86 0 l 86 1033 l 246 1033 l 246 639 q 335 718 279 689 q 460 747 390 747 q 602 708 542 747 q 696 599 663 669 q 729 432 729 528 l 729 0 l 569 0 l 569 414 q 530 553 569 503 q 419 603 490 603 q 330 579 369 603 q 268 515 290 556 q 246 422 246 475 l 246 0 l 86 0 m 504 -206 q 491 -255 504 -233 q 456 -290 478 -276 q 407 -303 435 -303 q 358 -290 379 -303 q 323 -255 336 -276 q 310 -206 310 -233 q 323 -156 310 -178 q 358 -122 336 -135 q 407 -108 379 -108 q 456 -122 435 -108 q 491 -156 478 -135 q 504 -206 504 -178 z "},"ḷ":{"ha":332,"x_min":67,"x_max":261,"o":"m 86 0 l 86 1033 l 246 1033 l 246 0 l 86 0 m 261 -206 q 248 -255 261 -233 q 213 -290 235 -276 q 164 -303 192 -303 q 115 -290 136 -303 q 80 -255 93 -276 q 67 -206 67 -233 q 80 -156 67 -178 q 115 -122 93 -135 q 164 -108 136 -108 q 213 -122 192 -108 q 248 -156 235 -135 q 261 -206 261 -178 z "},"̊":{"ha":0,"x_min":-150,"x_max":150,"o":"m 0 797 q -76 817 -42 797 q -130 869 -110 836 q -150 942 -150 901 q -130 1015 -150 982 q -76 1067 -110 1047 q 0 1086 -42 1086 q 76 1067 42 1086 q 130 1015 110 1047 q 150 942 150 982 q 130 869 150 901 q 76 817 110 836 q 0 797 42 797 m 0 876 q 45 895 26 876 q 64 942 64 914 q 45 988 64 969 q 0 1007 26 1007 q -45 988 -26 1007 q -64 942 -64 969 q -45 895 -64 914 q 0 876 -26 876 z "},"˚":{"ha":815,"x_min":257,"x_max":557,"o":"m 407 797 q 331 817 365 797 q 277 869 297 836 q 257 942 257 901 q 277 1015 257 982 q 331 1067 297 1047 q 407 1086 365 1086 q 483 1067 449 1086 q 537 1015 517 1047 q 557 942 557 982 q 537 869 557 901 q 483 817 517 836 q 407 797 449 797 m 407 876 q 452 895 433 876 q 471 942 471 914 q 452 988 471 969 q 407 1007 433 1007 q 362 988 381 1007 q 343 942 343 969 q 362 895 343 914 q 407 876 381 876 z "},"Å":{"ha":1021,"x_min":26,"x_max":994,"o":"m 26 0 l 419 986 l 600 986 l 994 0 l 819 0 l 726 244 l 288 244 l 194 0 l 26 0 m 343 389 l 671 389 l 507 815 l 343 389 m 510 1043 q 432 1063 467 1043 q 377 1116 397 1082 q 357 1190 357 1150 q 377 1265 357 1231 q 432 1318 397 1299 q 510 1338 467 1338 q 588 1318 553 1338 q 642 1265 622 1299 q 663 1190 663 1231 q 642 1116 663 1150 q 588 1063 622 1082 q 510 1043 553 1043 m 510 1126 q 553 1145 535 1126 q 572 1190 572 1164 q 553 1235 572 1217 q 510 1254 535 1254 q 466 1235 485 1254 q 447 1190 447 1217 q 466 1145 447 1164 q 510 1126 485 1126 z "},"Ů":{"ha":994,"x_min":86,"x_max":908,"o":"m 494 -28 q 325 1 400 -28 q 197 86 250 31 q 115 219 143 142 q 86 392 86 296 l 86 986 l 256 986 l 256 399 q 285 255 256 315 q 369 161 315 194 q 497 128 424 128 q 625 161 571 128 q 709 255 679 194 q 739 399 739 315 l 739 986 l 908 986 l 908 392 q 879 219 908 296 q 795 87 850 142 q 665 2 740 32 q 494 -28 589 -28 m 497 1043 q 419 1063 454 1043 q 365 1116 385 1082 q 344 1190 344 1150 q 365 1265 344 1231 q 419 1318 385 1299 q 497 1338 454 1338 q 575 1318 540 1338 q 630 1265 610 1299 q 650 1190 650 1231 q 630 1116 650 1150 q 575 1063 610 1082 q 497 1043 540 1043 m 497 1126 q 541 1145 522 1126 q 560 1190 560 1164 q 541 1235 560 1217 q 497 1254 522 1254 q 453 1235 472 1254 q 435 1190 435 1217 q 453 1145 435 1164 q 497 1126 472 1126 z "},"å":{"ha":769,"x_min":51,"x_max":683,"o":"m 308 -21 q 206 -4 253 -21 q 125 43 160 13 q 71 115 90 74 q 51 207 51 157 q 88 328 51 276 q 192 410 125 381 q 347 439 258 439 q 440 430 396 439 q 525 404 485 421 l 525 450 q 507 535 525 499 q 456 593 489 572 q 375 614 422 614 q 285 588 325 614 q 225 514 244 561 l 78 547 q 138 653 94 608 q 244 722 182 697 q 378 747 306 747 q 502 725 446 747 q 599 663 558 703 q 661 567 639 622 q 683 443 683 511 l 683 0 l 538 0 l 532 96 q 444 11 503 43 q 308 -21 386 -21 m 213 214 q 229 159 213 183 q 276 121 246 135 q 346 107 306 107 q 438 129 397 107 q 501 190 478 151 q 525 276 525 228 l 525 293 q 451 317 489 308 q 372 326 413 326 q 256 296 300 326 q 213 214 213 265 m 381 797 q 305 817 339 797 q 251 869 271 836 q 231 942 231 901 q 251 1015 231 982 q 305 1067 271 1047 q 381 1086 339 1086 q 456 1067 422 1086 q 510 1015 490 1047 q 531 942 531 982 q 510 869 531 901 q 456 817 490 836 q 381 797 422 797 m 381 876 q 426 895 407 876 q 444 942 444 914 q 426 988 444 969 q 381 1007 407 1007 q 335 988 354 1007 q 317 942 317 969 q 335 895 317 914 q 381 876 354 876 z "},"ů":{"ha":814,"x_min":86,"x_max":728,"o":"m 406 -21 q 237 21 308 -21 q 126 140 165 63 q 86 321 86 217 l 86 726 l 246 726 l 246 318 q 289 176 246 228 q 407 124 332 124 q 525 176 482 124 q 568 318 568 228 l 568 726 l 728 726 l 728 321 q 688 141 728 218 q 576 22 649 64 q 406 -21 504 -21 m 406 797 q 330 817 364 797 q 276 869 296 836 q 256 942 256 901 q 276 1015 256 982 q 330 1067 296 1047 q 406 1086 364 1086 q 481 1067 447 1086 q 535 1015 515 1047 q 556 942 556 982 q 535 869 556 901 q 481 817 515 836 q 406 797 447 797 m 406 876 q 451 895 432 876 q 469 942 469 914 q 451 988 469 969 q 406 1007 432 1007 q 360 988 379 1007 q 342 942 342 969 q 360 895 342 914 q 406 876 379 876 z "},"﻿":{"ha":0,"x_min":0,"x_max":0,"o":""},"�":{"ha":1122,"x_min":21,"x_max":1101,"o":"m 561 -47 l 21 493 l 561 1033 l 1101 493 l 561 -47 m 506 333 l 600 333 l 600 418 q 720 492 678 442 q 763 608 763 542 q 736 699 763 658 q 665 763 710 739 q 561 786 619 786 q 467 767 510 786 q 394 715 424 749 q 354 636 365 681 l 447 613 q 488 676 458 653 q 557 699 517 699 q 630 671 601 699 q 658 600 658 643 q 620 519 658 553 q 506 467 582 485 l 506 333 m 553 147 q 598 165 579 147 q 617 210 617 183 q 599 255 617 236 q 553 274 581 274 q 508 256 526 274 q 490 210 490 238 q 508 165 490 183 q 553 147 526 147 z "}}}
